<?xml version="1.0" encoding="utf-8"?><svg width="118" height="516" viewBox="0 0 118 516" xmlns="http://www.w3.org/2000/svg" xmlns:xlink="http://www.w3.org/1999/xlink"><svg id="carousel__left" viewBox="-5 -5 92 92" width="92" height="92"><style>.ast0{opacity:.3}.ast1{opacity:.8}.ast2{fill:none;stroke:#fff;stroke-miterlimit:10}</style><path class="ast0" d="M41 0C18.4 0 0 18.4 0 41s18.4 41 41 41 41-18.4 41-41S63.6 0 41 0zm0 76.1c-19.3 0-35-15.7-35-35s15.7-35 35-35 35 15.7 35 35-15.7 35-35 35z"/><circle class="ast1" cx="41" cy="41.1" r="35"/><path class="ast2" d="M45 51.6L34.4 41 45 30.4"/></svg><svg id="carousel__left_active" viewBox="-5 -5 92 92" width="92" height="92" y="92"><style>.bst0{opacity:.3}.bst1{opacity:.8;fill:#167ee2}.bst2{fill:none;stroke:#fff;stroke-miterlimit:10}</style><path class="bst0" d="M41 0C18.4 0 0 18.4 0 41s18.4 41 41 41 41-18.4 41-41S63.6 0 41 0zm0 76.1c-19.3 0-35-15.7-35-35s15.7-35 35-35 35 15.7 35 35-15.7 35-35 35z"/><circle class="bst1" cx="41" cy="41.1" r="35"/><path class="bst2" d="M45 51.6L34.4 41 45 30.4"/></svg><svg id="carousel__right" viewBox="-5 -5 92 92" width="92" height="92" y="184"><style>.cst0{opacity:.3}.cst1{opacity:.8}.cst2{fill:none;stroke:#fff;stroke-miterlimit:10}</style><path class="cst0" d="M41 0C18.4 0 0 18.4 0 41s18.4 41 41 41 41-18.4 41-41S63.6 0 41 0zm0 76.1c-19.3 0-35-15.7-35-35s15.7-35 35-35 35 15.7 35 35-15.7 35-35 35z"/><circle class="cst1" cx="41" cy="41.1" r="35"/><path class="cst2" d="M37 30.4L47.6 41 37 51.6"/></svg><svg id="carousel__right_active" viewBox="-5 -5 92 92" width="92" height="92" y="276"><style>.dst0{opacity:.3}.dst1{opacity:.8;fill:#167ee2}.dst2{fill:none;stroke:#fff;stroke-miterlimit:10}</style><path class="dst0" d="M41 0C18.4 0 0 18.4 0 41s18.4 41 41 41 41-18.4 41-41S63.6 0 41 0zm0 76.1c-19.3 0-35-15.7-35-35s15.7-35 35-35 35 15.7 35 35-15.7 35-35 35z"/><circle class="dst1" cx="41" cy="41.1" r="35"/><path class="dst2" d="M37 30.4L47.6 41 37 51.6"/></svg><svg id="follow__add" viewBox="-5 -5 34 34" width="34" height="34" y="368"><style>.est0{fill:#fff}</style><path class="est0" d="M0 0v24h24V0H0zm18 14h-4v4h-4v-4H6v-4h4V6h4v4h4v4z"/></svg><svg id="follow__facebook" viewBox="-5 -5 34 34" width="34" height="34" y="402"><style>.fst0{fill:#fff}</style><path class="fst0" d="M0 0v24h24V0H0zm16.5 5.7c0 .1 0 .1-.1.1h-1.6c-.2 0-.5 0-.7.1-.5.1-.7.5-.7.9-.1.4 0 .8 0 1.2v1.1c0 .1 0 .1.1.1h2.7c.1 0 .1 0 .1.1-.1.9-.2 1.8-.4 2.8 0 .1-.1.1-.2.1h-2.3c-.1 0-.2 0-.2.1v7.4c0 .1 0 .1-.2.1h-2.8c-.1 0-.2 0-.2-.2v-7.4c0-.1 0-.2-.2-.2H7.5c-.1 0-.1 0-.1-.1V9.2c0-.1 0-.1.1-.1h2.4c.1 0 .1 0 .1-.1V6.9c0-.7.1-1.3.4-1.9.5-1.1 1.4-1.7 2.6-2 .6-.1 1.2-.1 1.8-.1.5 0 .9 0 1.4.1.1 0 .2 0 .2.2.1.8.1 1.6.1 2.5z"/></svg><svg id="follow__tweetter" viewBox="-5 -5 34 34" width="34" height="34" y="436"><style>.gst0{fill:#fff}</style><path class="gst0" d="M0 0h24v24H0V0zm8.2 15.9c-.5.2-.9.4-1.4.5-.4.1-.8.2-1.3.2h-.8s.1 0 .1.1c1.3.8 2.7 1.2 4.2 1.3 1 0 2-.1 3-.4.4-.1.8-.3 1.3-.5h.1c2.5-1.3 3.9-3.4 4.4-6.2.1-.3.1-.6.1-.9v-.9c0-.1 0-.1.1-.1.5-.4 1-.8 1.3-1.4 0 0 0-.1.1-.1-.5.2-1.1.4-1.7.4.6-.4 1-.9 1.3-1.6-.1 0-.1 0-.1.1-.5.3-1.1.5-1.7.6-.2 0-.2 0-.3-.1-1.1-1.1-3-1.1-4.2 0-.8.8-1.1 1.7-.9 2.8 0 .1 0 .1-.1.1-.3 0-.6-.1-.9-.1C9 9.3 7.3 8.4 6 7c-.1-.2-.2-.3-.3-.4 0 0 0 .1-.1.1-.4.7-.4 1.5-.2 2.3.2.7.6 1.2 1.2 1.6h-.1c-.4 0-.8-.1-1.2-.3-.1-.1-.1-.1-.1.1 0 1.2.8 2.3 2 2.7.1 0 .2.1.4.1-.4.1-.9.1-1.3 0 .5 1.3 1.4 2 2.8 2.1-.1.1-.2.2-.4.3-.1.1-.3.2-.5.3z"/></svg><svg id="sec-two__map" viewBox="-5 -5 118 46" width="118" height="46" y="470"><style>.hst0{fill:#fff}</style><path d="M75.1 4.2c0-.1 0-.1 0 0-.2-.1-.2-.2-.2-.3 0-.1.1-.2.3-.2h1.4v-.1c0-.2 0-.2.2-.3.2 0 .4-.1.6-.1.9-.1 1.7-.2 2.6-.2h.4c.3 0 .5-.1.8-.1.2-.4.6-.5 1-.5.1 0 .2.1.2.2s.2.2.3.2h1.4c.2 0 .3 0 .5.1.3 0 .4.1.2.3l-.1.1.3.3h.2c.5-.1 1-.1 1.5.1.4.1.8.1 1.2 0 .4-.1.9-.1 1.3 0h.1c.1 0 .2 0 .2.2 0 .1-.1.1-.1.2l-.1.1s0 .1.1.1c.2.1.5.2.7.3h.2c.4-.2.8-.2 1.2-.2h.8c.2 0 .3-.1.4-.2.2-.2.4-.2.5-.2h.9c.1 0 .2 0 .3.1.3.1.6.1 1 .1.2 0 .4 0 .6.1.2.2.6.3.9.3h1.6c.2 0 .3.1.4.2.1.1.2.2.3.2h1.2c.4 0 .9 0 1.3.1h.1s0-.1.1-.1c.1-.2.1-.2.3-.2h.4c.7.1 1.5.2 2.2.3.3 0 .6.1.9.2.2 0 .3.1.5.2.1.1.2.2.4.3.4-.2.7-.1 1.1 0 .1 0 .2 0 .3.1v.3c-.2 0-.3.1-.5.1-.1 0-.2.1-.3.2-.1.2-.3.2-.4.1-.5-.2-1.1-.3-1.7-.4-.3.2-.3.2-.9.3.1 0 .2.1.2.1.2.1.3.2.4.3.1.1.2.1.3.1.2-.1.3-.1.5 0s.4.1.6.2v2.6c-.1 0-.1.1-.2.1-.2.1-.4.1-.6.3 0 0-.1.1-.2.1s-.2 0-.2-.1c-.5-.2-1-.3-1.5-.3h-.2c-.1.1-.2.2-.4.3v.5c-.1 0-.2.1-.3.1-.6 0-1.2.2-1.7.3-.4.1-.8.2-1.1.1-.5-.1-1 .1-1.5.3 0 0-.1.1-.1.2v.3c0 .2-.1.4-.3.5-.3.1-.5.3-.7.5-.1.1-.2.2-.4.2-.1.1-.2.1-.3.2-.2.1-.3.1-.4-.1-.1-.3-.2-.5-.2-.9v-.9-.2h-.1c-.3.3-.6.3-.9.2-.4-.1-.9-.1-1.3 0 0 0-.1 0-.1.1.1 0 .3.1.4.1h.2c.1 0 .2.1.2.1 0 .1 0 .2-.1.2-.1.1-.2.1-.3.1l-.9.3c.3.2.3.4.2.7v.1c-.2.3-.3.7-.2 1.1v.5c0 .2-.1.3-.3.4-.2.1-.5.1-.7.2v.1c.1.5-.2.9-.5 1.3 0 .1-.2.1-.2.1-.6 0-1.2.2-1.8.3-.2 0-.4.1-.6.3-.1.1-.1.1-.3.1-.2 0-.3-.1-.3-.2v-.1c-.2-.1-.2-.3-.2-.6-.2 0-.3.1-.4.1-.2 0-.2 0-.3-.2 0-.2-.1-.3-.2-.4l-.3-.3s-.1-.1-.2-.1c-.2 0-.5.2-.5.4v.1c-.2.3-.2.3-.2.6v.9c0 .3-.1.5-.3.6-.6.5-1.2.9-2 .9-.3 0-.6.1-.9.2-.1 0-.3.1-.4.1v1.6h.2c.5-.2 1.1-.5 1.6-.8.2-.1.4-.2.6-.1.1 0 .2 0 .2-.1.2-.1.3-.2.5-.3.3-.1.6-.1.8.1.2.1.2.3 0 .4l-.1.1c.3.4.3.4 0 .8.2 0 .3 0 .5-.1 0-.1.1-.1.2-.1.5-.1.9-.1 1.4 0-.1.1-.3.2-.4.2h-.8v.1h.6c.1 0 .1.1.1.2s-.1.1-.2.1h-.3c.1.1.2.1.2.2.1.1.1.2.1.3 0 .1 0 .2-.1.3-.1.1-.3 0-.3-.1-.1-.1-.1-.2-.2-.3v.5c0 .1-.1.2-.1.4v.7c-.1 0-.2.1-.3.1-.1.3-.1.6-.1 1 .1-.1.2-.1.3-.2.3-.3.7-.3 1.1-.1l.6-.3h.1c.2-.1.4-.3.6-.4v-1.9c.3-.1.5-.1.7.1.1 0 .1 0 .2.1h.3c.1 0 .1-.2.2-.3-.1 0-.1-.1-.2-.1-.1-.1-.1-.2 0-.2.2-.1.6 0 .7.2l.1.1c.1.1.2.2.4.1.3-.2.6-.2.9-.1.6.1 1.1.3 1.7.4.2 0 .3.1.5.2s.4.2.5.5c0 .1.1.1.2.2s.2.1.3.2c.1.1.1.2 0 .2h-.1c-.3 0-.6-.1-.9-.3h-.1c-.2-.2-.5-.2-.8 0 .1.2.4.2.5.4v.9c0 .1 0 .2.1.2 0 .1.1.2.1.2 0 .2.2.4.4.5.3.2.6.4.9.7.2.1.4.3.6.3.3.1.3.1.3.4 0 .7-.2 1.3-.7 1.9-.1.1-.1.2-.2.3 0 .2-.2.3-.3.4-.1 0-.2.1-.2.1-.1.4-.2.7-.2 1.1-.1.3-.3.6-.4.8-.1.1-.1.2-.2.4s-.2.3-.3.3c-.3.1-.6.2-.8.3h-.2c-.2-.1-.4-.1-.6-.1h-.5c-.3 0-.6-.1-.8-.4-.2-.2-.4-.4-.6-.5h-.1c0-.1.1-.2.1-.3-.1-.1-.2 0-.3.1-.2.2-.4.3-.6 0-.2-.2-.5-.4-.8-.4-.6-.1-1.2-.1-1.8.1-.5.1-1.1.3-1.6.4-.2.1-.5.1-.7.2-.2.1-.4.1-.5 0-.2-.1-.3-.2-.3-.4-.1-.6-.3-1.1-.7-1.5l-.1-.1h.4c0-.2-.1-.3-.2-.4-.1-.1-.1-.2-.1-.3v-1.7c0-.1 0-.2.1-.3v-.1-.2c0-.2.1-.3.2-.3.3-.1.6-.2 1-.3.3-.1.7-.2 1-.3.2-.1.4-.2.5-.4-.1-.2-.2-.3-.3-.5-.2.2 0 .4-.1.6-.2 0-.3-.1-.3-.2-.1-.2-.1-.3-.1-.5v-1.8-.3 1.1c0 .2-.1.3-.2.4-.1 0-.1.1-.2.1-.2.1-.3.3-.3.5s-.1.2-.2.2H84v1h-.3c-.6-.1-1.3-.2-1.9-.3-.2 0-.3-.1-.3-.3v-.3h-.1c-.2.2-.3.2-.6.1-.6-.3-1-.8-1.5-1.3-.2-.2-.4-.4-.6-.5-.1-.1-.2-.2-.2-.3v-1.8c0-.1 0-.1.1-.2 0-.1-.1-.1-.2-.1-.2 0-.3 0-.3-.3 0-.2-.1-.3-.2-.4-.2-.2-.4-.3-.6-.5-.1 0-.2-.1-.3 0-.2 0-.4.1-.6.1-.2 0-.4.1-.6.2-.5.3-1 .6-1.5.8 0 0-.1 0-.1.1-.2.1-.3.2-.3.4 0 .4-.1.7-.4.9-.2.2-.4.2-.5 0l-.9-1.2c-.2-.3-.4-.7-.4-1.1v-.1h-.2c-.1 0-.1 0-.2.1-.3.1-.3 0-.4-.3-.3-.1-.7-.3-1-.4-.2-.1-.4-.1-.6-.1H68v.4c0 .2-.1.4-.3.5-.4.3-.9.6-1.4.7-.2.1-.4.1-.6.2-.2.1-.2.1-.2.3.1.6-.2 1-.6 1.4-.3.4-.7.8-1.2 1-.2.1-.4.2-.6.4.2.7-.3 1-.8 1.2v1.5c.1.5-.2.8-.6 1-.2.1-.5.2-.7.3-.2.1-.3.1-.3.4v.5c0 .2-.1.4-.2.4-.4.1-.5.4-.7.8-.2.5-.6.8-1 1-.5.3-1.1.4-1.7.5-.4 0-.8.1-1.1.1-.4 0-.5-.1-.5-.5 0-.1 0-.1-.1-.2s-.2-.2-.2-.3c-.3-.4-.6-.8-.8-1.3-.1-.2-.1-.3-.1-.5s-.1-.5-.3-.6c-.2-.2-.3-.5-.3-.8v-2c0-.1 0-.2-.1-.3-.1-.2-.3-.4-.5-.5-.2-.1-.2-.3-.2-.5v-.7c0-.3-.1-.4-.4-.4h-.3c-.2 0-.4 0-.6-.2-.3-.2-.6-.2-.9-.2-.6.1-1.2.2-1.8.2-.3 0-.6.1-.9.1-.6 0-1.1-.2-1.6-.5l-.1-.1c-.2-.4-.6-.6-.9-.9-.5-.4-.5-.4-.5-1v-1.7-.2c.1-.1.1-.3.1-.4v-.5c0-.3.1-.6.3-.8.1-.1.1-.2.2-.3.1-.2.3-.4.4-.5.3-.2.6-.5 1-.7.2-.1.3-.3.3-.5 0-.3.1-.7 0-1 0-.2.1-.4.1-.7-.1 0-.2-.1-.3-.1v-.2-1.7-.3-.1c-.1-.3.1-.4.2-.6.2-.2.4-.3.6-.2.1 0 .2.1.3.1.1.1 0 .2 0 .3V9.7c-.1 0-.3.1-.4.1h-.3c-.1 0-.1-.1-.1-.2.1-.2.2-.4.4-.6.2-.2.5-.2.8-.1.1.1.2.1.3 0v-.1c-.3-.3-.1-.6.1-.8.3-.2.5-.3.8-.3-.1.1-.1.3-.2.4.1 0 .2.1.3.1v.1c-.1.2-.1.2.1.4.3.1.5.3.7.5.1.1.2.2.3.2.2.1.2.3 0 .4-.1.1-.2.1-.3.1-.1 0-.3 0-.5.1h-.3c.1.2.1.3.3.2.5-.2.9-.4 1.4-.6V9v-.7c0-.2.1-.3.2-.4.3.3.5.2.6.1 0-.1-.1-.3-.1-.4-.1-.2 0-.3.1-.4.4-.2.8-.4 1.2-.4h.3v-.1c-.1-.3-.1-.3.1-.5l.6-.3c.4-.2.8-.3 1.1-.6.1-.1.4-.2.6-.3l1.2-.3h.1c.5-.2 1-.2 1.6-.1.2 0 .3.1.5.1 0 0 .1 0 .1.1V5h.2c.3-.1.6-.1.9 0 .5.1 1.1.3 1.6.4.2 0 .3.1.5.2s.2.3 0 .4h-.5c-.4.1-.8 0-1.2 0-.1 0-.2 0-.3-.1.2.3.4.6.9.6v-.2h.7c.1 0 .2 0 .3-.1.2-.3.5-.3.7-.3h.4c0-.1-.1-.2-.1-.3-.1-.2 0-.3.2-.3s.4 0 .6.1c.1.1.1.2 0 .3h.4c.5-.3 1.1-.4 1.6-.4h.5c.2.1.3.1.5 0s.4-.1.6-.2h.4c.1.1.2.1.2 0 .7-.4 1.4-.2 2.1 0 .1 0 .3.1.4 0l-.1-.1c-.1 0-.2-.1-.3-.1-.2-.2-.2-.3.1-.5.1-.1.3-.2.4-.3.3-.2.7-.3 1-.2.1.1.2.2.2.3v.4c.1.2.1.4 0 .6 0 .1-.1.2-.1.3.1.1.2.1.2 0 .1-.2.4-.3.6-.5h-.1c-.2 0-.3-.1-.4-.3v-.1c-.1-.1-.1-.2 0-.3 0-.1.2-.2.3-.3.1 0 .2.1.3.1.2.2.2.2.4.2 0-.1-.1-.1-.1-.2.1 0 .1-.1.2-.1.3.1.8 0 1.2.2.1.1.5.4.6.4-.1-.3-.3-.4-.6-.4zm11.9 17c-.3.1-.5.3-.5.6s.1.5.3.7c0-.2-.1-.5.2-.6l.1.1c.1.1.1.2.2.3 0 .1.1.1.2.1 0 0 .1-.1 0-.2 0-.1-.1-.1-.2-.2l-.2-.2c.1-.2.3-.1.4-.2h-.4c-.2-.1-.2-.2-.1-.4h.4c-.1-.1-.2-.1-.4 0zm-14.6-4.5c0 .1 0 .2.1.3 0 .3.1.6.3.9.3.5.7 1 1 1.4.1.2.3.2.4 0 .3-.2.4-.5.4-.9 0-.3.1-.5.4-.6.3-.1.6-.3 1-.5.2-.1.3-.2.5-.3.2-.2.5-.3.7-.3.3 0 .5-.1.8-.1h.2c.3.2.5.4.7.6.1.1.2.2.2.4s.1.3.3.2c.1 0 .2-.1.4-.1s.3 0 .3.2c.1.2.2.4.2.6 0 .1.1.3.1.4 0 .3.1.7.3.9.2.2.4.4.6.7.1.1.2.2.4.2h.3v-.2c-.1-.3-.3-.6-.6-.7-.2-.1-.4-.3-.5-.4-.3-.3-.1-.7.2-.8.3-.1.5-.1.8.1.2.1.4.3.6.5.1.1.2.1.4.1.3-.1.5-.2.7-.4.3-.3.3-.4.1-.8l-.3-.3c-.1-.1-.2-.2-.4-.3-.2-.2-.2-.4 0-.6.1-.1.3-.2.4-.1.3 0 .6 0 .9-.1.3-.1.6-.1.9-.2.3 0 .6-.1.8-.2.2-.1.5-.2.7-.4.2-.1.3-.3.5-.4.1-.1.2-.3.2-.4v-.6c0-.1 0-.1-.1-.1l-.2-.2c-.3-.3-.2-.4.1-.6.1 0 .1-.1.2-.1s.1-.1.2-.1h-.4c-.2 0-.4 0-.5-.1-.1 0-.2-.1-.2-.2s.1-.2.1-.2c.2-.1.5-.2.7-.3h.2c.2 0 .2.1.1.3v.1h.1c.2-.1.4-.1.6-.1.1 0 .2.1.2.1.1.1.2.3.4.4.1.1.2.2.2.4 0 .1.1.2.2.2s.2-.1.3-.1c.2-.1.2-.2.1-.3l-.3-.3c-.1-.2-.1-.3.1-.5.3-.2.6-.4.8-.6.2-.1.4-.2.6-.1h.4c.6-.3 1.1-.6 1.5-1.1.3-.3.5-.7.5-1.1 0-.2-.1-.3-.3-.3h-.5c-.3 0-.5-.1-.7-.2-.2-.1-.2-.2 0-.4.3-.1.5-.3.8-.4.3-.1.6-.3.9-.4.4-.2.8-.3 1.3-.2h.5c.5-.1 1-.1 1.5 0 .2 0 .4 0 .6-.1.2-.1.4-.3.6-.4.3-.1.6-.2.9-.2.2 0 .2 0 .2.2v.1c.4-.1.8-.3 1.2-.5 0 .2 0 .4-.2.5l-1.8.9c-.1 0-.1.1-.2.1-.2.2-.4.4-.3.7 0 .2.1.4.2.6 0 .1.1.1.2.1.3-.2.6-.3.8-.5 0-.3.1-.4.3-.5.1-.1.2-.1.3-.2.1-.1.2-.3 0-.5-.1-.2-.1-.4.1-.5.6-.2 1.2-.4 1.9-.3.3.1.6 0 .9-.1.5-.2 1-.3 1.5-.4h.5v-.1l-.3-.3c-.1-.1-.3-.1-.4-.3h.7c.2 0 .4 0 .5-.2 0 0 .1-.1.2-.1h.3c.5.1.9.2 1.4.4.1 0 .2.1.3 0 .1-.2.4-.3.6-.4.1 0 .1 0 .2-.1-.2-.1-.3-.1-.4-.1-.3-.1-.5-.1-.8 0-.1 0-.2 0-.2-.1-.3-.3-.7-.4-1-.5-.9-.2-1.8-.3-2.7-.3h-.5c-.1 0-.2 0-.2.1-.1.2-.1.2-.4.2-.4-.1-.8-.1-1.1-.1-.4 0-.8 0-1.2-.1-.2 0-.3 0-.4-.1-.2-.2-.4-.3-.6-.3h-1.1c-.5 0-1 0-1.4-.4-.1-.1-.2-.1-.3 0-.3.1-.7.1-1 0-.5-.1-.7-.2-.9-.1h-.4c-.2 0-.4 0-.5.2 0 .1-.1.1-.2.1h-1.2c-.3 0-.7 0-1 .2-.1.1-.3.1-.4 0l-.6-.3c-.1-.1-.2-.2-.2-.3.1 0 .1-.1.2-.2-.1 0-.2-.1-.3-.1-.4-.1-.8-.1-1.1 0-.6.1-1.1.1-1.7 0-.3-.1-.7-.1-1 0-.3.1-.5 0-.6-.2-.2-.2-.2-.2 0-.4l.1-.1c-.1-.1-.2-.2-.3-.2H82.8c-.2 0-.3-.1-.3-.2l-.1-.1c-.3-.1-.7.1-.9.4 0 .1-.1.1-.2.2-.4 0-.7.1-1.1.1h-.9c-.7.1-1.4.1-2.1.2-.1 0-.3 0-.4.1 0 .1.1.2.1.3H75.5c-.1 0-.3 0-.4.1 0 .1 0 .1.1.1s.2.1.3.1c.1.1.3.2.3.3v.2h-.2c-.1 0-.1-.1-.2-.1-.3-.3-1-.4-1.4-.2.1.1.1.2.2.3-.4.1-.6 0-.8-.3-.2-.2-.2-.2-.4 0-.1.1-.2.2-.1.3v.1c0 .2.2.3.3.3.1 0 .3 0 .4.1.4.1.6.3.7.7-.3 0-.4 0-.6-.3-.1-.1-.2-.2-.3-.2-.2 0-.3.1-.4.2-.2.2-.4.4-.6.5-.3.2-.9.1-1.1-.2h.6c.2 0 .4 0 .4-.1.2-.3.3-.6.1-1-.1-.1-.1-.3 0-.4 0-.1 0-.2-.1-.2-.2-.1-.4-.1-.6 0-.3.1-.5.3-.7.5 0 0 0 .1-.1.1 0 .1.1.1.1.1l.3.3.1.1-.1.1H71c-.2 0-.4-.1-.6-.2-.5-.1-1-.1-1.5.1-.1.1-.3.1-.4 0-.1-.1-.2-.1-.3 0-.2.1-.4.1-.5.2-.2.1-.4.1-.6 0h-.2c-.3 0-.7.1-1 .2l-.9.3c-.2.1-.4.1-.5-.1 0-.1.1-.1.1-.2-.2-.2-.3-.2-.6-.1 0 .1.1.2.1.3-.1.1-.1.2-.3.2h-.4c-.2 0-.4.1-.6.2-.1.2-.3.2-.5.2H62h-.1v.2c-.3 0-.5 0-.8-.1l-.6-.6c.1-.1.3-.1.4 0 .2 0 .4.1.6.1h1c.1 0 .2 0 .3-.2-.2-.1-.5-.2-.7-.3-.5-.1-1-.3-1.5-.4-.1-.1-.3-.1-.6-.1h-.2c-.1 0-.2 0-.2-.2v-.1c-.4 0-.7-.1-1-.1-.3 0-.5 0-.7.1-.3.1-.7.2-1 .2-.2.1-.4.1-.6.1-.2.1-.4.1-.6.3-.2.2-.4.3-.7.4l-.6.3c-.2.1-.3.2-.5.3 0 .1 0 .1.1.1.1.2.1.4-.2.4h-.1c-.3 0-.6.1-.9.3-.3.2-.4.2-.3.6 0 .1 0 .1.1.2.1.2.2.2.3.2.2 0 .3 0 .5-.1.1 0 .3-.1.4-.1.2 0 .3 0 .4.2.1.2.2.3.3.5.1.1.2.2.3.2.4 0 .7-.1.9-.4.1-.2.2-.3.3-.4l.2-.2c-.1-.1-.2-.1-.2-.2-.2-.2-.2-.4 0-.6l.1-.1c.2-.1.4-.2.6-.4.2-.1.3-.2.4-.3.3-.2.5-.2.8-.2.1 0 .2.1.3.2 0 .1-.1.2-.2.2-.2.2-.5.3-.7.5-.1.1-.2.2-.2.4s.2.3.4.4h.3c.3 0 .6-.1 1-.1.3 0 .5 0 .8.2-.3.1-.5.2-.7.2h-.5c-.4 0-.4 0-.4.4 0 .2 0 .2-.2.2-.1 0-.2 0-.3-.1-.2 0-.3 0-.4.2 0 .3-.2.4-.4.4s-.4 0-.6.1c-.3 0-.6.1-.9.1-.5.1-1 0-1.4-.1-.2 0-.2-.2-.2-.3v-.1c-.3-.1-.3 0-.3.2v.1c0 .2 0 .3-.2.4-.1 0-.2 0-.3.1-.3 0-.6.1-.9.3-.1.1-.3.2-.5.3-.2.1-.4.1-.6.2-.4.2-.8.3-1.2.4-.1 0-.1 0-.2.1.1.1.2.1.3.1.1 0 .2.1.2.1.2.1.2.3.3.4 0 .3-.1.4-.4.5H48.1c-.2 0-.2.1-.2.3 0 .2 0 .4-.1.5-.1.3 0 .3.2.5.1 0 .1 0 .2.1.4.1.8.1 1.2.1.3 0 .5-.1.8-.3.5-.3.9-.7 1.4-1 .2-.1.4-.2.6-.2.3 0 .6-.1.8-.1.2 0 .5 0 .7.1.3.3.7.5 1.2.6.2.1.3.1.5.2l.3.3c0-.2.1-.3.4-.4-.2-.1-.4-.1-.5-.2-.4-.2-.8-.4-1.1-.7 0-.1-.1-.2-.1-.2.1-.1.2-.1.2-.1h.2c.5.2 1 .5 1.4.7.2.1.3.2.4.4l.5.5c.1.1.2.2.2.4.2 0 .4 0 .6-.2-.1 0-.1-.1-.1-.1-.2-.2-.2-.3.1-.4.2 0 .3-.1.5-.1h.5c.2 0 .2-.1.3-.3 0-.2.1-.4.2-.5.2-.1.3-.3.5-.4.2-.2.4-.2.7 0 .1 0 .1.1.2.1.2.1.3.2.5.1.1-.3.3-.4.6-.4h.1c.2 0 .3.1.2.3-.1.1 0 .2.1.3.1 0 .1.1.2.1l.6.3c.2.1.2.3 0 .4-.1 0-.2.1-.3.1-.3 0-.7 0-1-.1-.3-.1-.5-.1-.8-.1-.7 0-1.3.2-1.9.4-.1 0-.3.1-.3.3 0 .2.1.3.2.3.1.1.2.1.3.1h2c.2 0 .3.1.2.3-.1.2-.2.5-.3.7-.1.3-.4.4-.7.4-.5 0-1 0-1.5-.1-.5 0-.9-.1-1.3-.2-.3-.1-.6 0-.8.2-.2.2-.4.2-.6.2-.1 0-.3-.1-.4-.1-.5-.1-1-.3-1.5-.4-.1 0-.1 0-.2-.1-.2-.1-.2-.2-.2-.4v-.1c0-.2 0-.2-.2-.3-.1 0-.3-.1-.4-.1-.4 0-.8 0-1.2.1-.7.1-1.4.2-2.1.2-.7 0-1.4.3-2 .6-.1.1-.2.1-.2.3 0 .3-.1.4-.3.6-.1.1-.3.2-.5.3-.3.2-.7.4-.9.7-.3.3-.5.7-.4 1.2.1.2 0 .5-.1.7-.1.2-.1.2.1.4.1.1.3.2.4.4.2.2.5.4.7.7.2.2.4.4.6.5.4.2.9.3 1.4.2.4-.1.7 0 1.1-.1.5 0 .9-.1 1.4-.2.4-.1.7-.1 1.1.2.2.1.3.1.5.1h.4c.3 0 .4.2.4.4v.8c0 .1 0 .2.1.3.4.2.6.6.8.9.1.1.1.2.2.3.2.3.1.6-.1.9-.1.1-.1.2-.2.3-.2.4-.2.6.1 1 .2.2.2.4.3.6.1.3.2.5.3.8.2.4.5.8.8 1.1.1.2.3.3.2.5 0 .1.1.2.2.3h.3c.7 0 1.4-.1 2-.2.4-.1.8-.3 1.1-.5.3-.2.5-.4.6-.7.1-.4.3-.6.7-.7.3-.1.3-.3.2-.6-.1-.2-.1-.5.2-.6.2-.1.4-.2.7-.3.2-.1.3-.2.5-.3.3-.2.4-.4.3-.7-.1-.2-.1-.4-.2-.6-.4-.6-.3-1.1.3-1.5.4-.3.7-.6 1.2-.7-.4-.4-.4-.4-.3-.4.8-.5 1.4-1.1 1.9-1.9 0 0 0-.1.1-.2-.2 0-.4 0-.6.1-.4 0-.7.1-1.1.1-.3 0-.5-.1-.7-.3-.1-.1-.3-.2-.4-.4-.4-.3-.8-.6-1.1-.9-.1-.1-.2-.2-.2-.4s-.1-.5-.3-.6c-.3-.3-.6-.7-.9-1 0-.1-.1-.1-.1-.2v-.2H61.3c.2 0 .4.1.5.2.2.3.4.5.7.8.1.1.3.3.4.5.1.2.2.4.4.5.4.2.7.6.7 1.1 0 .1.1.2.2.2h.3c.3-.1.6-.1.8-.2.6-.2 1.2-.3 1.8-.5.4-.1.8-.3 1.2-.6.2-.1.4-.3.6-.5-.1-.1-.2-.1-.3-.2l-.6-.3c-.2-.2-.3-.2-.5-.1s-.5.2-.7.2c-.2 0-.3 0-.5-.1l-.3-.3-.6-.6c-.2-.2-.1-.3.1-.3.3 0 .5 0 .7.2.2.2.4.3.7.3.4.1.8.1 1.2.2.6.2 1.3.3 1.9.2.4 0 .7.1 1 .2.2.1.4.2.7.3.1 0 .2.1.2.1 0 .3 0 .3.2.3h.3zm19.7 11.8c.3.1.5.3.6.5.2.3.6.5 1 .4h.3c.2 0 .5 0 .7.1h.2c.3-.1.6-.2.8-.3.2-.1.3-.2.3-.4 0-.1.1-.2.1-.3.5-.5.6-1.1.7-1.8 0-.3 0-.3-.2-.4-.2-.1-.4-.1-.5-.3-.3-.3-.6-.5-.9-.7-.2-.2-.4-.4-.5-.7 0-.1-.1-.2-.2-.3-.2-.2-.4-.5-.5-.7-.1-.1-.2-.1-.3 0-.1.1-.1.2-.1.3-.1.2-.2.5-.3.7-.3.4-.4.5-.7.4-.3-.1-.6-.3-.9-.4-.3-.1-.3-.3-.1-.6 0-.1.1-.1.2-.2-.4-.1-.7-.2-1.1-.2-.3.1-.7.2-.8.5-.1.3-.3.4-.6.3-.1 0-.1 0-.2-.1-.3-.1-.6-.1-.8.1-.1.1-.3.2-.5.3-.1.1-.2.1-.2.2-.1.2-.3.3-.5.4-.2.1-.5.2-.7.2l-1.2.3c-.4.1-.4.2-.2.5.1.2.1.3-.2.3 0 0 0 .1.1.1.3.4.5.8.6 1.3 0 .3.4.6.7.4.2-.1.5-.1.7-.2.6-.1 1.2-.3 1.8-.4.4-.1.9-.2 1.3-.2.5 0 .9.1 1.3.5.3.2.3.2.6 0 .1-.1.2-.2.3-.1 0 .3-.1.4-.1.5zm-5.7-8.2c-.3-.3-.5-.3-.9-.1-.5.3-1 .5-1.5.7-.1.1-.3.1-.4.2-.1.1-.2.1-.1.3.1.2.2.4.5.5.2.1.3.1.5.2.3.1.7.1 1 0 .1 0 .2 0 .2-.1 0-.3.2-.5.4-.6.3-.2.3-.3 0-.5-.1-.1-.1-.2 0-.3.1-.2.2-.3.3-.3zm5.9 2.5c.1 0 .1 0 .1.1.3.1.6.1.9.2.2 0 .4 0 .6-.1.3-.2.6-.2.9.1l.1.1c.2.1.5.2.7.2-.1-.1-.2-.1-.3-.2-.1 0-.2-.1-.2-.2-.1-.3-.3-.4-.5-.5-.7-.3-1.4-.5-2.2-.6-.3-.1-.5-.1-.8.1-.2.1-.4.1-.5-.1l-.1-.1c-.2-.1-.3-.2-.5-.1.2.2.2.2.2.4.2 0 .3 0 .5.1.4 0 .8.2 1.1.4.1-.1.2 0 0 .2 0-.1 0 0 0 0zm-2.7-8.7c.1.2.3.3.3.5l.1.1c.2 0 .3 0 .4-.2.2-.2.4-.3.7-.3.6-.1 1.2-.3 1.8-.3.1 0 .2 0 .2-.1.1-.3.3-.6.4-.9.1-.1 0-.2 0-.3-.1-.1-.2-.1-.4-.1-.1 0-.2.1-.2.2 0 .2-.1.2-.3.3-.4.3-.9.4-1.3.6-.4.1-.8.2-1.3.3-.2.1-.3.1-.4.2zM50.9 9.8c-.1-.1-.3-.2-.4-.4-.2-.2-.4-.4-.6-.5-.1 0-.2-.1-.2-.2v-.3c-.1 0-.2-.1-.2-.1V8c-.2.1-.3.2-.4.3-.2.2-.2.4 0 .5 0 .2.2.2.3.3.2.1.2.3 0 .4-.1.1-.2.1-.3.2.1.1.2.1.4.2l-.3.3c.5 0 .9-.1 1.3-.1.2-.1.3-.1.4-.3zm31.7 12c-.1 0-.2-.1-.3-.1-.2 0-.5-.1-.6-.3l-.2-.2c-.4-.3-.8-.5-1.2-.8-.2-.1-.4-.1-.5-.1l1.3 1.3c.3.3.6.5.9.6.2.1.3.1.3 0 .1-.1.2-.2.3-.4zM92.8 12c.1.2.2.3.4.2.4-.1.7-.2 1-.3.1 0 .2-.1.2-.2h-.2c-.2-.1-.5-.1-.7-.2-.1 0-.3-.1-.3.1s-.2.3-.4.4zm.6-2.3c.2.3.2.6.2 1v.3c0 .2.1.2.3.1 0-.1-.1-.1-.1-.2-.1-.2 0-.3.1-.3s.1 0 .2-.1c-.2-.3-.3-.6-.3-.9v-.2s0-.1-.1-.1c0 0-.1 0-.1.1 0 0-.1.2-.2.3zm-45.8.1c.3.1.9-.1 1.1-.3.1-.1.1-.3-.1-.3-.2-.1-.3-.1-.5 0-.3.1-.5.3-.5.6zm35 12.8c.2.2 1.9.4 2.2.4-.2-.2-.4-.2-.6-.2-.5-.1-.9-.1-1.4-.1-.1-.2-.2-.1-.2-.1zm-1.1-.5v.5c.3 0 .5.1.7.1v-.3c-.2 0-.5-.1-.7-.3zm11.3-10.6c.1.1.1.2.2.3.2-.1.2-.3.3-.4H93c-.1 0-.2.1-.2.1zm-.8 0c-.1.2-.1.4-.1.8l.1-.1c0-.2.1-.4 0-.7zM49 9.2c.1.1.1.1.2.1l.1.1.1-.1s0-.1-.1-.1-.1-.1-.2-.1l-.1.1zm32 12.6c-.1-.1-.2-.1-.2-.2 0 .2.1.2.2.2zM28.5 36c-.1-.2-.3-.3-.5-.3-.1 0-.1 0-.2-.1-.2-.1-.2-.1-.1-.3v-.1l.2-.6c-.1-.1-.2-.2-.4-.3-.1 0-.2-.1-.2-.2s.1-.1.3-.2v-.7c0-.2-.2-.2-.3-.3v-1-.9c0-.2.1-.3.3-.3h.2v-.3c0-.5 0-.9.1-1.4 0-.2.1-.3.2-.5.2-.3.4-.5.5-.9v-.2c-.2-.1-.5-.2-.7-.4-.6-.3-1-.7-1.3-1.3-.2-.3-.4-.7-.6-1-.1-.1-.2-.3-.1-.4v-1.9c0-.1 0-.2.1-.4 0 0-.1 0-.1-.1-.3-.1-.6-.1-.9-.2-.2-.1-.4-.2-.5-.4-.1-.2-.3-.2-.4-.3-.3-.1-.7-.2-1-.3-.6-.2-1.3-.3-2-.4-.4-.1-.8-.1-1.2-.3l-.9-.3c-.2-.1-.3-.2-.3-.4 0-.1 0-.1-.1-.1-.3-.2-.6-.4-1-.7v.5c-.3 0-.5-.1-.8-.2-.4-.3-.8-.7-1.1-1.2-.2-.4-.5-.6-.9-.7-.4-.2-.7-.4-1-.7-.1-.1-.2-.2-.3-.2-.2-.1-.3-.3-.3-.5v-.4-1.4-.2c-.2-.1-.4-.2-.6-.2-.2 0-.3 0-.4-.3l-.1-.1c-.3-.1-.5-.3-.5-.6 0-.1-.1-.1-.1-.2-.3-.2-.5-.3-.8-.5-.4-.2-.9-.3-1.3-.4-.7-.1-1.5-.2-2.2-.3-.2 0-.3-.1-.5-.1s-.3 0-.5.1l-.2.2c-.3.2-.5.1-.6-.3-.4.2-.5.2-.6.3-.3.4-.7.6-1.1.8-.5.2-1.1.4-1.6.5h-.3v-.8c0-.3 0-.3-.2-.3-.1 0-.2-.1-.3-.1-.3-.2-.4-.3-.4-.5v-.6c-.1-.1-.2-.1-.3-.2-.2-.1-.2-.2-.2-.4V7.7c0-.1 0-.2.1-.3 0 0 0-.1-.1-.1L.7 7v-.4c-.3-.1-.5-.2-.7-.4V6c.3-.1.7-.2 1-.2.1 0 .3 0 .4.1h.1l-.1-.1c-.3-.1-.6-.2-.8-.3-.1 0-.2-.1-.2-.2 0-.2.2-.1.3-.2.2-.1.5-.2.7-.2.3-.1.6-.3.9-.4.7-.1 1.3-.1 1.9 0 .4 0 .8.1 1.2.1.9.1 1.8.1 2.7.3.4.1.8.1 1.3.2.2 0 .3.1.4.3 0 0 0 .1.1.1l.1-.1c0-.1-.1-.1-.1-.2-.2-.1-.1-.1 0-.2.1 0 .2 0 .3-.1.2 0 .4-.1.6-.1h.2V5c.2-.1.3-.1.5-.2.1 0 .2-.1.3-.1.3-.1.5 0 .8 0 .3 0 .6.1.9 0 .3-.1.7 0 1 0 .3 0 .6 0 .9-.1-.3-.1-.6-.1-.6-.5h-.2c-.2.1-.5.2-.7.3-.2.1-.5.1-.7 0-.2 0-.3-.1-.4-.3.2-.1.3-.2.4-.4.1-.2.2-.3.4-.3h.9c.4 0 .9.1 1.2.3.4.3.6.3 1 .2.3-.1.6 0 .9.1.1 0 .2.1.2.1.1-.3.5-.3.7-.5h.1c.2 0 .2.1.1.3-.1.1 0 .2 0 .3.1.1.2.2.3.2.2.1.4.1.6.2.1 0 .2.1.3.1l-.3.3c0 .1 0 .1.1.2.2 0 .3-.1.5-.1.2-.1.5-.2.7-.3h.2c.1 0 .1 0 .3.1v-.3c0-.2 0-.2-.2-.2-.2.1-.4.1-.7 0-.4-.2-.8-.3-1.2-.5h.4c.2 0 .3 0 .5-.2.1-.1.2-.1.3-.1h.4c.3 0 .3 0 .3.3.2.2.2.2.4.1V3c-.1 0-.2 0-.2-.1l-.1-.1.1-.1h.7c.2 0 .4-.1.7-.1 0-.1 0-.2-.1-.2s-.3-.1-.3-.2 0-.2-.1-.3c-.2 0-.3-.1-.5-.1-.1 0-.2-.1-.2-.2s.1-.2.2-.2c.2-.1.4-.2.6-.2.2-.1.4-.1.6 0 .2.1.4.1.7.2.2.1.4.1.5.3.2.2.5.3.7.2-.1 0-.2-.1-.3-.1-.1 0-.2-.1-.2-.2s.1-.2.2-.2h.7-.2c-.5-.1-1-.1-1.5-.2-.3 0-.6-.1-.8-.3.1-.1.2-.1.3-.1.2 0 .5 0 .7-.1.4-.1.9-.1 1.3-.2.1 0 .2 0 .3-.1.1-.1.2-.1.3-.2.2-.1.3-.2.3-.2h3.8l.1.1c.3.1.6.1.9.1.2 0 .5 0 .7.1.1 0 .2.1.2.2s-.1.1-.2.2c-.1 0-.2 0-.2.1-.2 0-.4.1-.6.1 0 .2 0 .3-.2.3-.1 0-.3.1-.4.1-.2.1-.4.1-.6.2.5.2.9.3 1.4.2h-.4c-.1 0-.2 0-.3-.1 0-.2.1-.2.2-.2.2 0 .3-.1.5-.1s.5-.1.7-.1c.2 0 .3-.1.4-.2.1-.1.2-.1.2-.2.2 0 .3 0 .5-.1h.6c.4 0 .8-.1 1.2-.1h.1c.3-.1.7-.1 1-.1h1.1c-.1-.1-.2-.1-.3-.1-.1 0-.2.1-.3 0-.1 0-.1-.1-.2-.1V.1L36 0h4.7c-.1.1-.1.2-.2.2.5 0 1 0 1.5-.1h.5c.1 0 .3 0 .3.1.1.1.2.1.3.1.3 0 .7 0 1 .1-.5.2-.9.2-1.3.3h.4c.2 0 .4 0 .5.1H45c.2 0 .4 0 .6-.1.5-.1.9 0 1.4.1 0 0 .1 0 .1.1-.7.2-1.4.4-2.1.5v.2c0 .1-.1.1-.2.2s-.3.1-.4.3c.1 0 .2.1.3.1h.4c.4-.1.8-.1 1.2 0v2.6c-.6.1-1.2.3-1.8.4 0 .2-.1.3-.1.5.2 0 .4-.1.5-.1.4 0 .7 0 1.1.1.1 0 .2.1.3.2.1.1.1.2-.1.3-.1 0-.1.1-.2.1-.5.1-.9.2-1.4.3h-.3v.3c.3 0 .6 0 .9.1.1 0 .3.1.4.1.1 0 .2.1.1.3v2.3c0 .2 0 .2-.2.3-.3.1-.6.1-.9.2-.5.1-1 0-1.5-.2 0 0-.1-.1-.1-.2v-1h-.2c-.6.1-1.2.2-1.8.2-.3 0-.6.1-.9.2-.2 0-.3.1-.5.3-.1.1-.3.2-.4.2-.3.1-.6.1-.9.2-.3.1-.5.2-.7.4-.1.1-.3.3-.3.5s-.2.3-.4.4h-.3c-.3 0-.5-.1-.8-.1-.6-.1-1-.5-1.3-.9-.1-.1-.2-.2-.1-.4v-.2c-.1 0-.1-.1-.2-.1v-.1-.5c0-.1 0-.2-.1-.3v-.1-.2H34c-.1 0-.2 0-.2-.1-.1-.3-.4-.5-.6-.7-.1-.1-.3-.2-.4-.3-.2-.1-.3-.2-.5-.1h-.5c0 .1.1.1.1.1-.1.1 0 .3 0 .4v1c0 .1 0 .2.2.3.2.2.4.2.6.3.1 0 .2 0 .3.1 0-.2 0-.2-.1.1h.4c.2 0 .3.1.4.3 0 .2-.1.3-.3.4-.2 0-.3.1-.5.1-.1 0-.3.1-.5.1.2.1.4.1.6 0 .1-.1.3-.1.4-.1.1 0 .2 0 .3.1 0 .1.1.1.2.1.3.1.6.3.7.6l-.1.1c-.1 0-.2 0-.3.1-.2 0-.3 0-.5-.1-.1-.1-.2-.1-.3 0 0 .2.1.3.3.4h.1c.2.1.4.1.4.3 0 0 0 .1.1.1l-.1.1c.2.3.1.6.1.9v1.4c-.1 0-.2 0-.3.1-.2 0-.3.1-.5-.1H32.6c-.1 0-.2-.1-.2-.3v-.4c-.1-.1-.2 0-.2.1v.7c0 .1 0 .2-.1.2-.4.1-.9.3-1.3.4h-.2c0-.1 0-.2-.1-.3l-1.2.3c-.3 0-.3.1-.3.3 0 .1-.1.2-.2.2h-.2c-.4 0-.6.2-.9.5-.1.1-.1.1-.2.1h-.2v.2c0 .2-.1.4-.3.5l-.6.3c-.1.1-.2.1-.3.2v1.2c0 .1.1.3-.1.3-.2.1-.4 0-.5-.1-.1-.1-.1-.2-.2-.2-.1.3-.1.5.2.6.2.1.5.2.8.1.2-.1.3 0 .5 0 .1 0 .1 0 .2.1.2.1.4 0 .5-.1.1-.1.3-.2.5-.3.2-.1.4-.1.6-.2.2-.1.2 0 .3.2v.1s.1 0 .1-.1c.2-.2.4-.2.7-.1.5.2.9.2 1.4.2.4 0 .8.1 1.1.4.2.1.4.3.6.4.4.2.8.3 1.2.3.4 0 .8.2 1.1.5.1.1.2.2.2.3.1.2.1.2-.1.4-.1 0-.1.1-.2.1H35.3c.1 0 .2 0 .3.1v.3s.1 0 .1-.1c.4-.3.8-.3 1.2 0 .3.2.6.2.9.3h.5c.5 0 .9.2 1.3.4.1.1.2.1.3.2.1.1.2.2.1.3-.1.2-.2.3-.3.5-.1.1-.1.2-.1.4v1.4c0 .4-.2.7-.5.9-.1.1-.2.1-.2.2-.4.3-.5.6-.5 1.1 0 .4-.2.8-.4 1.1-.1.2-.3.3-.5.3-.2.1-.4.1-.6.2-.5.1-.9.3-1.3.5-.1.1-.2.1-.2.3 0 .5-.3.9-.6 1.2l-.9.6c-.2.1-.5.1-.7.1h-.3l.2.2c.2.2.2.5-.1.6-.3.1-.5.1-.8.2-.1 0-.3 0-.4.1-.1 0-.2.1-.2.2-.1.2-.2.2-.4.2H31c-.1 0-.2.1-.1.2.1.2 0 .3-.1.5-.1.1-.3.2-.5.4s-.2.3 0 .4c.3.2.3.2 0 .5l-.9.9-.4.4c-.4-.5-.4-.5-.5-.5zM32 11.3h-.6c-.2 0-.4-.1-.6-.2-.1 0-.1-.1-.1-.2l.1-.1s.1 0 .1-.1c-.2-.1-.2-.1-.4 0l-.9.3c-.1 0-.2.1-.4.1.3-.4.7-.6 1.1-.7.3-.1.6-.1.8-.1.7 0 1.4-.1 2-.2.1 0 .2-.1.3-.1.1-.1.1-.3 0-.3s-.2-.1-.2-.1h-.3c-.2 0-.4 0-.6-.1l.6-.3c-.1 0-.2-.1-.3-.1-.4-.1-.8-.3-1.1-.7-.1-.1-.2-.2-.3-.4-.1-.2-.2-.2-.5-.1-.1 0-.2.1-.2.1-.3.1-.6.2-.9.1-.3-.1-.4-.3-.3-.5v-.1c-.3-.1-.6-.3-.9-.4-.4-.1-.7-.1-1.1 0-.2 0-.3.1-.3.3 0 .3-.1.5-.1.8 0 .1.1.2.1.3.1.1.1.3 0 .4-.1.3-.3.7-.4 1-.1.2-.2.3-.5.3l-.6-.3c-.2-.1-.3-.3-.2-.5v-.2c-.1 0-.2 0-.2-.1-.3 0-.6-.1-.9-.1-.4-.1-.8-.2-1.2-.4-.3-.2-.6-.4-.9-.5-.4-.1-.4-.3-.1-.6.3-.3.7-.5 1-.7.1-.1.2-.1.3-.1.1 0 .3 0 .4-.1.1 0 .2 0 .3-.2-.1-.1-.3 0-.4-.2h.6c.3 0 .3.2.2.4 0 .1-.1.1-.1.2.2.1.4.2.6 0 .2-.2.5-.2.8-.1h.2c0-.1-.1-.1-.1-.1-.2-.1-.4-.1-.6-.2-.1 0-.2-.1-.4-.1-.1 0-.2-.1-.2-.2s.1-.1.2-.1c.2 0 .5-.1.7-.1.1 0 .2-.1.3-.1 0-.1-.1-.3-.1-.4 0-.2-.1-.3-.3-.3h-.2c-.3 0-.3 0-.4.3-.1.2-.2.3-.5.3-.2 0-.3-.1-.3-.3 0 0 0-.1-.1-.1-.1-.2-.2-.2-.4-.1-.3.1-.5.1-.7-.2l-.3-.3c0-.1-.1-.1-.1-.2-.2-.1-.5-.1-.8 0-.1 0-.1.1-.1.2s0 .1.1.2c-.1.1-.2.1-.3.1H21c-.1 0-.3 0-.4.1v.1c.1.1.1.2-.1.3-.1 0-.3.1-.4.1-.6.1-1.1 0-1.7-.2-.3-.1-.6-.1-.9 0 0 0 0 .1.1.1.1.1 0 .3-.1.4-.1.1-.2.1-.3 0-.2-.2-.5-.2-.8-.2h-.7c-.3 0-.3-.1-.3-.3h-.3c-.3.1-.6 0-1-.1-.1-.3-.5-.3-.9-.3-.3 0-.5 0-.8-.1-.3-.1-.6 0-.9.1-.2.1-.4.1-.6.2h-.2s0-.1-.1-.2c-.2 0-.5 0-.7.2 0 .1.1.2.1.3 0 .1-.1.2-.2.1l-.1-.1c0-.2-.2-.3-.4-.3-.4-.1-.8-.2-1.2-.2-.7-.1-1.4-.2-2.1-.2-.7-.1-1.4-.1-2.1-.2-.7-.1-1.4 0-2 .2-.4.1-.8.3-1.3.4-.1 0-.1 0-.2.1.3.2.7.4 1 .5.1 0 .1 0 .2.1l.1.1s0 .1-.1.1h-.3S1.1 6 1 6c-.3 0-.6 0-.9.1.2.2.5.4.7.3.2 0 .5 0 .7-.1.2 0 .3 0 .3.1s0 .2-.1.3c0 0-.1 0-.1.1-.1.1-.2.1-.3.2-.2 0-.3 0-.5.1s-.2.3 0 .5c0 0 .1 0 .1.1.7.1 1.3.3 2 .3.1 0 .1 0 .2.1 0 .1 0 .2-.1.2-.1.2-.3.2-.4.3-.1 0-.2.1-.3.1.3 0 .5-.1.7-.2.6-.2 1.2-.5 1.6-1 .1-.1.3-.3.5-.1 0 .1-.1.2-.1.3.3.1.5 0 .6-.2.2-.2.3-.3.6-.1.1 0 .2.1.3.1l1.8.3c.8.1 1.6.3 2.3.8.1.1.3.2.4.3.1.1.2.1.2.2.1.3.2.5.5.6.1 0 .2.1.2.2l.1.1h.2c.5.1.9.3 1.2.6 0 0 .1.1.1.2 0 0-.1.1-.2.1h-.2c-.1 0-.1.1-.1.1 0 .4-.1.9-.1 1.3 0 .2.1.4.3.5.2.1.3.3.4.4l.2.2c.3.2.6.4.9.5.2.1.4.2.5.4.2.3.4.5.6.8.2.3.5.5.8.7.1.1.3.2.5.2l-.3-.3c-.3-.3-.6-.7-.9-1.1-.1-.1-.1-.2.1-.3.1 0 .2 0 .3.1.1.1.2.1.2.2.5.4.9.8 1.4 1.2.1.1.3.2.4.3.1.1.2.2.2.3 0 .2.1.3.3.4.1.1.2.1.3.2.7.3 1.5.5 2.3.6.9.1 1.7.4 2.6.6.2.1.4.1.5.3.1.2.3.3.4.4.2.1.5.1.7.2.3.1.5.1.8 0 .2-.1.4 0 .5.1.3.4.4.8-.1 1.2-.2.1-.3.3-.5.4-.2.2-.3.4-.1.6v.2c-.1 0-.1.1-.2.1.1.1.1.1.1.2.2.3.5.6.7 1 .3.5.7.9 1.3 1.2.2.1.4.2.7.3.4.1.5.3.4.7-.1.7-.1 1.4-.2 2.1 0 .5-.2 1-.6 1.3-.1.1-.1.2-.2.4 0 .2-.1.4-.1.6 0 .2 0 .3.1.5s.1.4 0 .7c-.1.2-.1.2-.4.2-.1 0-.1 0-.2.1.1.1.3.1.4.2.2.1.2.2.1.3-.1.4-.1.5-.1.6v.2c-.1.2 0 .2.1.3.1 0 .2.1.3.1.1 0 .2.1.2.1.2.2.2.2.4 0 .2-.1.3-.3.5-.5.3-.3.6-.5.9-.8l-.1-.1c-.3-.2-.4-.5 0-.6.2-.1.3-.2.4-.3.1-.1.1-.2 0-.3-.1-.2 0-.3.2-.4h.2c.1 0 .3-.1.4-.2.1-.2.3-.2.5-.2s.3 0 .5-.1c.1 0 .3 0 .4-.1.4-.2.5-.2.1-.6-.1-.1-.1-.1-.1-.3.1 0 .3 0 .4.1.3.1.6 0 .9-.1.3-.2.6-.4.8-.6.3-.3.5-.6.5-1 0-.1.1-.2.2-.3.5-.2 1-.5 1.6-.5.2 0 .3-.1.5-.1.2-.1.4-.2.5-.4.2-.3.3-.6.3-.9v-.2c0-.3.2-.5.4-.7.1-.1.3-.2.4-.3.2-.1.4-.3.4-.6 0-.1 0-.2-.1-.2-.5-.3-1-.6-1.7-.6-.5 0-1-.1-1.5-.4-.2-.1-.5-.1-.7 0-.3.2-.5.2-.9.1.2-.1.3-.2.5-.3-.3-.1-.6.1-.9.2 0-.4.4-.4.6-.6 0-.2-.1-.3-.2-.4-.3-.3-.6-.4-1.1-.4-.6 0-1.1-.2-1.6-.6-.4-.3-.9-.5-1.4-.4-.4 0-.8 0-1.1-.2-.3-.1-.5-.1-.7.1-.1.1-.2.1-.3-.1v-.2c-.2.1-.4.1-.6.2-.2.1-.4.2-.6.4-.1.1-.2.1-.3.1-.1 0-.3-.1-.4-.1-.2-.1-.3-.1-.5 0-.3.1-.6 0-.9-.1-.2-.1-.3-.3-.3-.5 0-.1 0-.2.1-.2 0-.2 0-.3-.2-.3-.1 0-.2-.1-.4-.1H24c-.3 0-.4-.2-.2-.5.1-.1.2-.3.2-.4.1-.2 0-.3-.2-.3-.3 0-.5 0-.7.1-.1 0-.1.1-.1.2-.1.2-.2.3-.4.3-.3.1-.7.1-1 0-.2-.1-.4-.2-.5-.4-.2-.4-.3-.7-.2-1.1.1-.2.1-.4.3-.5.3-.2.7-.3 1.1-.3.3 0 .6.1.8.1h.3c.1-.3.1-.3.3-.3.4 0 .8.1 1.2.1.1 0 .3.1.3.2.1.2.2.4.3.5.1.2.3.3.6.1v-.1c-.1-.1-.1-.2-.2-.3-.3-.4-.3-.8.2-1.2.2-.1.4-.2.5-.3.2-.1.3-.2.5-.3.2-.1.2-.2.1-.5 0-.1-.1-.2 0-.2.1-.1.2-.1.2 0 .1 0 .2 0 .3-.1.2-.3.5-.5.9-.5.1 0 .2 0 .3-.1v-.1c0-.3 0-.4.3-.4.1 0 .3-.1.4-.1.4-.1.8-.2 1.3-.2-.1.2-.4.2-.5.5.7-.4 1.2-.5 1.6-.7.1 0 .1 0 .2-.1-.1 0-.2.1-.2.1zm2.6-5.6h.1c.1 0 .1.1.1.2l-.1.1c-.1.2-.1.3 0 .4l.3.3c.5.5 1.2.8 1.9.8.3 0 .4-.1.5-.4.1-.3.2-.5.4-.6.4-.3.8-.4 1.2-.5.1 0 .2 0 .3-.1.1 0 .2-.1.3-.2.3-.3.6-.5 1-.5.2 0 .4-.1.6-.1.6 0 1.2-.1 1.9-.2.1 0 .1 0 .2-.1-.4-.1-.7 0-1-.1.1-.1.2-.2.3-.2.1-.1.3-.2.5-.1.1 0 .2.1.3.1.1 0 .2.1.3-.1-.2-.1-.4-.2-.7-.2-.4 0-.7-.1-.8-.5.3-.1.6-.3.9-.2.3 0 .6.1.9.2 0-.2 0-.2.2-.3h.2c-.1-.2-.4-.1-.6-.3 0-.1.1-.1.1-.1-.1-.1-.3 0-.3-.2.2-.2.4-.1.7-.1-.1 0-.1-.1-.2-.1-.2-.1-.2-.2 0-.4.1-.1.2-.1.3-.2l.2-.2c-.2-.2-.4-.2-.6-.3.3 0 .5 0 .8-.1.3 0 .5-.1.8-.2.2-.1.5-.1.7-.2-.3-.1-.6-.1-.9 0 .2 0 .1 0 0 0-.5 0-.9 0-1.4.1-.1 0-.2-.1-.3-.1-.1 0-.1-.1-.2-.1-.5 0-.9 0-1.4.1-.4 0-.8.2-1.1.2-.3.1-.6.1-1 .1.1 0 .1-.1.2-.1.6-.3 1.2-.4 1.8-.4.4-.1.9-.1 1.3-.2h-.2c-.1 0-.3 0-.4-.2 0 0-.1-.1-.2-.1h-1.2c-.5 0-.9.1-1.4.1h-.2c.1-.1.2-.1.4-.2H36.2l-.1.1h.5c.1 0 .2.1.1.2 0 .1-.1.1-.2.1H35.3c-.2 0-.4 0-.7.1-.2.1-.4.1-.6.1h-.2c-.5.1-1.1.1-1.6.1-.1 0-.2 0-.3.1-.2.3-.5.3-.8.4-.2 0-.5.1-.7.1-.1 0-.2.1-.3.1h.5c.1 0 .2 0 .2.1s0 .1-.1.2-.3.2-.5.2c-.3 0-.6.1-.9.1-.2 0-.5 0-.7.2.5.1.9 0 1.4.2-.2.3-.5.1-.8.3.3 0 .4.1.5.1.3.1.7 0 1 0 .6 0 1.1 0 1.7-.1.1 0 .3 0 .4.1.1.1.3.2.5.3.3.2.6.5.7.9h.1c.1 0 .1-.1.2-.1h.2c.2.1.2.2.1.3 0 0-.1.1-.2.1.1 0 .2 0 .3.1.3.3.3.3.2.5v.1c0 .2 0 .4-.3.5zm-3-5.1c0-.1 0-.1 0 0-.2-.1-.4-.3-.6-.2-.4.1-.7 0-1.1-.1-.1 0-.3-.1-.4-.1h-3.1c-.2 0-.4 0-.6.1-.1 0-.2.1-.2.1-.1.1-.2.2-.4.2-.7.1-1.4.2-2 .3.2.1.4.2.6.2.5.1 1 .1 1.5.2h1c-.3.2-.5.3-.8.3h-.7c-.1 0-.2 0-.3.1.1 0 .2.1.2.1.2.1.5.1.7.2.1 0 .2 0 .3.1v.1c-.2 0-.4.1-.6.1-.5 0-.9 0-1.3-.5-.1-.1-.2-.1-.3-.2-.2-.1-.4-.1-.6-.2-.5-.2-.9 0-1.3.2v.1c.3.2.6.1 1 .3 0 0-.1 0-.2.1.1.1.2.2.3.2.3 0 .6 0 .9-.1.3-.2.5-.2.7 0-.2.2-.5.2-.6.5h.3c.4 0 .9 0 1.3.1.4 0 .8.1 1.3 0 0 0 .1 0 .1-.1h-.3c-.1 0-.2 0-.2-.2.5-.1 1-.2 1.4-.4-.2-.1-.4 0-.4-.2.3-.1.5-.2.8-.2h.8c.3-.1.7-.2 1-.3.3-.1.5-.2.8-.2V.9c.3-.2.6-.3 1-.3zm-2.8 5.3h-.3c-.1 0-.2.1-.2.1-.1.2-.3.2-.5.2h-.5c-.1 0-.2 0-.3.1H27.6c.4 0 .8 0 1.1.2.3.3.5.4.8.5.4.1.7.1 1.2.2-.2-.2.1-.2.2-.4 0-.1-.2-.2-.3-.3-.2-.1-.3-.2-.5-.3-.1-.1-.1-.2.1-.3.2-.1.3 0 .4 0 .2.1.3.2.5.2.1.1.2.1.4 0 .1-.1.2-.2.4-.3-.1 0-.2-.1-.2-.1-.3-.1-.5-.1-.8-.2-.2 0-.4-.1-.5-.1-.4-.1-.4-.1-.3-.4v-.1c-.2-.1-.5-.2-.8-.2-.2 0-.3 0-.4-.3-.3.1-.6.1-.8-.1-.1-.1-.2-.1-.3-.2-.3-.2-.5-.1-.8 0-.1 0-.1.1-.2.1-.4.1-.7.1-1-.3-.1-.1-.2-.2-.3-.1-.1 0-.1 0-.2.1-.3.1-.6.1-.9 0h-.2c-.2 0-.3.1-.5.1-.1 0-.2.1-.3.2 0 .2.1.3.2.3 0 0 .1.1.2.1.2.1.5.1.7.1.8 0 1.5 0 2.3.1.5.1 1 .1 1.5.4.1.2.3.4.5.7zM13.1 4.2c.1.1.3.1.4.2.3 0 .6 0 .8-.2.2-.1.5-.2.7-.2 0 .4 0 .5.5.6h.7c.2 0 .4 0 .6.2-.4 0-.8.1-1.2.1.6.3 1.2.4 1.8.2.5-.2 1-.2 1.6-.1.2 0 .3.1.5.1.1-.1.1-.2.2-.3-.1 0-.2 0-.3-.1-.1 0-.2-.1-.3-.1-.3-.2-.4-.4-.3-.7-.2.1-.4.2-.6.2 0 0 0 .1-.1.1-.1.2-.2.2-.4.1-.4-.3-.7-.3-1-.2h-.3c-.2 0-.4-.1-.6-.2-.3-.2-.5-.3-.9-.3-.3 0-.7-.1-1-.1-.2 0-.5 0-.6.3-.1.1-.1.3-.2.4zm33.2 2.1c0-.1-.1-.2-.3-.2-.4-.1-.9-.1-1.3-.1h-.1c-.3.1-.5.2-.8.3.3.1.7.3 1 .2.4-.1.9-.2 1.3-.3.1.2.1.1.2.1zM25.9 8.5v1.2c0 .2.2.4.4.3l.1-.1c.1-.2.1-.4.2-.7v-.5-.2c-.2.1-.4.1-.7 0zm-4.1-5.7c.4.1.7.2 1.1.5h.1c.4.1.8.1 1.3.1.6 0 1.2 0 1.8-.1h.2l.1-.1h-.1c-.9.1-1.7.1-2.6.1-.2 0-.4 0-.6-.1-.4-.4-.9-.4-1.3-.4zM34.3 11c0-.2 0-.2-.2-.3-.2-.1-.4-.2-.5-.3-.1-.1-.2-.1-.3-.1-.2.1-.3.1-.5.2-.1 0-.1.1-.2.2.1.1.3.2.4.2h.5c.1 0 .2 0 .3.1.1.1.2.1.3.1 0-.1.1-.1.2-.1zM21.4 4.2c-.1-.1-.2-.1-.3-.2 0-.1 0-.2-.1-.3-.4-.1-.8.1-1.1.3.7.4 1 .5 1.5.2zm-2.7 1c.3.2.7.2 1.1.2-.3-.2-.5-.3-.9-.3 0 0-.2 0-.2.1zm7.6 14.4c.2 0 .3.1.5.1-.2-.2-.2-.2-.5-.1zm-.6.1c0-.1 0-.1 0 0 0-.1-.1-.1-.2-.1.1 0 .2 0 .2.1zm2.5-14.1s0 .1 0 0l.1.1h.1c-.1-.1-.2-.1-.2-.1z"/><path class="hst0" d="M36.2 0l-.1.1c0 .1-.1.1 0 .2 0 .1.1.1.2.1h.3c.1 0 .2 0 .3.1h-1.1c-.3 0-.7 0-1 .1h-.1c-.4-.1-.8 0-1.2.1h-.6c-.2 0-.3 0-.5.1-.1 0-.2.1-.2.2-.1.2-.3.2-.4.2-.2 0-.5.1-.7.1-.2 0-.3.1-.5.1-.1 0-.2 0-.2.2 0 .1.2.1.3.1h.4c-.5.1-.9.1-1.4-.2.2-.1.4-.1.6-.2.1 0 .3-.1.4-.1.2-.1.2-.1.2-.3.2 0 .4-.1.6-.1.1 0 .2 0 .2-.1.1 0 .2-.1.2-.2s-.1-.2-.2-.2c-.2-.1-.4-.1-.7-.1-.3 0-.6 0-.9-.1C30 .1 30 0 30 0h6.2z"/><path d="M64.9 24.3l.3-.3c.1-.1.2-.1.3-.1.1 0 .2.1.2.2.1.2.1.4 0 .6-.3.5-.5 1.1-.7 1.7-.1.2-.1.3-.1.5v.2c-.2.6-.5 1.2-.7 1.8-.1.3-.5.5-.8.4-.3-.1-.5-.4-.5-.7v-.5V26c0-.1 0-.2.1-.3.1-.1.1-.2.1-.4 0-.3.2-.6.5-.7.1-.1.3-.1.4-.1.2-.1.4-.2.5-.3.1-.2.3-.2.4 0-.1 0-.1 0 0 .1zm-.7 2.2c.4 0 .6-.1.7-.5l.6-1.5c.1-.2 0-.4 0-.5-.1-.1-.2-.2-.3 0-.2.3-.4.4-.7.5-.1 0-.3.1-.4.2-.2.1-.3.3-.3.5s0 .3-.1.4c-.2.2-.2.3-.1.5.2.3.4.4.6.4z"/><path class="hst0" d="M72.4 16.7c-.2 0-.3.1-.5.1-.3 0-.3 0-.2-.3-.1 0-.2-.1-.2-.1-.2-.1-.4-.2-.7-.3-.3-.1-.7-.2-1-.2-.7 0-1.3 0-1.9-.2-.4-.1-.8-.2-1.2-.2-.3 0-.5-.1-.7-.3-.2-.2-.4-.3-.7-.2-.2 0-.3.2-.1.3l.6.6.3.3c.1.1.3.2.5.1s.5-.1.7-.2c.3-.1.3-.1.5.1l.6.3c.1.1.2.1.3.2-.2.2-.4.4-.6.5-.4.3-.8.4-1.2.6-.6.2-1.2.3-1.8.5-.3.1-.6.2-.8.2H64c-.1 0-.2-.1-.2-.2-.1-.5-.3-.8-.7-1.1-.2-.1-.3-.3-.4-.5-.1-.2-.2-.3-.4-.5s-.5-.5-.7-.8c-.1-.2-.3-.2-.5-.2H60.5v.2c0 .1.1.1.1.2.3.3.6.6.9 1 .2.2.2.4.3.6 0 .2.1.3.2.4.4.3.8.6 1.1.9.1.1.3.2.4.4.2.2.4.3.7.3.4 0 .7-.1 1.1-.1.2 0 .4 0 .6-.1 0 .1-.1.1-.1.2-.5.8-1.1 1.4-1.9 1.9.1-.1.1-.1 0-.1-.4.2-.8.4-1.2.7-.5.4-.6.9-.3 1.5.1.2.2.4.2.6.1.3 0 .6-.3.7-.2.1-.3.2-.5.3-.2.1-.4.2-.7.3-.3.1-.3.4-.2.6.1.3.1.4-.2.6-.4.1-.6.4-.7.7-.1.3-.3.5-.6.7-.3.2-.7.4-1.1.5-.7.2-1.4.2-2 .2H56c-.1 0-.2-.1-.2-.3 0-.2-.1-.4-.2-.5-.3-.3-.6-.7-.8-1.1-.1-.2-.2-.5-.3-.8-.1-.2-.1-.4-.3-.6-.3-.3-.3-.6-.1-1 .1-.1.1-.2.2-.3.2-.3.2-.6.1-.9-.1-.1-.1-.2-.2-.3-.3-.3-.5-.7-.8-.9-.1-.1-.1-.2-.1-.3v-.8c0-.3-.1-.4-.4-.4h-.4c-.2 0-.3 0-.5-.1-.2-.2-.6-.1-1-.1-.5.1-.9.1-1.4.2-.4 0-.7 0-1.1.1-.5.1-.9-.1-1.4-.2-.3-.1-.5-.3-.6-.5-.2-.3-.4-.5-.7-.7-.1-.1-.3-.2-.4-.4-.2-.2-.2-.2-.1-.4s.2-.5.1-.7c-.1-.5.1-.9.4-1.2.3-.3.6-.5.9-.7.2-.1.3-.2.5-.3.2-.1.3-.3.3-.6 0-.1.1-.2.2-.3.6-.4 1.3-.6 2-.6s1.4-.2 2.1-.2c.4 0 .8-.1 1.2-.1.1 0 .3 0 .4.1.2 0 .2.1.2.3v.1c0 .2 0 .3.2.4.1 0 .1 0 .2.1.5.2 1 .3 1.5.4.1 0 .3.1.4.1.2 0 .5 0 .6-.2.2-.2.5-.3.8-.2.4.1.9.2 1.3.2.5.1 1 .1 1.5.1.3 0 .6-.1.7-.4.1-.2.2-.5.3-.7.1-.2 0-.3-.2-.3h-2c-.1 0-.2-.1-.3-.1-.1-.1-.2-.2-.2-.3 0-.2.1-.2.3-.3.6-.2 1.3-.4 1.9-.4.3 0 .5 0 .8.1.3.1.7.1 1 .1.1 0 .2 0 .3-.1.2-.1.2-.3 0-.4l-.6-.3c-.1 0-.2-.1-.2-.1-.1-.1-.1-.1-.1-.3.1-.2.1-.3-.2-.3h-.1c-.4 0-.5.1-.6.4-.2 0-.4 0-.5-.1-.1 0-.1-.1-.2-.1-.2-.2-.4-.2-.7 0-.2.1-.3.3-.5.4-.2.1-.2.3-.2.5s-.1.2-.3.3H58c-.2 0-.3 0-.5.1-.3.1-.3.2-.1.4 0 0 .1 0 .1.1-.2.2-.4.3-.6.2 0-.2-.1-.3-.2-.4-.2-.1-.3-.3-.5-.5l-.4-.4c-.5-.3-1-.5-1.4-.7-.1 0-.1-.1-.2 0-.1 0-.2.1-.2.1s0 .1.1.2c.3.4.6.6 1.1.7.1.1.3.1.5.2-.3 0-.3.2-.4.4l-.3-.3c-.1-.1-.3-.2-.5-.2-.4-.1-.8-.3-1.2-.6-.2-.2-.4-.2-.7-.1-.3 0-.6.1-.8.1-.2 0-.4.1-.6.2-.5.3-.9.6-1.4 1-.2.2-.5.2-.8.3-.4 0-.8 0-1.2-.1-.1 0-.1 0-.2-.1-.2-.1-.3-.2-.2-.5 0-.2 0-.4.1-.5 0-.2.1-.2.2-.3h1.7c.3 0 .4-.2.4-.5 0-.2-.1-.3-.3-.4-.1-.1-.2-.1-.2-.1-.1 0-.2-.1-.3-.1.1 0 .1 0 .2-.1.4-.1.8-.2 1.2-.4.2-.1.4-.1.6-.2.2-.1.4-.2.5-.3.3-.2.6-.3.9-.3.1 0 .2 0 .3-.1.2-.1.3-.2.2-.4v-.1c0-.2.1-.3.3-.2v.1c0 .2 0 .3.2.3.5.1.9.2 1.4.1.3-.1.6-.1.9-.1.2 0 .4-.1.6-.1.3 0 .4-.1.4-.4 0-.2.1-.3.4-.2.1 0 .2 0 .3.1.2 0 .2 0 .2-.2-.1-.4-.1-.4.4-.4h.5c.2 0 .5-.1.7-.2-.3-.1-.5-.2-.8-.2-.3 0-.6.1-1 .1h-.3c-.2 0-.3-.2-.4-.4 0-.2.1-.3.2-.4.2-.2.5-.3.7-.5.1-.1.2-.1.2-.2s-.1-.2-.3-.2c-.2 0-.5 0-.7.2-.1.1-.3.2-.4.3-.2.1-.4.2-.6.4.3.4.3.4.2.4-.2.2-.2.4 0 .6l.2.2-.2.2-.4.4c-.2.3-.6.4-.9.4-.1 0-.2-.1-.3-.2-.1-.2-.2-.3-.3-.5-.1-.1-.3-.2-.4-.2-.1 0-.3.1-.4.1-.2 0-.3.1-.5.1s-.3-.1-.3-.2 0-.1-.1-.2c-.1-.4-.1-.4.3-.6.3-.1.6-.3.9-.2h.1c.3 0 .3-.2.2-.4 0 0 0-.1-.1-.1.2-.1.3-.2.5-.3l.6-.3c.3-.1.5-.2.7-.4.2-.2.4-.3.6-.3.2 0 .4-.1.5-.1.3-.1.7-.2 1-.2.2-.1.5-.1.7-.1.3 0 .7.1 1 .1v.1c0 .1 0 .2.2.2.3-.1.4-.1.4-.1h.7c.5.1 1 .2 1.5.4.2.1.5.2.7.3-.1.2-.2.2-.3.2-.3.1-.7.1-1 0-.2 0-.4-.1-.6-.1-.1 0-.3-.1-.4 0 .2.2.3.5.6.6.2.2.5.2.8.1v-.2h.4c.2 0 .4 0 .5-.2.1 0 .3-.1.5-.1h.4c.2 0 .2-.1.2-.3 0-.1-.1-.2-.1-.3.2-.1.3-.1.6.1 0 .1-.1.1-.1.2.2.2.4.1.5.1l.9-.3c.3-.1.7-.1 1-.2h.2c.2.1.4.1.6 0 .2-.1.4-.1.5-.2h.3c.1.1.3.1.4 0 .5-.3 1-.3 1.5-.1.2 0 .4.1.6.2h.3l.1-.1s0-.1-.1-.1l-.3-.3c-.1 0-.1-.1-.1-.1s0-.1.1-.1c.2-.2.5-.4.7-.5.2-.1.4-.1.6 0 .1 0 .1.1.1.2-.1.2 0 .3 0 .4.2.3.1.7-.1 1-.1.2-.3.2-.4.1h-.6c.2.3.8.4 1.1.2.2-.1.5-.3.6-.5.1-.1.3-.2.4-.2.1 0 .3.1.3.2.1.2.3.3.6.3.1-.3-.2-.6-.5-.7h-.5c-.2 0-.3-.1-.3-.3v-.1c-.1-.1 0-.2.1-.3.2-.1.2-.1.4 0 .2.2.5.3.8.3-.1-.2-.2-.2-.2-.3.4-.2 1.1 0 1.4.2.1.1.1.1.2.1h.2s.1-.1 0-.2c-.1-.2-.2-.3-.3-.3-.1 0-.2-.1-.3-.1-.1 0-.1 0-.2-.1.1-.2.2-.1.4-.1H76.8c0-.1-.1-.2-.1-.3.1-.1.3-.1.4-.1.7-.1 1.4-.1 2.1-.2h.9c.4 0 .7-.1 1.1-.1.1 0 .2-.1.2-.2.1-.3.6-.5.9-.4l.1.1c.1.1.2.2.3.2H84.5c.1 0 .2.1.3.2l-.1.1c-.1.2-.1.2 0 .4.2.2.4.3.6.2.3-.1.7-.1 1 0 .6.2 1.1.1 1.7 0 .4-.1.8-.1 1.1 0 .1 0 .2 0 .3.1l-.2.2c0 .2.1.3.2.3l.6.3c.1.1.3.1.4 0 .3-.2.7-.2 1-.2h1.2c.1 0 .2-.1.2-.1.1-.2.3-.2.5-.2h.4c.2 0 .5 0 .7.1.3.1.6.1 1 0h.3c.4.3.9.4 1.4.4h1.1c.2 0 .5 0 .6.3.2.1.4.1.5.1.4 0 .8 0 1.2.1.4 0 .8.1 1.1.1.2 0 .3 0 .4-.2 0-.1.1-.1.2-.1h.5c.9.1 1.8.1 2.7.3.4.1.8.2 1 .5.1.1.1.1.2.1.3-.1.5-.1.8 0 .1 0 .2.1.4.1-.1 0-.2.1-.2.1-.2.1-.5.2-.6.4-.1.1-.2.1-.3 0-.4-.2-.9-.3-1.4-.4h-.3c-.1 0-.2 0-.2.1-.1.2-.3.2-.5.2h-.7c.1.2.2.3.4.3.1.1.2.1.3.3V7h-.5c-.5 0-1 .2-1.5.4-.3.1-.6.2-.9.1-.6-.1-1.3 0-1.9.3-.3.1-.3.3-.1.5.1.2.1.3 0 .5-.1.1-.2.1-.3.2-.2.1-.3.2-.5.4-.2.3-.5.4-.8.5-.1 0-.2 0-.2-.1-.1-.2-.2-.4-.2-.6 0-.3.1-.5.3-.7.1 0 .1-.1.2-.1l1.8-.9c.2-.1.3-.2.2-.5-.4.2-.7.4-1.2.5v-.1c0-.2-.1-.2-.2-.2-.3 0-.6.1-.9.2-.2.1-.4.2-.6.4-.2.1-.4.2-.6.1-.5-.1-1-.1-1.5 0h-.5c-.4-.1-.9 0-1.3.2-.3.1-.6.3-.9.4-.3.1-.5.3-.8.4-.2.1-.2.2 0 .4.2.1.4.2.7.2h.5c.2 0 .3.1.3.3 0 .4-.2.8-.5 1.1-.4.5-.9.8-1.5 1.1-.1.1-.3.1-.4 0-.2 0-.4 0-.6.1-.3.2-.6.4-.8.6-.2.1-.2.2-.1.5l.3.3c.1.2.1.2-.1.3-.1 0-.2.1-.3.1-.1 0-.2 0-.2-.2s-.1-.3-.2-.4c-.1-.1-.2-.3-.4-.4-.1-.1-.1-.1-.2-.1-.2 0-.4 0-.6.1h-.1v-.1c.1-.2 0-.2-.1-.3h-.2c-.2.1-.5.2-.7.3-.1 0-.1.1-.1.2s.1.2.2.2c.2 0 .4.1.5.1h.4c-.1 0-.1.1-.2.1s-.1.1-.2.1c-.3.2-.4.3-.1.6l.2.2.1.1v.6c0 .2-.1.3-.2.4-.2.2-.3.3-.5.4-.2.1-.4.3-.7.4-.3.2-.6.2-.8.2-.3 0-.6.1-.9.2-.3.1-.6.1-.9.1-.2 0-.3 0-.4.1-.2.2-.2.4 0 .6.1.1.2.2.4.3l.3.3c.2.3.2.5-.1.8-.2.2-.4.3-.7.4-.1 0-.2 0-.4-.1-.2-.2-.4-.4-.6-.5-.2-.1-.5-.2-.8-.1-.4.1-.5.6-.2.8.2.2.3.3.5.4.3.2.5.4.6.7v.2h-.3c-.1-.1-.3-.1-.4-.2-.2-.2-.4-.4-.6-.7-.2-.3-.3-.6-.3-.9 0-.1 0-.3-.1-.4-.1-.2-.1-.4-.2-.6-.1-.2-.1-.2-.3-.2-.1 0-.2.1-.4.1-.2.1-.3 0-.3-.2s0-.3-.2-.4c-.2-.2-.5-.4-.7-.6h-.2c-.3 0-.5.1-.8.1-.3 0-.5.1-.7.3-.1.1-.3.2-.5.3-.3.2-.6.3-1 .5-.3.1-.4.3-.4.6 0 .4-.1.7-.4.9-.1.1-.3.1-.4 0-.4-.4-.8-.9-1-1.4-.2-.3-.3-.6-.3-.9.3 0 .3-.1.3-.2zm-5.5-4.3c-.1-.1-.1-.1-.2-.1-.2 0-.3 0-.4-.2l-.1-.1-.2-.2c-.1-.1-.1-.2 0-.2.1-.1.2-.1.3-.1.1 0 .1-.1.1-.2s-.1-.2-.2-.2c-.4 0-.7 0-1.1.2-.2.1-.3.3-.2.5.1.2.2.4.4.6.2.1.2.2.1.4 0 0 0 .1-.1.1-.1.2-.1.3.1.4.3.2.6.2.9.1.3-.1.4-.3.2-.6 0-.1-.1-.1-.1-.2.3 0 .4-.1.5-.2zM92.1 28.5c0-.1.1-.2 0-.3-.1-.1-.2 0-.3.1-.3.2-.3.2-.6 0-.4-.3-.8-.4-1.3-.5-.5 0-.9.1-1.3.2-.6.1-1.2.3-1.8.4-.2.1-.5.1-.7.2-.3.1-.7-.1-.7-.4-.1-.5-.3-.9-.6-1.3 0 0 0-.1-.1-.1.3 0 .3-.1.2-.3-.2-.3-.2-.4.2-.5l1.2-.3c.2-.1.5-.2.7-.2.2-.1.3-.2.5-.4.1-.1.2-.1.2-.2.2-.1.3-.2.5-.3.3-.2.5-.2.8-.1.1 0 .1.1.2.1.3.1.5 0 .6-.3.2-.3.5-.5.8-.5.4-.1.7.1 1.1.2l-.2.2c-.2.2-.2.4.1.6.3.2.6.3.9.4.2.1.4 0 .5-.2.1-.2.2-.5.3-.7 0-.1.1-.2.1-.3.1-.1.2-.1.3 0 .2.2.4.5.5.7.1.1.1.2.2.3 0 .3.2.5.5.7.3.2.6.4.9.7.1.1.4.2.5.3.3.1.3.1.2.4-.1.7-.2 1.3-.7 1.8.2-.3.2-.2.2-.1 0 .2-.1.3-.3.4-.3.1-.6.2-.8.3h-.2c-.2-.1-.4-.1-.7-.1h-.3c-.4.1-.7-.1-1-.4-.1-.2-.3-.4-.6-.5zM86.4 20.3c-.1.1-.1.1-.2.1-.1.1-.2.2 0 .3.3.3.3.3 0 .5-.2.2-.4.3-.4.6 0 .1-.1.1-.2.1-.3.1-.7 0-1 0-.2 0-.3-.1-.5-.2s-.4-.3-.5-.5c-.1-.1-.1-.2.1-.3.1-.1.3-.1.4-.2.5-.2 1-.4 1.5-.7.2-.1.5 0 .8.3zM92.3 22.8s0-.1 0 0c.2-.3.2-.3 0-.4-.4-.2-.7-.4-1.1-.4-.2 0-.3 0-.5-.1 0-.2 0-.2-.2-.4.2-.1.4 0 .5.1l.1.1c.1.2.3.2.5.1.3-.2.5-.1.8-.1.7.1 1.5.4 2.2.6.2.1.5.2.5.5 0 .1.1.1.2.2s.2.1.3.2c-.2 0-.5 0-.7-.2 0 0-.1 0-.1-.1-.3-.3-.6-.3-.9-.1-.2.1-.4.1-.6.1-.3-.1-.6-.1-.9-.2 0 .2-.1.1-.1.1z"/><path class="hst0" d="M89.6 14.1c.1-.1.3-.1.4-.1.4-.1.8-.2 1.3-.3.5-.1.9-.3 1.3-.6l.3-.3c0-.1.1-.2.2-.2s.3 0 .4.1c.1.1.1.2 0 .3-.1.3-.3.6-.4.9 0 .1-.1.1-.2.1-.6 0-1.2.2-1.8.3-.3 0-.5.1-.7.3-.1.1-.2.2-.4.2l-.1-.1c0-.3-.2-.4-.3-.6zM50.9 9.8c-.1.1-.2.2-.4.2-.4 0-.9.1-1.3.1l.3-.3c-.1-.1-.2-.1-.4-.2.1-.1.2-.1.3-.2.2-.2.2-.3 0-.4-.1 0-.3 0-.4-.1-.2-.2-.2-.4 0-.5.1-.1.3-.2.4-.3v.3c0 .1.1.1.2.1v.3c0 .1.1.1.2.2.2.1.4.3.6.5.2.1.4.2.5.3zM82.6 21.8c-.1.2-.2.3-.3.4-.1.1-.2.1-.3 0-.3-.2-.7-.4-.9-.6l-1.3-1.3c.1 0 .4 0 .5.1.4.2.8.5 1.2.8.1.1.2.1.2.2.2.2.4.3.6.3 0 .1.1.1.3.1zM83.8-33c.2-.1.4-.2.5-.4.1-.1.2-.1.3-.1.2.1.5.1.7.2h.2c0 .1-.1.2-.2.2-.3.1-.7.2-1 .3-.3.1-.4 0-.5-.2zM87 21.2c-.1.3-.1.3.1.3h.4c-.1.1-.3 0-.4.2l.2.2.2.2v.2c-.1.1-.1 0-.2-.1s-.1-.2-.2-.3l-.1-.1c-.3.1-.2.4-.2.6-.3-.2-.3-.4-.3-.7.1-.2.2-.5.5-.5zM84.4-35.3c.1-.2.2-.3.2-.5l.1-.1.1.1v.2c0 .3.1.6.3.9-.1 0-.2 0-.2.1-.2.1-.2.2-.1.3 0 .1.1.1.1.2-.2.1-.3 0-.3-.1v-.3c0-.2 0-.5-.2-.8zM47.6 9.8c.1-.3.2-.5.5-.7.2-.1.3-.1.5 0s.2.2.1.3c-.3.3-.8.5-1.1.4zM82.6 22.6h.2c.5 0 .9.1 1.4.1.2 0 .5.1.6.2-.3.1-2-.2-2.2-.3zM81.5 22.1c.3.2.5.3.8.3v.3c-.3 0-.5-.1-.7-.1-.1-.1-.1-.3-.1-.5zM83.8-33.5l.2-.2h.3c-.1.1-.1.3-.3.4-.1 0-.2-.1-.2-.2zM83-33.5c.1.3 0 .5 0 .7l-.1.1c0-.3 0-.6.1-.8z"/><path class="hst0" d="M49 9.2l.1-.1c.1 0 .2.1.2.1l.1.1-.1.1s-.1 0-.1-.1c-.1 0-.1 0-.2-.1zM75.1 4.2c.3 0 .5.1.6.4-.1-.1-.5-.3-.6-.4zM87 21.2h.4-.4zM81 21.8c-.1 0-.2 0-.2-.2.1.1.1.2.2.2zM32 11.3c-.4.2-.8.3-1.3.5.1-.2.4-.2.5-.5-.4 0-.9.1-1.3.2-.1 0-.3.1-.4.1-.3.1-.3.2-.3.4v.1c-.1 0-.2.1-.3.1-.4 0-.7.2-.9.5-.2.3-.3.3-.4.3-.1 0-.2-.1-.2 0-.1.1 0 .2 0 .2.1.2.1.3-.1.5-.1.1-.3.2-.5.3-.2.1-.4.2-.5.3-.5.4-.5.8-.2 1.2.1.1.1.2.2.3v.1c-.3.1-.4.1-.6-.2-.1-.2-.2-.4-.3-.5-.1-.1-.2-.2-.3-.2-.4 0-.8-.1-1.2-.1-.2 0-.3.1-.3.3h-.3c-.3 0-.6-.1-.8-.1-.4 0-.8.1-1.1.3-.2.1-.3.3-.3.5-.1.4-.1.8.2 1.1.1.2.3.3.5.4.3.1.7.1 1 0 .2 0 .3-.1.4-.3 0-.1.1-.1.1-.2.2-.1.5-.2.7-.1.2 0 .2.1.2.3-.1.1-.1.3-.2.4-.1.3-.1.4.2.5h.6c.1 0 .3 0 .4.1.2.1.2.1.2.3 0 .1 0 .2-.1.2 0 .2.1.4.3.5.3.1.6.2.9.1h.5c.1 0 .3.1.4.1.1 0 .3 0 .3-.1.1-.2.4-.3.6-.4.2-.1.4-.1.6-.2v.2c.1.1.2.2.3.1.2-.3.5-.2.7-.1.4.2.7.2 1.1.2.5 0 1 .1 1.4.4.5.4 1 .5 1.6.6.4 0 .8.2 1.1.4.1.1.2.2.2.4-.2.2-.5.2-.6.6.3-.1.5-.3.9-.2-.1.1-.3.2-.5.3.3.1.6.1.9-.1.2-.2.5-.2.7 0 .5.3 1 .4 1.5.4.6 0 1.1.3 1.7.6.1.1.1.1.1.2-.1.2-.2.4-.4.6-.1.1-.3.2-.4.3-.2.2-.3.4-.4.7v.2c0 .4-.1.7-.3.9-.1.2-.3.3-.5.4-.2.1-.3.1-.5.1-.6.1-1.1.3-1.6.5-.1.1-.2.2-.2.3 0 .4-.2.7-.5 1-.3.2-.5.4-.8.6-.3.2-.6.2-.9.1-.1 0-.2 0-.4-.1 0 .1 0 .2.1.3.3.3.3.4-.1.6-.1 0-.3.1-.4.1-.2 0-.3 0-.5.1-.2 0-.4.1-.5.2-.1.1-.2.2-.4.2h-.2c-.2.1-.3.2-.2.4v.3c-.1.2-.3.3-.4.3-.4.2-.4.5 0 .6l.1.1c-.3.3-.6.6-.9.8l-.5.5c-.2.2-.2.1-.4 0-.1-.1-.2-.1-.2-.1-.1 0-.2-.1-.3-.1-.2-.1-.2-.1-.1-.3V32c0-.1.1-.2.1-.3.1-.2.1-.2-.1-.3-.1-.1-.3-.1-.4-.2 0-.1.1-.1.2-.1.2.1.3.1.4-.2.1-.2.1-.4 0-.7-.1-.1-.1-.3-.1-.5s0-.4.1-.6c0-.1.1-.3.2-.4.4-.4.5-.8.6-1.3.1-.7.1-1.4.2-2.1 0-.4-.1-.5-.4-.7-.2-.1-.4-.2-.7-.3-.5-.3-.9-.7-1.3-1.2-.2-.3-.4-.7-.7-1 0-.1-.1-.1-.1-.2.1-.1.1-.1.2-.1.1-.1.1-.1 0-.2-.1-.3-.1-.4.1-.6.1-.1.3-.3.5-.4.5-.4.4-.9.1-1.2-.1-.2-.3-.2-.5-.1-.3.1-.5.1-.8 0-.2-.1-.5-.1-.7-.2-.2-.1-.3-.2-.4-.4-.1-.2-.3-.3-.5-.3-.8-.3-1.7-.5-2.6-.6-.8-.1-1.5-.3-2.3-.6-.1 0-.2-.1-.3-.2-.2-.1-.3-.2-.3-.4 0-.1-.1-.2-.2-.3-.1-.1-.3-.2-.4-.3-.5-.4-.9-.8-1.4-1.2l-.2-.2c-.1 0-.2-.1-.3-.1-.2 0-.2.1-.1.3.3.4.6.7.9 1.1l.3.3c-.2 0-.4-.1-.5-.2-.3-.2-.5-.5-.8-.7-.2-.2-.4-.5-.6-.8-.1-.2-.3-.3-.5-.4-.3-.1-.6-.3-.9-.5l-.2-.2-.4-.4c-.2-.1-.3-.3-.3-.5-.1-.5 0-.9.1-1.3 0-.1.1-.1.1-.1h.2c.1 0 .1-.1.2-.1 0 0 0-.1-.1-.2-.3-.3-.7-.5-1.2-.6h-.2l-.1-.1c0-.1-.1-.2-.2-.2-.3-.1-.4-.3-.5-.6 0-.1-.1-.2-.2-.2-.2-.1-.3-.2-.4-.3-.9-.7-1.7-.9-2.5-1l-1.8-.3c-.1 0-.2 0-.3-.1-.3-.1-.4-.1-.6.2-.2.1-.4.2-.6.1 0-.1.1-.2.1-.3-.2-.1-.4 0-.5.1-.4.5-1 .8-1.6 1-.3.1-.5.2-.7.2.1-.1.2-.1.4-.2 0 0 .2 0 .3-.1.1-.1.1-.1.1-.2C3 8 3 8 2.9 8c-.7 0-1.3-.2-1.9-.4 0 0-.1 0-.1-.1-.2-.1-.2-.4 0-.5h.4c.1 0 .3-.1.4-.1 0 0 .1 0 .1-.1.1-.1.2-.2.1-.3 0-.1-.1-.1-.3-.1-.2 0-.5.1-.7.1-.3 0-.5-.1-.7-.3C.4 6 .7 6 1 6c.1 0 .2.1.4.1h.3l.1-.1-.1-.1c-.1 0-.1 0-.2-.1-.4-.1-.7-.2-1-.5.1 0 .1 0 .2-.1.4-.1.8-.3 1.2-.4.7-.2 1.3-.4 2-.2.7.1 1.4.1 2.1.2.7 0 1.4.1 2.1.2.4 0 .8.1 1.2.2.2 0 .4.1.4.3l.1.1c.1.1.2 0 .2-.1s-.1-.2-.1-.3c.2-.2.5-.2.8-.2 0 .1 0 .2.1.2h.2c.2 0 .4-.1.6-.2.3-.1.6-.1.9-.1.2.1.5.1.7.1.4 0 .8 0 1.2.1.3.1.6.1 1 .1h.3c0 .3 0 .3.3.3h.7c.3 0 .6.1.8.2.1.1.2.1.3 0 .1-.1.1-.3.1-.4l-.1-.1c.3-.1.6-.1.9 0 .5.3 1.1.3 1.7.2.1 0 .3 0 .4-.1.2-.1.2-.1.1-.3v-.1c-.2.1 0 0 .1.1h.3c.1 0 .2 0 .3-.1 0-.1 0-.1-.1-.2s0-.2.1-.2c.3-.1.5-.1.8 0 .1 0 .1.1.1.2s.2.2.3.3c.2.2.4.3.7.1.2-.1.3-.1.4.1 0 0 0 .1.1.1.1.2.1.3.3.3.2 0 .4-.1.5-.3.1-.3.1-.3.4-.3h.2c.2 0 .3.1.3.3 0 .1.1.2.1.4-.1 0-.2.1-.3.1-.2 0-.5.1-.7.1-.1 0-.2 0-.2.1s0 .2.2.2c.1 0 .2.1.4.1.2.1.4.1.6.2.1 0 .1.1.1.1h-.2c-.3-.1-.5-.1-.8.1-.2.1-.4.1-.6 0 0-.1.1-.1.1-.2.1-.2 0-.4-.2-.4h-.6c.1.2.3.2.4.2 0 .1-.2.1-.3.2-.1 0-.3 0-.4.1-.1 0-.2 0-.3.1-.3.2-.7.5-1 .7-.3.3-.3.5.1.6.3.1.6.3.9.5.4.2.8.3 1.2.4.3.1.6.1.9.1.1 0 .2 0 .2.1v.2c-.1.2 0 .4.2.5.2.1.4.3.6.3.3.1.4 0 .5-.3.1-.3.3-.7.4-1 .1-.2.1-.3 0-.4-.1-.1-.1-.2-.1-.3 0-.3 0-.5.1-.8 0-.2.2-.2.3-.3.4-.1.8-.1 1.1 0 .3.1.6.3.9.4v.1c-.1.3 0 .5.3.5.3.1.6 0 .9-.1.1 0 .2-.1.2-.1.2-.1.3-.1.5.1.1.1.2.2.3.4.3.4.7.6 1.1.7.1 0 .2 0 .3.1l-.6.3c.2.1.4.1.6.1h.3c.1 0 .2 0 .2.1.1.1.2.3 0 .3-.1.1-.2.1-.3.1-.7.1-1.4.2-2 .2-.3 0-.6.1-.8.1-.4.1-.8.3-1.1.7.2-.1.3-.1.4-.1l.9-.3h.4c-.1 0-.1 0-.1.1-.1 0-.1.1-.1.1 0 .1.1.1.1.2.2.1.4.2.6.2.2.1.4.1.6.1zM34.6 5.7c.2-.1.3-.2.3-.4v-.1c.1-.2 0-.3-.2-.4-.1 0-.2 0-.3-.1.1-.1.1-.1.2-.1.2-.1.1-.3-.1-.3h-.2c-.1 0-.2.1-.2.1H34c-.1-.4-.4-.6-.7-.9-.1-.1-.3-.2-.5-.3-.1-.2-.2-.2-.4-.2-.6 0-1.1 0-1.7.1-.3 0-.7.1-1 0-.1 0-.2-.1-.3-.2.3-.1.6 0 .8-.3-.4-.2-.9-.1-1.4-.2.2-.2.5-.1.7-.2.3 0 .6-.1.9-.1.2 0 .4-.1.5-.2 0 0 .1-.1.1-.2s-.1-.1-.2-.1h-.5c.1-.1.2-.1.3-.1.2 0 .5-.1.7-.1.3 0 .6-.1.8-.4.1-.1.2-.1.3-.1.5 0 1.1-.1 1.6-.1h.2c.2 0 .4 0 .6-.1.2-.1.4-.1.7-.1H36.7c.1 0 .2 0 .2-.1s0-.2-.1-.2h-.5l.1-.1H40.3c-.1.1-.3.1-.4.2h.2c.5 0 .9-.1 1.4-.1h1.2c.1 0 .2 0 .2.1.1.2.2.2.4.2h.2c-.4.1-.9.1-1.3.2-.6.1-1.2.2-1.8.4 0 0-.1 0-.2.1.4.1.7 0 1-.1.2-.1.6-.2 1-.2.5 0 .9 0 1.4-.1.1 0 .1.1.2.1s.2.1.3.1c.5 0 .9 0 1.4-.1.1 0 .2 0 .3-.1.3-.1.6-.1.9 0-.2.1-.5.1-.7.2-.3.1-.5.1-.8.2-.3 0-.5 0-.8.1.2.1.5.1.6.3l-.2.2c-.1.1-.2.1-.3.2-.1.1-.1.3 0 .4.1 0 .1.1.2.1-.2.1-.5 0-.7.1 0 .2.2.1.3.2l-.1.1c.1.2.4.1.6.3h-.2c-.2 0-.2 0-.2.3-.3-.1-.6-.1-.9-.2-.3 0-.6.1-.9.2.1.4.4.5.8.5.3 0 .5.1.7.2-.1.1-.2.1-.3.1-.1 0-.2-.1-.3-.1-.2-.1-.3 0-.5.1-.1.1-.2.1-.3.2.3.1.7.1 1 .1-.1 0-.2.1-.2.1-.6.2-1.2.2-1.9.2-.2 0-.4 0-.6.1-.4 0-.7.2-1 .5-.1.1-.2.1-.3.2-.1 0-.2 0-.3.1-.5.1-.9.2-1.2.5-.2.2-.3.4-.4.6-.1.3-.2.4-.5.4-.7 0-1.4-.3-1.9-.8l-.3-.3c-.2-.2-.2-.3 0-.4l.1-.1c.1-.1.1-.1-.1-.2-.4.1-.4.1-.5.1zM31.6.6c-.3.1-.7.2-1.1.3v.3c-.3.1-.5.1-.8.2-.3.1-.7.2-1 .3h-.8c-.3 0-.5.1-.8.2.1.2.3.1.4.2-.5.2-1 .3-1.4.4 0 .2.1.2.2.2h.3s-.1 0-.1.1c-.4.1-.8.1-1.3 0-.4 0-.9 0-1.3-.1h-.3c.1-.3.4-.3.6-.5-.1-.2-.3-.2-.6-.1s-.6.2-.9.1c-.1 0-.2-.1-.3-.2.1 0 .2 0 .4-.1-.3-.1-.7-.1-1-.3v-.1c.4-.3.8-.5 1.3-.2.2.1.4.1.6.2.1 0 .2.1.3.2.3.4.8.5 1.3.5.2 0 .4-.1.6-.1V2c-.1 0-.2 0-.3-.1-.2-.1-.5-.1-.7-.2-.1 0-.2-.1-.2-.1.1-.1.2-.1.3-.1h.7c.3 0 .6-.1.8-.3h-1c-.5 0-1-.1-1.5-.2-.2 0-.4-.1-.6-.2.7-.1 1.4-.2 2-.3.2 0 .3-.1.4-.2.1-.1.1-.1.2-.1.2 0 .4-.1.6-.1h3.1c.1 0 .3 0 .4.1.4.1.7.2 1.1.1 0 0 .2.1.4.3 0-.1 0-.1 0 0z"/><path class="hst0" d="M28.8 5.9c-.2-.3-.4-.5-.6-.6-.5-.2-1-.3-1.5-.4-.7-.1-1.5-.1-2.3-.1-.2 0-.5 0-.7-.1-.1 0-.1-.1-.2-.1-.1-.1-.2-.2-.2-.3 0-.1.1-.2.3-.2.2-.1.3-.1.5-.1h.2c.3.1.6.1.9 0 .1 0 .1 0 .2-.1.1 0 .3 0 .3.1.2.4.6.4 1 .3.1 0 .1 0 .2-.1.3-.1.5-.1.8 0 .1.1.2.1.3.2.3.1.5.1.8.1 0 .2.2.3.4.3.3 0 .5.1.8.2v.1c0 .2 0 .2.3.3.2 0 .4.1.5.1.3.1.5.1.8.2.1 0 .1 0 .2.1-.1.1-.3.2-.4.3-.1.1-.2.1-.4 0s-.3-.2-.5-.2c-.1-.1-.3-.1-.4 0-.1.1-.1.2 0 .3.2.1.3.2.5.3.1.1.2.1.3.3-.1.2-.4.2-.3.4-.4-.1-.8-.1-1.2-.2-.3-.1-.5-.1-.8-.3-.3-.2-.7-.3-1.1-.2H26.9c.1-.1.2-.1.3-.1h.5c.2 0 .3-.1.5-.2 0-.1.1-.1.2-.1.1-.2.2-.2.4-.2zM13.1 4.2c.1-.1.2-.3.2-.4.1-.2.4-.3.6-.3.3 0 .7 0 1 .1.3 0 .6.1.9.3.2.1.4.2.6.2h.3c.3 0 .6 0 .9.2.2.1.3.1.4-.1 0 0 0-.1.1-.1.2-.1.4-.2.6-.2-.1.4 0 .6.3.7.1.1.2.1.3.1.1 0 .2.1.3.1 0 .1-.1.2-.2.3-.1-.1-.2-.1-.4-.1-.6-.1-1.1 0-1.7.1-.6.1-1.2 0-1.8-.2.4 0 .8-.1 1.2-.1-.2-.2-.4-.2-.6-.2h-.6-.1c-.3-.1-.4-.2-.4-.6-.3 0-.5.1-.7.2-.3.1-.5.2-.8.2-.2 0-.3-.1-.4-.2zM46.3 6.3c-.1 0-.1.1-.2.1-.4.1-.9.2-1.3.3-.4.1-.7-.1-1-.2.3-.1.6-.2.8-.3h.1c.4-.2.9-.2 1.3-.1.1 0 .2 0 .3.2zM25.9 8.5c.3 0 .5 0 .7.1v.7c0 .2-.1.4-.2.7l-.1.1c-.2.1-.4-.1-.4-.3v-1-.3zM21.8 2.8c.5 0 .9 0 1.3.3.2.1.4.1.6.1.9 0 1.7 0 2.6-.1h.1c0 .1-.1.1-.1.1h-.2c-.6 0-1.2.1-1.8.1-.4 0-.8-.1-1.3-.1h-.1c-.4-.2-.8-.3-1.1-.4zM34.3 11c-.1 0-.2.1-.3.1-.1 0-.2 0-.3-.1-.1-.1-.2-.1-.3-.1h-.5c-.1 0-.3 0-.4-.2.1-.1.1-.2.2-.2.2-.1.3-.2.5-.2.1 0 .2 0 .3.1.1.1.3.2.5.3.3.1.3.1.3.3zM21.4 4.2c-.4.3-.8.2-1.4-.1.3-.2.7-.4 1.1-.3 0 .1 0 .2.1.3 0 0 .1 0 .2.1z"/><path class="hst0" d="M18.7 5.2c0-.2.1-.1.2-.1.3 0 .6.1.9.3-.4 0-.7 0-1.1-.2zM26.3 19.6c.3-.1.3-.1.5.1-.2 0-.3-.1-.5-.1zM25.7 19.7c-.1 0-.1 0-.2-.1.1 0 .2 0 .2.1 0-.1 0-.1 0 0zM28.2 5.6h.1c0 .1-.1.1-.1 0 0 .1 0 0 0 0zM32 11.3c0-.1.1-.1.2-.1-.1.1-.2.1-.2.1z"/><path d="M16.2 3.3H15.6c-.2 0-.3-.1-.3-.2s.1-.2.3-.3h.4c.4.1.7.2 1 .3h.2c.1 0 .2 0 .3-.2.1-.2.2-.2.4-.1 0 0 .1 0 .1.1.1.1.2.1.3.1.1 0 .2 0 .2.1s-.1.2-.2.2c-.2 0-.5.1-.8.1-.3 0-.5.1-.8.1h-.4c-.1.1-.1.1-.1-.2zm-.7-.2c.1.1.1.1.2.1H16.3s0 .1.1.2c.2 0 .4 0 .7-.1.2 0 .4-.1.7-.1.2 0 .4 0 .6-.1-.2-.1-.4-.2-.7-.3-.2.4-.3.4-.8.3-.4 0-.6 0-.9-.1-.2 0-.4 0-.5.1z"/><path class="hst0" d="M64.2 26.5c-.2 0-.4-.1-.5-.3-.1-.2-.1-.4.1-.5.1-.1.2-.3.1-.4-.1-.3.1-.4.3-.5.1-.1.3-.1.4-.2.3-.1.5-.2.7-.5.1-.1.2-.1.3 0 .1.2.1.3 0 .5l-.6 1.5c-.2.3-.4.4-.8.4z"/><path d="M66.9 12.4c-.1.1-.2.1-.3.2.1.1.1.1.1.2.2.3.2.5-.2.6-.3.1-.6 0-.9-.1-.2-.1-.2-.2-.1-.4 0 0 0-.1.1-.1.1-.2.1-.3-.1-.4-.2-.1-.3-.3-.4-.6-.1-.2 0-.4.2-.5.3-.2.7-.2 1.1-.2.1 0 .2.1.2.2s-.1.1-.1.2c-.1 0-.2.1-.3.1-.1.1-.1.1 0 .2 0 .1.1.1.2.2l.1.1c.1.2.2.2.4.2-.1.1-.1.1 0 .1z"/><path class="hst0" d="M15.5 3.1c.1-.1.3-.1.5-.1.3 0 .6.1.9.2.4.1.5 0 .8-.3.2.1.4.2.7.3-.2.1-.4.1-.6.1-.2 0-.4.1-.7.1-.2 0-.4 0-.7.1 0-.1 0-.2-.1-.2H15.7c-.1-.1-.2-.1-.2-.2z"/></svg></svg>