<?xml version="1.0" encoding="utf-8"?>
<!-- Generator: Adobe Illustrator 19.0.1, SVG Export Plug-In . SVG Version: 6.00 Build 0)  -->
<svg version="1.1" id="Слой_1" xmlns="http://www.w3.org/2000/svg" xmlns:xlink="http://www.w3.org/1999/xlink" x="0px" y="0px"
	 viewBox="0 0 24 24" style="enable-background:new 0 0 24 24;" xml:space="preserve">
<style type="text/css">
	.st0{fill:#FFFFFF;}
</style>
<path class="st0" d="M0,0h24v24H0V0z M8.2,15.9c-0.5,0.2-0.9,0.4-1.4,0.5c-0.4,0.1-0.8,0.2-1.3,0.2c-0.1,0-0.1,0-0.2,0
	c-0.2,0-0.4,0-0.6,0c0,0,0,0,0,0c0,0,0.1,0,0.1,0.1C6.1,17.5,7.5,17.9,9,18c1,0,2-0.1,3-0.4c0.4-0.1,0.8-0.3,1.3-0.5c0,0,0,0,0.1,0
	c2.5-1.3,3.9-3.4,4.4-6.2c0.1-0.3,0.1-0.6,0.1-0.9c0-0.3,0-0.6,0-0.9c0-0.1,0-0.1,0.1-0.1c0.5-0.4,1-0.8,1.3-1.4c0,0,0-0.1,0.1-0.1
	c-0.5,0.2-1.1,0.4-1.7,0.4c0.6-0.4,1-0.9,1.3-1.6c-0.1,0-0.1,0-0.1,0.1c-0.5,0.3-1.1,0.5-1.7,0.6C17,7,17,7,16.9,6.9
	c-1.1-1.1-3-1.1-4.2,0c-0.8,0.8-1.1,1.7-0.9,2.8c0,0.1,0,0.1-0.1,0.1c-0.3,0-0.6-0.1-0.9-0.1C9,9.3,7.3,8.4,6,7
	C5.9,6.8,5.8,6.7,5.7,6.6c0,0,0,0.1-0.1,0.1C5.2,7.4,5.2,8.2,5.4,9c0.2,0.7,0.6,1.2,1.2,1.6c0,0-0.1,0-0.1,0c-0.4,0-0.8-0.1-1.2-0.3
	c-0.1-0.1-0.1-0.1-0.1,0.1c0,1.2,0.8,2.3,2,2.7c0.1,0,0.2,0.1,0.4,0.1c-0.4,0.1-0.9,0.1-1.3,0c0.5,1.3,1.4,2,2.8,2.1
	c-0.1,0.1-0.2,0.2-0.4,0.3C8.6,15.7,8.4,15.8,8.2,15.9z"/>
</svg>
