<?xml version="1.0" encoding="utf-8"?>
<!-- Generator: Adobe Illustrator 19.0.1, SVG Export Plug-In . SVG Version: 6.00 Build 0)  -->
<svg version="1.1" id="Слой_1" xmlns="http://www.w3.org/2000/svg" xmlns:xlink="http://www.w3.org/1999/xlink" x="0px" y="0px"
	 viewBox="0 0 24 24" style="enable-background:new 0 0 24 24;" xml:space="preserve">
<style type="text/css">
	.st0{fill:#FFFFFF;}
</style>
<path class="st0" d="M0,0v24h24V0H0z M16.5,5.7c0,0.1,0,0.1-0.1,0.1c-0.5,0-1.1,0-1.6,0c-0.2,0-0.5,0-0.7,0.1
	c-0.5,0.1-0.7,0.5-0.7,0.9c-0.1,0.4,0,0.8,0,1.2c0,0.4,0,0.7,0,1.1c0,0.1,0,0.1,0.1,0.1c0.9,0,1.8,0,2.7,0c0.1,0,0.1,0,0.1,0.1
	c-0.1,0.9-0.2,1.8-0.4,2.8c0,0.1-0.1,0.1-0.2,0.1c-0.8,0-1.5,0-2.3,0c-0.1,0-0.2,0-0.2,0.1c0,1.2,0,2.5,0,3.7c0,1.2,0,2.5,0,3.7
	c0,0.1,0,0.1-0.2,0.1c-0.9,0-1.9,0-2.8,0c-0.1,0-0.2,0-0.2-0.2c0-2.5,0-4.9,0-7.4c0-0.1,0-0.2-0.2-0.2c-0.8,0-1.5,0-2.3,0
	c-0.1,0-0.1,0-0.1-0.1c0-0.9,0-1.8,0-2.7c0-0.1,0-0.1,0.1-0.1c0.8,0,1.6,0,2.4,0c0.1,0,0.1,0,0.1-0.1c0-0.7,0-1.4,0-2.1
	c0-0.7,0.1-1.3,0.4-1.9c0.5-1.1,1.4-1.7,2.6-2c0.6-0.1,1.2-0.1,1.8-0.1c0.5,0,0.9,0,1.4,0.1c0.1,0,0.2,0,0.2,0.2
	C16.5,4,16.5,4.8,16.5,5.7z"/>
</svg>
