<?xml version="1.0" encoding="utf-8"?>
<!-- Generator: Adobe Illustrator 19.0.1, SVG Export Plug-In . SVG Version: 6.00 Build 0)  -->
<svg version="1.1" id="Слой_1" xmlns="http://www.w3.org/2000/svg" xmlns:xlink="http://www.w3.org/1999/xlink" x="0px" y="0px"
	 viewBox="0 0 108 36" style="enable-background:new 0 0 108 36;" xml:space="preserve">
<style type="text/css">
	.st0{fill:#FFFFFF;}
</style>
<path d="M75.1,4.2C75.1,4.1,75.1,4.1,75.1,4.2c-0.2-0.1-0.2-0.2-0.2-0.3c0-0.1,0.1-0.2,0.3-0.2c0.1,0,0.3,0,0.4,0c0.3,0,0.7,0,1,0
	c0-0.1,0-0.1,0-0.1c0-0.2,0-0.2,0.2-0.3c0.2,0,0.4-0.1,0.6-0.1C78.3,3.1,79.1,3,80,3c0.1,0,0.3,0,0.4,0c0.3,0,0.5-0.1,0.8-0.1
	c0.2-0.4,0.6-0.5,1-0.5c0.1,0,0.2,0.1,0.2,0.2c0,0.1,0.2,0.2,0.3,0.2c0.1,0,0.3,0,0.4,0c0.3,0,0.7,0,1,0c0.2,0,0.3,0,0.5,0.1
	C84.9,2.9,85,3,84.8,3.2c0,0-0.1,0.1-0.1,0.1c0.1,0.1,0.2,0.2,0.3,0.3c0.1,0,0.1,0,0.2,0c0.5-0.1,1-0.1,1.5,0.1
	c0.4,0.1,0.8,0.1,1.2,0c0.4-0.1,0.9-0.1,1.3,0c0,0,0.1,0,0.1,0c0.1,0,0.2,0,0.2,0.2c0,0.1-0.1,0.1-0.1,0.2c0,0,0,0-0.1,0.1
	c0,0,0,0.1,0.1,0.1c0.2,0.1,0.5,0.2,0.7,0.3c0.1,0,0.2,0,0.2,0c0.4-0.2,0.8-0.2,1.2-0.2c0.3,0,0.6,0,0.8,0c0.2,0,0.3-0.1,0.4-0.2
	C92.9,4,93.1,4,93.2,4c0.3,0,0.6,0,0.9,0c0.1,0,0.2,0,0.3,0.1c0.3,0.1,0.6,0.1,1,0.1c0.2,0,0.4,0,0.6,0.1c0.2,0.2,0.6,0.3,0.9,0.3
	c0.3,0,0.6,0,0.9,0c0.2,0,0.5,0,0.7,0c0.2,0,0.3,0.1,0.4,0.2c0.1,0.1,0.2,0.2,0.3,0.2c0.4,0,0.8,0,1.2,0c0.4,0,0.9,0,1.3,0.1
	c0,0,0.1,0,0.1,0c0,0,0-0.1,0.1-0.1c0.1-0.2,0.1-0.2,0.3-0.2c0.1,0,0.3,0,0.4,0c0.7,0.1,1.5,0.2,2.2,0.3c0.3,0,0.6,0.1,0.9,0.2
	c0.2,0,0.3,0.1,0.5,0.2c0.1,0.1,0.2,0.2,0.4,0.3c0.4-0.2,0.7-0.1,1.1,0c0.1,0,0.2,0,0.3,0.1c0,0.1,0,0.2,0,0.3
	c-0.2,0-0.3,0.1-0.5,0.1c-0.1,0-0.2,0.1-0.3,0.2c-0.1,0.2-0.3,0.2-0.4,0.1c-0.5-0.2-1.1-0.3-1.7-0.4c-0.3,0.2-0.3,0.2-0.9,0.3
	c0.1,0,0.2,0.1,0.2,0.1c0.2,0.1,0.3,0.2,0.4,0.3c0.1,0.1,0.2,0.1,0.3,0.1c0.2-0.1,0.3-0.1,0.5,0c0.2,0.1,0.4,0.1,0.6,0.2
	c0,0.9,0,1.7,0,2.6c-0.1,0-0.1,0.1-0.2,0.1c-0.2,0.1-0.4,0.1-0.6,0.3c0,0-0.1,0.1-0.2,0.1c-0.1,0-0.2,0-0.2-0.1
	c-0.5-0.2-1-0.3-1.5-0.3c-0.1,0-0.1,0-0.2,0c-0.1,0.1-0.2,0.2-0.4,0.3c0,0.1,0,0.3,0,0.5c-0.1,0-0.2,0.1-0.3,0.1
	c-0.6,0-1.2,0.2-1.7,0.3c-0.4,0.1-0.8,0.2-1.1,0.1c-0.5-0.1-1,0.1-1.5,0.3c0,0-0.1,0.1-0.1,0.2c0,0.1,0,0.2,0,0.3
	c0,0.2-0.1,0.4-0.3,0.5c-0.3,0.1-0.5,0.3-0.7,0.5c-0.1,0.1-0.2,0.2-0.4,0.2c-0.1,0.1-0.2,0.1-0.3,0.2c-0.2,0.1-0.3,0.1-0.4-0.1
	c-0.1-0.3-0.2-0.5-0.2-0.9c0-0.3,0-0.6,0-0.9c0-0.1,0-0.1,0-0.2c0,0-0.1,0-0.1,0c-0.3,0.3-0.6,0.3-0.9,0.2c-0.4-0.1-0.9-0.1-1.3,0
	c0,0-0.1,0-0.1,0.1c0.1,0,0.3,0.1,0.4,0.1c0.1,0,0.2,0,0.2,0c0.1,0,0.2,0.1,0.2,0.1c0,0.1,0,0.2-0.1,0.2c-0.1,0.1-0.2,0.1-0.3,0.1
	c-0.3,0.1-0.6,0.2-0.9,0.3c0.3,0.2,0.3,0.4,0.2,0.7c0,0,0,0,0,0.1c-0.2,0.3-0.3,0.7-0.2,1.1c0,0.2,0,0.4,0,0.5
	c0,0.2-0.1,0.3-0.3,0.4c-0.2,0.1-0.5,0.1-0.7,0.2c0,0,0,0.1,0,0.1c0.1,0.5-0.2,0.9-0.5,1.3c0,0.1-0.2,0.1-0.2,0.1
	c-0.6,0-1.2,0.2-1.8,0.3c-0.2,0-0.4,0.1-0.6,0.3c-0.1,0.1-0.1,0.1-0.3,0.1c-0.2,0-0.3-0.1-0.3-0.2c0,0,0-0.1,0-0.1
	c-0.2-0.1-0.2-0.3-0.2-0.6c-0.2,0-0.3,0.1-0.4,0.1c-0.2,0-0.2,0-0.3-0.2c0-0.2-0.1-0.3-0.2-0.4c-0.1-0.1-0.2-0.2-0.3-0.3
	c0,0-0.1-0.1-0.2-0.1c-0.2,0-0.5,0.2-0.5,0.4c0,0,0,0.1,0,0.1C86,16.6,86,16.6,86,16.9c0,0.3,0,0.6,0,0.9c0,0.3-0.1,0.5-0.3,0.6
	c-0.6,0.5-1.2,0.9-2,0.9c-0.3,0-0.6,0.1-0.9,0.2c-0.1,0-0.3,0.1-0.4,0.1c0,0.5,0,1,0,1.6c0.1,0,0.1,0,0.2,0c0.5-0.2,1.1-0.5,1.6-0.8
	c0.2-0.1,0.4-0.2,0.6-0.1c0.1,0,0.2,0,0.2-0.1c0.2-0.1,0.3-0.2,0.5-0.3c0.3-0.1,0.6-0.1,0.8,0.1c0.2,0.1,0.2,0.3,0,0.4
	c0,0-0.1,0.1-0.1,0.1c0.3,0.4,0.3,0.4,0,0.8c0.2,0,0.3,0,0.5-0.1c0-0.1,0.1-0.1,0.2-0.1c0.5-0.1,0.9-0.1,1.4,0
	c-0.1,0.1-0.3,0.2-0.4,0.2c-0.2,0-0.3,0-0.5,0c-0.1,0-0.2,0-0.3,0c0,0,0,0,0,0.1c0.1,0,0.2,0,0.3,0c0.1,0,0.2,0,0.3,0
	c0.1,0,0.1,0.1,0.1,0.2c0,0.1-0.1,0.1-0.2,0.1c-0.1,0-0.2,0-0.3,0c0.1,0.1,0.2,0.1,0.2,0.2c0.1,0.1,0.1,0.2,0.1,0.3
	c0,0.1,0,0.2-0.1,0.3c-0.1,0.1-0.3,0-0.3-0.1c-0.1-0.1-0.1-0.2-0.2-0.3C87,22.1,87,22.2,87,22.3c0,0.1,0,0.2,0,0.3
	c0,0.1-0.1,0.2-0.1,0.4c0,0.2,0,0.4,0,0.7c-0.1,0-0.2,0.1-0.3,0.1c-0.1,0.3-0.1,0.6-0.1,1c0.1-0.1,0.2-0.1,0.3-0.2
	c0.3-0.3,0.7-0.3,1.1-0.1c0,0,0,0,0,0c0.2-0.1,0.4-0.2,0.6-0.3c0,0,0,0,0.1,0c0.2-0.1,0.4-0.3,0.6-0.4c0-0.6,0-1.3,0-1.9
	c0.3-0.1,0.5-0.1,0.7,0.1C90,22,90,22,90.1,22.1c0.1,0,0.2,0,0.3,0c0.1,0,0.1-0.2,0.2-0.3c-0.1,0-0.1-0.1-0.2-0.1
	c-0.1-0.1-0.1-0.2,0-0.2c0.2-0.1,0.6,0,0.7,0.2c0,0,0.1,0.1,0.1,0.1c0.1,0.1,0.2,0.2,0.4,0.1c0.3-0.2,0.6-0.2,0.9-0.1
	c0.6,0.1,1.1,0.3,1.7,0.4c0.2,0,0.3,0.1,0.5,0.2c0.2,0.1,0.4,0.2,0.5,0.5c0,0.1,0.1,0.1,0.2,0.2c0.1,0.1,0.2,0.1,0.3,0.2
	c0.1,0.1,0.1,0.2,0,0.2c0,0-0.1,0-0.1,0c-0.3,0-0.6-0.1-0.9-0.3c0,0,0,0-0.1,0c-0.2-0.2-0.5-0.2-0.8,0c0.1,0.2,0.4,0.2,0.5,0.4
	c0,0.3,0,0.6,0,0.9c0,0.1,0,0.2,0.1,0.2c0,0.1,0.1,0.2,0.1,0.2c0,0.2,0.2,0.4,0.4,0.5c0.3,0.2,0.6,0.4,0.9,0.7
	c0.2,0.1,0.4,0.3,0.6,0.3c0.3,0.1,0.3,0.1,0.3,0.4c0,0.7-0.2,1.3-0.7,1.9c-0.1,0.1-0.1,0.2-0.2,0.3c0,0.2-0.2,0.3-0.3,0.4
	c-0.1,0-0.2,0.1-0.2,0.1c-0.1,0.4-0.2,0.7-0.2,1.1c-0.1,0.3-0.3,0.6-0.4,0.8c-0.1,0.1-0.1,0.2-0.2,0.4c-0.1,0.2-0.2,0.3-0.3,0.3
	c-0.3,0.1-0.6,0.2-0.8,0.3c-0.1,0-0.1,0-0.2,0c-0.2-0.1-0.4-0.1-0.6-0.1c-0.2,0-0.3,0-0.5,0c-0.3,0-0.6-0.1-0.8-0.4
	c-0.2-0.2-0.4-0.4-0.6-0.5c0,0,0,0-0.1,0c0-0.1,0.1-0.2,0.1-0.3c-0.1-0.1-0.2,0-0.3,0.1c-0.2,0.2-0.4,0.3-0.6,0
	c-0.2-0.2-0.5-0.4-0.8-0.4c-0.6-0.1-1.2-0.1-1.8,0.1c-0.5,0.1-1.1,0.3-1.6,0.4c-0.2,0.1-0.5,0.1-0.7,0.2c-0.2,0.1-0.4,0.1-0.5,0
	c-0.2-0.1-0.3-0.2-0.3-0.4c-0.1-0.6-0.3-1.1-0.7-1.5c0,0-0.1-0.1-0.1-0.1c0.1,0,0.2,0,0.4,0c0-0.2-0.1-0.3-0.2-0.4
	c-0.1-0.1-0.1-0.2-0.1-0.3c0-0.6,0-1.2,0-1.7c0-0.1,0-0.2,0.1-0.3c0,0,0-0.1,0-0.1c0-0.1,0-0.2,0-0.2c0-0.2,0.1-0.3,0.2-0.3
	c0.3-0.1,0.6-0.2,1-0.3c0.3-0.1,0.7-0.2,1-0.3c0.2-0.1,0.4-0.2,0.5-0.4c-0.1-0.2-0.2-0.3-0.3-0.5c-0.2,0.2,0,0.4-0.1,0.6
	c-0.2,0-0.3-0.1-0.3-0.2c-0.1-0.2-0.1-0.3-0.1-0.5c0-0.6,0-1.2,0-1.8c0-0.1,0-0.2,0-0.3c0,0,0,0,0,0c0,0.4,0,0.7,0,1.1
	c0,0.2-0.1,0.3-0.2,0.4c-0.1,0-0.1,0.1-0.2,0.1c-0.2,0.1-0.3,0.3-0.3,0.5c0,0.2-0.1,0.2-0.2,0.2c-0.2,0-0.3,0-0.5,0c0,0.3,0,0.6,0,1
	c-0.1,0-0.2,0-0.3,0c-0.6-0.1-1.3-0.2-1.9-0.3c-0.2,0-0.3-0.1-0.3-0.3c0-0.1,0-0.2,0-0.3c0,0-0.1,0-0.1,0c-0.2,0.2-0.3,0.2-0.6,0.1
	c-0.6-0.3-1-0.8-1.5-1.3c-0.2-0.2-0.4-0.4-0.6-0.5c-0.1-0.1-0.2-0.2-0.2-0.3c0-0.6,0-1.2,0-1.8c0-0.1,0-0.1,0.1-0.2
	c0-0.1-0.1-0.1-0.2-0.1c-0.2,0-0.3,0-0.3-0.3c0-0.2-0.1-0.3-0.2-0.4c-0.2-0.2-0.4-0.3-0.6-0.5c-0.1,0-0.2-0.1-0.3,0
	c-0.2,0-0.4,0.1-0.6,0.1c-0.2,0-0.4,0.1-0.6,0.2c-0.5,0.3-1,0.6-1.5,0.8c0,0-0.1,0-0.1,0.1c-0.2,0.1-0.3,0.2-0.3,0.4
	c0,0.4-0.1,0.7-0.4,0.9c-0.2,0.2-0.4,0.2-0.5,0c-0.3-0.4-0.6-0.8-0.9-1.2c-0.2-0.3-0.4-0.7-0.4-1.1c0,0,0-0.1,0-0.1
	c-0.1,0-0.1,0-0.2,0c-0.1,0-0.1,0-0.2,0.1c-0.3,0.1-0.3,0-0.4-0.3c0,0,0,0,0,0c-0.3-0.1-0.7-0.3-1-0.4c-0.2-0.1-0.4-0.1-0.6-0.1
	c-0.4,0-0.9,0-1.3,0c0,0.1,0,0.3,0,0.4c0,0.2-0.1,0.4-0.3,0.5c-0.4,0.3-0.9,0.6-1.4,0.7c-0.2,0.1-0.4,0.1-0.6,0.2
	c-0.2,0.1-0.2,0.1-0.2,0.3c0.1,0.6-0.2,1-0.6,1.4c-0.3,0.4-0.7,0.8-1.2,1c-0.2,0.1-0.4,0.2-0.6,0.4c0.2,0.7-0.3,1-0.8,1.2
	c0,0.3,0,0.5,0,0.8c0,0.2,0,0.5,0,0.7c0.1,0.5-0.2,0.8-0.6,1c-0.2,0.1-0.5,0.2-0.7,0.3c-0.2,0.1-0.3,0.1-0.3,0.4c0,0.2,0,0.4,0,0.5
	c0,0.2-0.1,0.4-0.2,0.4c-0.4,0.1-0.5,0.4-0.7,0.8c-0.2,0.5-0.6,0.8-1,1c-0.5,0.3-1.1,0.4-1.7,0.5c-0.4,0-0.8,0.1-1.1,0.1
	c-0.4,0-0.5-0.1-0.5-0.5c0-0.1,0-0.1-0.1-0.2c-0.1-0.1-0.2-0.2-0.2-0.3c-0.3-0.4-0.6-0.8-0.8-1.3c-0.1-0.2-0.1-0.3-0.1-0.5
	c0-0.2-0.1-0.5-0.3-0.6c-0.2-0.2-0.3-0.5-0.3-0.8c0-0.7,0-1.3,0-2c0-0.1,0-0.2-0.1-0.3c-0.1-0.2-0.3-0.4-0.5-0.5
	c-0.2-0.1-0.2-0.3-0.2-0.5c0-0.2,0-0.4,0-0.7c0-0.3-0.1-0.4-0.4-0.4c-0.1,0-0.2,0-0.3,0c-0.2,0-0.4,0-0.6-0.2
	c-0.3-0.2-0.6-0.2-0.9-0.2c-0.6,0.1-1.2,0.2-1.8,0.2c-0.3,0-0.6,0.1-0.9,0.1c-0.6,0-1.1-0.2-1.6-0.5c0,0-0.1-0.1-0.1-0.1
	c-0.2-0.4-0.6-0.6-0.9-0.9c-0.5-0.4-0.5-0.4-0.5-1c0-0.6,0-1.1,0-1.7c0-0.1,0-0.1,0-0.2c0.1-0.1,0.1-0.3,0.1-0.4c0-0.2,0-0.3,0-0.5
	c0-0.3,0.1-0.6,0.3-0.8c0.1-0.1,0.1-0.2,0.2-0.3c0.1-0.2,0.3-0.4,0.4-0.5c0.3-0.2,0.6-0.5,1-0.7c0.2-0.1,0.3-0.3,0.3-0.5
	c0-0.3,0.1-0.7,0-1c0-0.2,0.1-0.4,0.1-0.7c-0.1,0-0.2-0.1-0.3-0.1c0-0.1,0-0.2,0-0.2c0-0.6,0-1.1,0-1.7c0-0.1,0-0.2,0-0.3
	c0,0,0-0.1,0-0.1c-0.1-0.3,0.1-0.4,0.2-0.6c0.2-0.2,0.4-0.3,0.6-0.2c0.1,0,0.2,0.1,0.3,0.1c0.1,0.1,0,0.2,0,0.3c0,0.1,0,0.2,0,0.3
	c0,0.2,0,0.5,0,0.7c0,0.1,0,0.2,0,0.3c0-0.6,0-1.2,0-1.9c-0.1,0-0.3,0.1-0.4,0.1c-0.1,0-0.2,0-0.3,0c-0.1,0-0.1-0.1-0.1-0.2
	c0.1-0.2,0.2-0.4,0.4-0.6c0.2-0.2,0.5-0.2,0.8-0.1c0.1,0.1,0.2,0.1,0.3,0c0,0,0,0,0-0.1c-0.3-0.3-0.1-0.6,0.1-0.8
	c0.3-0.2,0.5-0.3,0.8-0.3c-0.1,0.1-0.1,0.3-0.2,0.4c0.1,0,0.2,0.1,0.3,0.1c0,0,0,0.1,0,0.1c-0.1,0.2-0.1,0.2,0.1,0.4
	c0.3,0.1,0.5,0.3,0.7,0.5c0.1,0.1,0.2,0.2,0.3,0.2c0.2,0.1,0.2,0.3,0,0.4c-0.1,0.1-0.2,0.1-0.3,0.1c-0.1,0-0.3,0-0.5,0.1
	c-0.1,0-0.2,0-0.3,0c0.1,0.2,0.1,0.3,0.3,0.2c0.5-0.2,0.9-0.4,1.4-0.6c0-0.2,0-0.4,0-0.6c0-0.2,0-0.4,0-0.7c0-0.2,0.1-0.3,0.2-0.4
	C52,8.2,52.2,8.1,52.3,8c0-0.1-0.1-0.3-0.1-0.4c-0.1-0.2,0-0.3,0.1-0.4c0.4-0.2,0.8-0.4,1.2-0.4c0.1,0,0.2,0,0.3,0
	c0-0.1,0-0.1,0-0.1c-0.1-0.3-0.1-0.3,0.1-0.5c0.2-0.1,0.4-0.2,0.6-0.3c0.4-0.2,0.8-0.3,1.1-0.6c0.1-0.1,0.4-0.2,0.6-0.3
	c0.4-0.1,0.8-0.2,1.2-0.3c0,0,0.1,0,0.1,0c0.5-0.2,1-0.2,1.6-0.1c0.2,0,0.3,0.1,0.5,0.1c0,0,0.1,0,0.1,0.1c0,0.1,0,0.1,0,0.2
	c0,0,0.1,0,0.1,0c0,0,0.1,0,0.1,0c0.3-0.1,0.6-0.1,0.9,0c0.5,0.1,1.1,0.3,1.6,0.4c0.2,0,0.3,0.1,0.5,0.2c0.2,0.1,0.2,0.3,0,0.4
	C62.7,6,62.6,6,62.4,6C62,6.1,61.6,6,61.2,6c-0.1,0-0.2,0-0.3-0.1c0.2,0.3,0.4,0.6,0.9,0.6c0-0.1,0-0.1,0-0.2c0.1,0,0.2,0,0.3,0
	c0.1,0,0.2,0,0.4,0c0.1,0,0.2,0,0.3-0.1c0.2-0.3,0.5-0.3,0.7-0.3c0.1,0,0.3,0,0.4,0c0-0.1-0.1-0.2-0.1-0.3c-0.1-0.2,0-0.3,0.2-0.3
	c0.2,0,0.4,0,0.6,0.1c0.1,0.1,0.1,0.2,0,0.3c0.1,0,0.3,0,0.4,0c0.5-0.3,1.1-0.4,1.6-0.4c0.2,0,0.4,0,0.5,0c0.2,0.1,0.3,0.1,0.5,0
	c0.2-0.1,0.4-0.1,0.6-0.2c0.1,0,0.3,0,0.4,0c0.1,0.1,0.2,0.1,0.2,0c0.7-0.4,1.4-0.2,2.1,0c0.1,0,0.3,0.1,0.4,0c0,0-0.1-0.1-0.1-0.1
	C71.1,5,71,4.9,70.9,4.9c-0.2-0.2-0.2-0.3,0.1-0.5c0.1-0.1,0.3-0.2,0.4-0.3c0.3-0.2,0.7-0.3,1-0.2c0.1,0.1,0.2,0.2,0.2,0.3
	c0,0.2,0,0.3,0,0.4c0.1,0.2,0.1,0.4,0,0.6c0,0.1-0.1,0.2-0.1,0.3c0.1,0.1,0.2,0.1,0.2,0c0.1-0.2,0.4-0.3,0.6-0.5c-0.1,0-0.1,0-0.1,0
	c-0.2,0-0.3-0.1-0.4-0.3c0,0,0-0.1,0-0.1c-0.1-0.1-0.1-0.2,0-0.3C72.8,4.2,73,4.1,73.1,4c0.1,0,0.2,0.1,0.3,0.1
	c0.2,0.2,0.2,0.2,0.4,0.2c0-0.1-0.1-0.1-0.1-0.2c0.1,0,0.1-0.1,0.2-0.1C74.2,4.1,74.7,4,75.1,4.2C75.1,4.2,75.1,4.2,75.1,4.2
	c0.1,0.1,0.5,0.4,0.6,0.4C75.6,4.3,75.4,4.2,75.1,4.2z M87,21.2c-0.3,0.1-0.5,0.3-0.5,0.6c0,0.3,0.1,0.5,0.3,0.7
	c0-0.2-0.1-0.5,0.2-0.6c0,0,0.1,0.1,0.1,0.1c0.1,0.1,0.1,0.2,0.2,0.3c0,0.1,0.1,0.1,0.2,0.1c0,0,0.1-0.1,0-0.2
	c0-0.1-0.1-0.1-0.2-0.2c-0.1-0.1-0.1-0.1-0.2-0.2c0.1-0.2,0.3-0.1,0.4-0.2c-0.1,0-0.3,0-0.4,0C86.9,21.5,86.9,21.4,87,21.2
	C87,21.2,87,21.2,87,21.2c0.1,0,0.2,0,0.4,0c0,0,0,0,0,0C87.3,21.1,87.2,21.1,87,21.2z M72.4,16.7c0,0.1,0,0.2,0.1,0.3
	c0,0.3,0.1,0.6,0.3,0.9c0.3,0.5,0.7,1,1,1.4c0.1,0.2,0.3,0.2,0.4,0c0.3-0.2,0.4-0.5,0.4-0.9c0-0.3,0.1-0.5,0.4-0.6
	c0.3-0.1,0.6-0.3,1-0.5c0.2-0.1,0.3-0.2,0.5-0.3c0.2-0.2,0.5-0.3,0.7-0.3c0.3,0,0.5-0.1,0.8-0.1c0.1,0,0.2,0,0.2,0
	c0.3,0.2,0.5,0.4,0.7,0.6c0.1,0.1,0.2,0.2,0.2,0.4c0,0.2,0.1,0.3,0.3,0.2c0.1,0,0.2-0.1,0.4-0.1c0.2,0,0.3,0,0.3,0.2
	c0.1,0.2,0.2,0.4,0.2,0.6c0,0.1,0.1,0.3,0.1,0.4c0,0.3,0.1,0.7,0.3,0.9c0.2,0.2,0.4,0.4,0.6,0.7c0.1,0.1,0.2,0.2,0.4,0.2
	c0.1,0,0.2,0,0.3,0c0-0.1,0-0.1,0-0.2c-0.1-0.3-0.3-0.6-0.6-0.7c-0.2-0.1-0.4-0.3-0.5-0.4c-0.3-0.3-0.1-0.7,0.2-0.8
	c0.3-0.1,0.5-0.1,0.8,0.1c0.2,0.1,0.4,0.3,0.6,0.5c0.1,0.1,0.2,0.1,0.4,0.1c0.3-0.1,0.5-0.2,0.7-0.4c0.3-0.3,0.3-0.4,0.1-0.8
	c-0.1-0.1-0.2-0.2-0.3-0.3c-0.1-0.1-0.2-0.2-0.4-0.3c-0.2-0.2-0.2-0.4,0-0.6c0.1-0.1,0.3-0.2,0.4-0.1c0.3,0,0.6,0,0.9-0.1
	c0.3-0.1,0.6-0.1,0.9-0.2c0.3,0,0.6-0.1,0.8-0.2c0.2-0.1,0.5-0.2,0.7-0.4c0.2-0.1,0.3-0.3,0.5-0.4c0.1-0.1,0.2-0.3,0.2-0.4
	c0-0.2,0-0.4,0-0.6c0-0.1,0-0.1-0.1-0.1c-0.1-0.1-0.1-0.1-0.2-0.2c-0.3-0.3-0.2-0.4,0.1-0.6c0.1,0,0.1-0.1,0.2-0.1
	c0.1,0,0.1-0.1,0.2-0.1c-0.1,0-0.3,0-0.4,0c-0.2,0-0.4,0-0.5-0.1c-0.1,0-0.2-0.1-0.2-0.2c0-0.1,0.1-0.2,0.1-0.2
	c0.2-0.1,0.5-0.2,0.7-0.3c0.1,0,0.1,0,0.2,0c0.2,0,0.2,0.1,0.1,0.3c0,0,0,0,0,0.1c0.1,0,0.1,0,0.1,0c0.2-0.1,0.4-0.1,0.6-0.1
	c0.1,0,0.2,0.1,0.2,0.1c0.1,0.1,0.2,0.3,0.4,0.4c0.1,0.1,0.2,0.2,0.2,0.4c0,0.1,0.1,0.2,0.2,0.2c0.1,0,0.2-0.1,0.3-0.1
	c0.2-0.1,0.2-0.2,0.1-0.3c-0.1-0.1-0.2-0.2-0.3-0.3c-0.1-0.2-0.1-0.3,0.1-0.5c0.3-0.2,0.6-0.4,0.8-0.6c0.2-0.1,0.4-0.2,0.6-0.1
	c0.1,0,0.3,0,0.4,0c0.6-0.3,1.1-0.6,1.5-1.1c0.3-0.3,0.5-0.7,0.5-1.1c0-0.2-0.1-0.3-0.3-0.3c-0.2,0-0.3,0-0.5,0
	c-0.3,0-0.5-0.1-0.7-0.2c-0.2-0.1-0.2-0.2,0-0.4c0.3-0.1,0.5-0.3,0.8-0.4c0.3-0.1,0.6-0.3,0.9-0.4c0.4-0.2,0.8-0.3,1.3-0.2
	c0.2,0,0.4,0,0.5,0c0.5-0.1,1-0.1,1.5,0c0.2,0,0.4,0,0.6-0.1c0.2-0.1,0.4-0.3,0.6-0.4c0.3-0.1,0.6-0.2,0.9-0.2c0.2,0,0.2,0,0.2,0.2
	c0,0,0,0.1,0,0.1c0.4-0.1,0.8-0.3,1.2-0.5c0,0.2,0,0.4-0.2,0.5c-0.6,0.3-1.2,0.6-1.8,0.9c-0.1,0-0.1,0.1-0.2,0.1
	c-0.2,0.2-0.4,0.4-0.3,0.7c0,0.2,0.1,0.4,0.2,0.6c0,0.1,0.1,0.1,0.2,0.1c0.3-0.2,0.6-0.3,0.8-0.5C99,9.2,99.1,9.1,99.3,9
	c0.1-0.1,0.2-0.1,0.3-0.2c0.1-0.1,0.2-0.3,0-0.5c-0.1-0.2-0.1-0.4,0.1-0.5c0.6-0.2,1.2-0.4,1.9-0.3c0.3,0.1,0.6,0,0.9-0.1
	c0.5-0.2,1-0.3,1.5-0.4c0.2,0,0.3,0,0.5,0c0-0.1,0-0.1,0-0.1c-0.1-0.1-0.2-0.2-0.3-0.3c-0.1-0.1-0.3-0.1-0.4-0.3c0.2,0,0.4,0,0.7,0
	c0.2,0,0.4,0,0.5-0.2c0,0,0.1-0.1,0.2-0.1c0.1,0,0.2,0,0.3,0c0.5,0.1,0.9,0.2,1.4,0.4c0.1,0,0.2,0.1,0.3,0c0.1-0.2,0.4-0.3,0.6-0.4
	c0.1,0,0.1,0,0.2-0.1c-0.2-0.1-0.3-0.1-0.4-0.1c-0.3-0.1-0.5-0.1-0.8,0c-0.1,0-0.2,0-0.2-0.1c-0.3-0.3-0.7-0.4-1-0.5
	c-0.9-0.2-1.8-0.3-2.7-0.3c-0.2,0-0.4,0-0.5,0c-0.1,0-0.2,0-0.2,0.1c-0.1,0.2-0.1,0.2-0.4,0.2c-0.4-0.1-0.8-0.1-1.1-0.1
	c-0.4,0-0.8,0-1.2-0.1c-0.2,0-0.3,0-0.4-0.1c-0.2-0.2-0.4-0.3-0.6-0.3c-0.4,0-0.7,0-1.1,0c-0.5,0-1,0-1.4-0.4
	c-0.1-0.1-0.2-0.1-0.3,0c-0.3,0.1-0.7,0.1-1,0C94.2,4.1,94,4,93.8,4.1c-0.1,0-0.3,0-0.4,0c-0.2,0-0.4,0-0.5,0.2
	c0,0.1-0.1,0.1-0.2,0.1c-0.1,0-0.2,0-0.3,0c-0.3,0-0.6,0-0.9,0c-0.3,0-0.7,0-1,0.2c-0.1,0.1-0.3,0.1-0.4,0c-0.2-0.1-0.4-0.2-0.6-0.3
	c-0.1-0.1-0.2-0.2-0.2-0.3c0.1,0,0.1-0.1,0.2-0.2c-0.1,0-0.2-0.1-0.3-0.1c-0.4-0.1-0.8-0.1-1.1,0c-0.6,0.1-1.1,0.1-1.7,0
	c-0.3-0.1-0.7-0.1-1,0c-0.3,0.1-0.5,0-0.6-0.2c-0.2-0.2-0.2-0.2,0-0.4c0,0,0.1-0.1,0.1-0.1c-0.1-0.1-0.2-0.2-0.3-0.2
	c-0.5,0-0.9,0-1.4,0c-0.1,0-0.3,0-0.4,0c-0.2,0-0.3-0.1-0.3-0.2c0,0-0.1-0.1-0.1-0.1c-0.3-0.1-0.7,0.1-0.9,0.4
	c0,0.1-0.1,0.1-0.2,0.2c-0.4,0-0.7,0.1-1.1,0.1c-0.3,0-0.6,0-0.9,0c-0.7,0.1-1.4,0.1-2.1,0.2c-0.1,0-0.3,0-0.4,0.1
	c0,0.1,0.1,0.2,0.1,0.3c-0.1,0-0.2,0-0.3,0c-0.4,0-0.8,0-1.1,0c-0.1,0-0.3,0-0.4,0.1C75.1,4,75.1,4,75.2,4c0.1,0,0.2,0.1,0.3,0.1
	c0.1,0.1,0.3,0.2,0.3,0.3c0,0.1,0,0.2,0,0.2c-0.1,0-0.2,0-0.2,0c-0.1,0-0.1-0.1-0.2-0.1c-0.3-0.3-1-0.4-1.4-0.2
	c0.1,0.1,0.1,0.2,0.2,0.3c-0.4,0.1-0.6,0-0.8-0.3c-0.2-0.2-0.2-0.2-0.4,0c-0.1,0.1-0.2,0.2-0.1,0.3c0,0,0,0.1,0,0.1
	c0,0.2,0.2,0.3,0.3,0.3c0.1,0,0.3,0,0.4,0.1c0.4,0.1,0.6,0.3,0.7,0.7c-0.3,0-0.4,0-0.6-0.3c-0.1-0.1-0.2-0.2-0.3-0.2
	c-0.2,0-0.3,0.1-0.4,0.2c-0.2,0.2-0.4,0.4-0.6,0.5c-0.3,0.2-0.9,0.1-1.1-0.2c0.1,0,0.2,0,0.3,0c0.1,0,0.2,0,0.3,0
	c0.2,0,0.4,0,0.4-0.1c0.2-0.3,0.3-0.6,0.1-1c-0.1-0.1-0.1-0.3,0-0.4c0-0.1,0-0.2-0.1-0.2c-0.2-0.1-0.4-0.1-0.6,0
	c-0.3,0.1-0.5,0.3-0.7,0.5c0,0,0,0.1-0.1,0.1c0,0.1,0.1,0.1,0.1,0.1c0.1,0.1,0.2,0.2,0.3,0.3c0,0,0.1,0.1,0.1,0.1
	c0,0-0.1,0.1-0.1,0.1c-0.1,0-0.2,0-0.3,0c-0.2,0-0.4-0.1-0.6-0.2c-0.5-0.1-1-0.1-1.5,0.1c-0.1,0.1-0.3,0.1-0.4,0
	c-0.1-0.1-0.2-0.1-0.3,0c-0.2,0.1-0.4,0.1-0.5,0.2c-0.2,0.1-0.4,0.1-0.6,0c-0.1,0-0.2,0-0.2,0c-0.3,0-0.7,0.1-1,0.2
	c-0.3,0.1-0.6,0.2-0.9,0.3c-0.2,0.1-0.4,0.1-0.5-0.1c0-0.1,0.1-0.1,0.1-0.2c-0.2-0.2-0.3-0.2-0.6-0.1c0,0.1,0.1,0.2,0.1,0.3
	C64,5.9,64,6,63.8,6c-0.1,0-0.3,0-0.4,0c-0.2,0-0.4,0.1-0.6,0.2c-0.1,0.2-0.3,0.2-0.5,0.2c-0.1,0-0.2,0-0.3,0c0,0,0,0-0.1,0
	c0,0.1,0,0.1,0,0.2c-0.3,0-0.5,0-0.8-0.1c-0.2-0.2-0.4-0.4-0.6-0.6c0.1-0.1,0.3-0.1,0.4,0c0.2,0,0.4,0.1,0.6,0.1c0.3,0,0.7,0,1,0
	c0.1,0,0.2,0,0.3-0.2c-0.2-0.1-0.5-0.2-0.7-0.3c-0.5-0.1-1-0.3-1.5-0.4C60.5,5,60.3,5,60,5c-0.1,0-0.2,0-0.2,0c-0.1,0-0.2,0-0.2-0.2
	c0,0,0-0.1,0-0.1c-0.4,0-0.7-0.1-1-0.1c-0.3,0-0.5,0-0.7,0.1c-0.3,0.1-0.7,0.2-1,0.2C56.7,5,56.5,5,56.3,5c-0.2,0.1-0.4,0.1-0.6,0.3
	c-0.2,0.2-0.4,0.3-0.7,0.4c-0.2,0.1-0.4,0.2-0.6,0.3c-0.2,0.1-0.3,0.2-0.5,0.3c0,0.1,0,0.1,0.1,0.1c0.1,0.2,0.1,0.4-0.2,0.4
	c0,0-0.1,0-0.1,0c-0.3,0-0.6,0.1-0.9,0.3c-0.3,0.2-0.4,0.2-0.3,0.6c0,0.1,0,0.1,0.1,0.2c0.1,0.2,0.2,0.2,0.3,0.2
	c0.2,0,0.3,0,0.5-0.1c0.1,0,0.3-0.1,0.4-0.1c0.2,0,0.3,0,0.4,0.2c0.1,0.2,0.2,0.3,0.3,0.5c0.1,0.1,0.2,0.2,0.3,0.2
	c0.4,0,0.7-0.1,0.9-0.4C55.8,8.2,55.9,8.1,56,8c0.1-0.1,0.1-0.1,0.2-0.2c-0.1-0.1-0.2-0.1-0.2-0.2c-0.2-0.2-0.2-0.4,0-0.6
	c0,0,0.1-0.1,0.1-0.1c0.2-0.1,0.4-0.2,0.6-0.4c0.2-0.1,0.3-0.2,0.4-0.3C57.4,6,57.6,6,57.9,6c0.1,0,0.2,0.1,0.3,0.2
	c0,0.1-0.1,0.2-0.2,0.2c-0.2,0.2-0.5,0.3-0.7,0.5c-0.1,0.1-0.2,0.2-0.2,0.4c0,0.2,0.2,0.3,0.4,0.4c0.1,0,0.2,0,0.3,0
	c0.3,0,0.6-0.1,1-0.1c0.3,0,0.5,0,0.8,0.2c-0.3,0.1-0.5,0.2-0.7,0.2c-0.2,0-0.4,0-0.5,0c-0.4,0-0.4,0-0.4,0.4c0,0.2,0,0.2-0.2,0.2
	c-0.1,0-0.2,0-0.3-0.1c-0.2,0-0.3,0-0.4,0.2c0,0.3-0.2,0.4-0.4,0.4c-0.2,0-0.4,0-0.6,0.1c-0.3,0-0.6,0.1-0.9,0.1
	c-0.5,0.1-1,0-1.4-0.1c-0.2,0-0.2-0.2-0.2-0.3c0,0,0-0.1,0-0.1c-0.3-0.1-0.3,0-0.3,0.2c0,0,0,0.1,0,0.1c0,0.2,0,0.3-0.2,0.4
	c-0.1,0-0.2,0-0.3,0.1c-0.3,0-0.6,0.1-0.9,0.3c-0.1,0.1-0.3,0.2-0.5,0.3c-0.2,0.1-0.4,0.1-0.6,0.2c-0.4,0.2-0.8,0.3-1.2,0.4
	c-0.1,0-0.1,0-0.2,0.1c0.1,0.1,0.2,0.1,0.3,0.1c0.1,0,0.2,0.1,0.2,0.1c0.2,0.1,0.2,0.3,0.3,0.4c0,0.3-0.1,0.4-0.4,0.5
	c-0.1,0-0.2,0-0.3,0c-0.3,0-0.6,0-1,0c-0.1,0-0.3,0-0.4,0c-0.2,0-0.2,0.1-0.2,0.3c0,0.2,0,0.4-0.1,0.5c-0.1,0.3,0,0.3,0.2,0.5
	c0.1,0,0.1,0,0.2,0.1c0.4,0.1,0.8,0.1,1.2,0.1c0.3,0,0.5-0.1,0.8-0.3c0.5-0.3,0.9-0.7,1.4-1c0.2-0.1,0.4-0.2,0.6-0.2
	c0.3,0,0.6-0.1,0.8-0.1c0.2,0,0.5,0,0.7,0.1c0.3,0.3,0.7,0.5,1.2,0.6c0.2,0.1,0.3,0.1,0.5,0.2c0.1,0.1,0.2,0.2,0.3,0.3
	c0-0.2,0.1-0.3,0.4-0.4c-0.2-0.1-0.4-0.1-0.5-0.2c-0.4-0.2-0.8-0.4-1.1-0.7c0-0.1-0.1-0.2-0.1-0.2c0.1-0.1,0.2-0.1,0.2-0.1
	c0,0,0.1,0,0.2,0c0.5,0.2,1,0.5,1.4,0.7c0.2,0.1,0.3,0.2,0.4,0.4c0.2,0.2,0.3,0.3,0.5,0.5c0.1,0.1,0.2,0.2,0.2,0.4
	c0.2,0,0.4,0,0.6-0.2c-0.1,0-0.1-0.1-0.1-0.1c-0.2-0.2-0.2-0.3,0.1-0.4c0.2,0,0.3-0.1,0.5-0.1c0.2,0,0.3,0,0.5,0
	c0.2,0,0.2-0.1,0.3-0.3c0-0.2,0.1-0.4,0.2-0.5c0.2-0.1,0.3-0.3,0.5-0.4c0.2-0.2,0.4-0.2,0.7,0c0.1,0,0.1,0.1,0.2,0.1
	c0.2,0.1,0.3,0.2,0.5,0.1c0.1-0.3,0.3-0.4,0.6-0.4c0,0,0.1,0,0.1,0c0.2,0,0.3,0.1,0.2,0.3c-0.1,0.1,0,0.2,0.1,0.3
	c0.1,0,0.1,0.1,0.2,0.1c0.2,0.1,0.4,0.2,0.6,0.3c0.2,0.1,0.2,0.3,0,0.4c-0.1,0-0.2,0.1-0.3,0.1c-0.3,0-0.7,0-1-0.1
	c-0.3-0.1-0.5-0.1-0.8-0.1c-0.7,0-1.3,0.2-1.9,0.4c-0.1,0-0.3,0.1-0.3,0.3c0,0.2,0.1,0.3,0.2,0.3c0.1,0.1,0.2,0.1,0.3,0.1
	c0.1,0,0.2,0,0.4,0c0.5,0,1.1,0,1.6,0c0.2,0,0.3,0.1,0.2,0.3c-0.1,0.2-0.2,0.5-0.3,0.7c-0.1,0.3-0.4,0.4-0.7,0.4c-0.5,0-1,0-1.5-0.1
	c-0.5,0-0.9-0.1-1.3-0.2c-0.3-0.1-0.6,0-0.8,0.2c-0.2,0.2-0.4,0.2-0.6,0.2c-0.1,0-0.3-0.1-0.4-0.1c-0.5-0.1-1-0.3-1.5-0.4
	c-0.1,0-0.1,0-0.2-0.1c-0.2-0.1-0.2-0.2-0.2-0.4c0,0,0-0.1,0-0.1c0-0.2,0-0.2-0.2-0.3c-0.1,0-0.3-0.1-0.4-0.1c-0.4,0-0.8,0-1.2,0.1
	c-0.7,0.1-1.4,0.2-2.1,0.2c-0.7,0-1.4,0.3-2,0.6c-0.1,0.1-0.2,0.1-0.2,0.3c0,0.3-0.1,0.4-0.3,0.6c-0.1,0.1-0.3,0.2-0.5,0.3
	c-0.3,0.2-0.7,0.4-0.9,0.7c-0.3,0.3-0.5,0.7-0.4,1.2c0.1,0.2,0,0.5-0.1,0.7c-0.1,0.2-0.1,0.2,0.1,0.4c0.1,0.1,0.3,0.2,0.4,0.4
	c0.2,0.2,0.5,0.4,0.7,0.7c0.2,0.2,0.4,0.4,0.6,0.5c0.4,0.2,0.9,0.3,1.4,0.2c0.4-0.1,0.7,0,1.1-0.1c0.5,0,0.9-0.1,1.4-0.2
	c0.4-0.1,0.7-0.1,1.1,0.2c0.2,0.1,0.3,0.1,0.5,0.1c0.1,0,0.3,0,0.4,0c0.3,0,0.4,0.2,0.4,0.4c0,0.3,0,0.5,0,0.8c0,0.1,0,0.2,0.1,0.3
	c0.4,0.2,0.6,0.6,0.8,0.9c0.1,0.1,0.1,0.2,0.2,0.3c0.2,0.3,0.1,0.6-0.1,0.9c-0.1,0.1-0.1,0.2-0.2,0.3c-0.2,0.4-0.2,0.6,0.1,1
	c0.2,0.2,0.2,0.4,0.3,0.6c0.1,0.3,0.2,0.5,0.3,0.8c0.2,0.4,0.5,0.8,0.8,1.1c0.1,0.2,0.3,0.3,0.2,0.5c0,0.1,0.1,0.2,0.2,0.3
	c0.1,0,0.2,0,0.3,0c0.7,0,1.4-0.1,2-0.2c0.4-0.1,0.8-0.3,1.1-0.5c0.3-0.2,0.5-0.4,0.6-0.7c0.1-0.4,0.3-0.6,0.7-0.7
	c0.3-0.1,0.3-0.3,0.2-0.6c-0.1-0.2-0.1-0.5,0.2-0.6c0.2-0.1,0.4-0.2,0.7-0.3c0.2-0.1,0.3-0.2,0.5-0.3c0.3-0.2,0.4-0.4,0.3-0.7
	c-0.1-0.2-0.1-0.4-0.2-0.6c-0.4-0.6-0.3-1.1,0.3-1.5c0.4-0.3,0.7-0.6,1.2-0.7C64,21,64,21,64.1,21c0.8-0.5,1.4-1.1,1.9-1.9
	c0,0,0-0.1,0.1-0.2c-0.2,0-0.4,0-0.6,0.1c-0.4,0-0.7,0.1-1.1,0.1c-0.3,0-0.5-0.1-0.7-0.3c-0.1-0.1-0.3-0.2-0.4-0.4
	c-0.4-0.3-0.8-0.6-1.1-0.9c-0.1-0.1-0.2-0.2-0.2-0.4c0-0.2-0.1-0.5-0.3-0.6c-0.3-0.3-0.6-0.7-0.9-1c0-0.1-0.1-0.1-0.1-0.2
	c0,0,0-0.1,0-0.2c0,0,0.1,0,0.2,0c0.1,0,0.2,0,0.4,0c0.2,0,0.4,0.1,0.5,0.2c0.2,0.3,0.4,0.5,0.7,0.8c0.1,0.1,0.3,0.3,0.4,0.5
	c0.1,0.2,0.2,0.4,0.4,0.5c0.4,0.2,0.7,0.6,0.7,1.1c0,0.1,0.1,0.2,0.2,0.2c0.1,0,0.2,0,0.3,0c0.3-0.1,0.6-0.1,0.8-0.2
	c0.6-0.2,1.2-0.3,1.8-0.5c0.4-0.1,0.8-0.3,1.2-0.6c0.2-0.1,0.4-0.3,0.6-0.5c-0.1-0.1-0.2-0.1-0.3-0.2c-0.2-0.1-0.4-0.2-0.6-0.3
	c-0.2-0.2-0.3-0.2-0.5-0.1c-0.2,0.1-0.5,0.2-0.7,0.2c-0.2,0-0.3,0-0.5-0.1c-0.1-0.1-0.2-0.2-0.3-0.3c-0.2-0.2-0.4-0.4-0.6-0.6
	c-0.2-0.2-0.1-0.3,0.1-0.3c0.3,0,0.5,0,0.7,0.2c0.2,0.2,0.4,0.3,0.7,0.3c0.4,0.1,0.8,0.1,1.2,0.2c0.6,0.2,1.3,0.3,1.9,0.2
	c0.4,0,0.7,0.1,1,0.2c0.2,0.1,0.4,0.2,0.7,0.3c0.1,0,0.2,0.1,0.2,0.1c0,0.3,0,0.3,0.2,0.3C72.1,16.7,72.2,16.7,72.4,16.7z
	 M92.1,28.5c0.3,0.1,0.5,0.3,0.6,0.5c0.2,0.3,0.6,0.5,1,0.4c0.1,0,0.2,0,0.3,0c0.2,0,0.5,0,0.7,0.1c0,0,0.1,0,0.2,0
	c0.3-0.1,0.6-0.2,0.8-0.3c0.2-0.1,0.3-0.2,0.3-0.4c0-0.1,0.1-0.2,0.1-0.3c0.5-0.5,0.6-1.1,0.7-1.8c0-0.3,0-0.3-0.2-0.4
	c-0.2-0.1-0.4-0.1-0.5-0.3c-0.3-0.3-0.6-0.5-0.9-0.7c-0.2-0.2-0.4-0.4-0.5-0.7c0-0.1-0.1-0.2-0.2-0.3c-0.2-0.2-0.4-0.5-0.5-0.7
	c-0.1-0.1-0.2-0.1-0.3,0c-0.1,0.1-0.1,0.2-0.1,0.3c-0.1,0.2-0.2,0.5-0.3,0.7C93,25,92.9,25.1,92.6,25c-0.3-0.1-0.6-0.3-0.9-0.4
	c-0.3-0.1-0.3-0.3-0.1-0.6c0-0.1,0.1-0.1,0.2-0.2c-0.4-0.1-0.7-0.2-1.1-0.2c-0.3,0.1-0.7,0.2-0.8,0.5c-0.1,0.3-0.3,0.4-0.6,0.3
	c-0.1,0-0.1,0-0.2-0.1c-0.3-0.1-0.6-0.1-0.8,0.1c-0.1,0.1-0.3,0.2-0.5,0.3c-0.1,0.1-0.2,0.1-0.2,0.2c-0.1,0.2-0.3,0.3-0.5,0.4
	c-0.2,0.1-0.5,0.2-0.7,0.2c-0.4,0.1-0.8,0.2-1.2,0.3c-0.4,0.1-0.4,0.2-0.2,0.5c0.1,0.2,0.1,0.3-0.2,0.3c0,0,0,0,0,0c0,0,0,0,0,0
	c0,0,0,0.1,0.1,0.1c0.3,0.4,0.5,0.8,0.6,1.3c0,0.3,0.4,0.6,0.7,0.4c0.2-0.1,0.5-0.1,0.7-0.2c0.6-0.1,1.2-0.3,1.8-0.4
	c0.4-0.1,0.9-0.2,1.3-0.2c0.5,0,0.9,0.1,1.3,0.5c0.3,0.2,0.3,0.2,0.6,0c0.1-0.1,0.2-0.2,0.3-0.1C92.2,28.3,92.1,28.4,92.1,28.5z
	 M86.4,20.3c-0.3-0.3-0.5-0.3-0.9-0.1c-0.5,0.3-1,0.5-1.5,0.7c-0.1,0.1-0.3,0.1-0.4,0.2c-0.1,0.1-0.2,0.1-0.1,0.3
	c0.1,0.2,0.2,0.4,0.5,0.5c0.2,0.1,0.3,0.1,0.5,0.2c0.3,0.1,0.7,0.1,1,0c0.1,0,0.2,0,0.2-0.1c0-0.3,0.2-0.5,0.4-0.6
	c0.3-0.2,0.3-0.3,0-0.5c-0.1-0.1-0.1-0.2,0-0.3C86.2,20.4,86.3,20.3,86.4,20.3z M92.3,22.8c0.1,0,0.1,0,0.1,0.1
	c0.3,0.1,0.6,0.1,0.9,0.2c0.2,0,0.4,0,0.6-0.1c0.3-0.2,0.6-0.2,0.9,0.1c0,0,0.1,0.1,0.1,0.1c0.2,0.1,0.5,0.2,0.7,0.2
	c-0.1-0.1-0.2-0.1-0.3-0.2c-0.1,0-0.2-0.1-0.2-0.2c-0.1-0.3-0.3-0.4-0.5-0.5c-0.7-0.3-1.4-0.5-2.2-0.6c-0.3-0.1-0.5-0.1-0.8,0.1
	c-0.2,0.1-0.4,0.1-0.5-0.1c0,0-0.1-0.1-0.1-0.1c-0.2-0.1-0.3-0.2-0.5-0.1c0.2,0.2,0.2,0.2,0.2,0.4c0.2,0,0.3,0,0.5,0.1
	c0.4,0,0.8,0.2,1.1,0.4C92.4,22.5,92.5,22.6,92.3,22.8C92.3,22.7,92.3,22.8,92.3,22.8z M89.6,14.1c0.1,0.2,0.3,0.3,0.3,0.5
	c0,0,0.1,0.1,0.1,0.1c0.2,0,0.3,0,0.4-0.2c0.2-0.2,0.4-0.3,0.7-0.3c0.6-0.1,1.2-0.3,1.8-0.3c0.1,0,0.2,0,0.2-0.1
	c0.1-0.3,0.3-0.6,0.4-0.9c0.1-0.1,0-0.2,0-0.3c-0.1-0.1-0.2-0.1-0.4-0.1c-0.1,0-0.2,0.1-0.2,0.2c0,0.2-0.1,0.2-0.3,0.3
	c-0.4,0.3-0.9,0.4-1.3,0.6c-0.4,0.1-0.8,0.2-1.3,0.3C89.8,14,89.7,14,89.6,14.1z M50.9,9.8c-0.1-0.1-0.3-0.2-0.4-0.4
	c-0.2-0.2-0.4-0.4-0.6-0.5c-0.1,0-0.2-0.1-0.2-0.2c0-0.1,0-0.2,0-0.3c-0.1,0-0.2-0.1-0.2-0.1c0-0.1,0-0.2,0-0.3
	c-0.2,0.1-0.3,0.2-0.4,0.3c-0.2,0.2-0.2,0.4,0,0.5C49.1,9,49.3,9,49.4,9.1c0.2,0.1,0.2,0.3,0,0.4c-0.1,0.1-0.2,0.1-0.3,0.2
	c0.1,0.1,0.2,0.1,0.4,0.2c-0.1,0.1-0.2,0.2-0.3,0.3c0.5,0,0.9-0.1,1.3-0.1C50.7,10,50.8,10,50.9,9.8z M82.6,21.8
	c-0.1,0-0.2-0.1-0.3-0.1c-0.2,0-0.5-0.1-0.6-0.3c-0.1-0.1-0.1-0.1-0.2-0.2c-0.4-0.3-0.8-0.5-1.2-0.8c-0.2-0.1-0.4-0.1-0.5-0.1
	c0.4,0.4,0.9,0.9,1.3,1.3c0.3,0.3,0.6,0.5,0.9,0.6c0.2,0.1,0.3,0.1,0.3,0C82.4,22.1,82.5,22,82.6,21.8z M92.8,12
	c0.1,0.2,0.2,0.3,0.4,0.2c0.4-0.1,0.7-0.2,1-0.3c0.1,0,0.2-0.1,0.2-0.2c-0.1,0-0.1,0-0.2,0c-0.2-0.1-0.5-0.1-0.7-0.2
	c-0.1,0-0.3-0.1-0.3,0.1C93.2,11.8,93,11.9,92.8,12z M93.4,9.7c0.2,0.3,0.2,0.6,0.2,1c0,0.1,0,0.2,0,0.3c0,0.2,0.1,0.2,0.3,0.1
	c0-0.1-0.1-0.1-0.1-0.2c-0.1-0.2,0-0.3,0.1-0.3c0.1,0,0.1,0,0.2-0.1c-0.2-0.3-0.3-0.6-0.3-0.9c0-0.1,0-0.1,0-0.2c0,0,0-0.1-0.1-0.1
	c0,0-0.1,0-0.1,0.1C93.6,9.4,93.5,9.6,93.4,9.7z M47.6,9.8c0.3,0.1,0.9-0.1,1.1-0.3c0.1-0.1,0.1-0.3-0.1-0.3c-0.2-0.1-0.3-0.1-0.5,0
	C47.8,9.3,47.6,9.5,47.6,9.8z M82.6,22.6c0.2,0.2,1.9,0.4,2.2,0.4c-0.2-0.2-0.4-0.2-0.6-0.2c-0.5-0.1-0.9-0.1-1.4-0.1
	C82.7,22.5,82.6,22.6,82.6,22.6z M81.5,22.1c0,0.2,0,0.4,0,0.5c0.3,0,0.5,0.1,0.7,0.1c0-0.1,0-0.2,0-0.3
	C82,22.4,81.7,22.3,81.5,22.1z M92.8,11.5c0.1,0.1,0.1,0.2,0.2,0.3c0.2-0.1,0.2-0.3,0.3-0.4c-0.1,0-0.2,0-0.3,0
	C92.9,11.4,92.8,11.5,92.8,11.5z M92,11.5c-0.1,0.2-0.1,0.4-0.1,0.8c0,0,0.1-0.1,0.1-0.1C92,12,92.1,11.8,92,11.5z M49,9.2
	c0.1,0.1,0.1,0.1,0.2,0.1c0,0,0.1,0.1,0.1,0.1c0,0,0.1-0.1,0.1-0.1c0,0,0-0.1-0.1-0.1c-0.1,0-0.1-0.1-0.2-0.1
	C49.1,9.1,49,9.2,49,9.2z M81,21.8c-0.1-0.1-0.2-0.1-0.2-0.2C80.8,21.8,80.9,21.8,81,21.8z"/>
<path d="M28.5,36c-0.1-0.2-0.3-0.3-0.5-0.3c-0.1,0-0.1,0-0.2-0.1c-0.2-0.1-0.2-0.1-0.1-0.3c0,0,0-0.1,0-0.1c0.1-0.3,0.1-0.3,0.2-0.6
	c-0.1-0.1-0.2-0.2-0.4-0.3c-0.1,0-0.2-0.1-0.2-0.2c0-0.1,0.1-0.1,0.3-0.2c0-0.2,0-0.4,0-0.7c0-0.2-0.2-0.2-0.3-0.3c0-0.3,0-0.6,0-1
	c0-0.3,0-0.6,0-0.9c0-0.2,0.1-0.3,0.3-0.3c0.1,0,0.1,0,0.2,0c0-0.1,0-0.2,0-0.3c0-0.5,0-0.9,0.1-1.4c0-0.2,0.1-0.3,0.2-0.5
	c0.2-0.3,0.4-0.5,0.5-0.9c0-0.1,0-0.1,0-0.2c-0.2-0.1-0.5-0.2-0.7-0.4c-0.6-0.3-1-0.7-1.3-1.3c-0.2-0.3-0.4-0.7-0.6-1
	c-0.1-0.1-0.2-0.3-0.1-0.4c0-0.6,0-1.3,0-1.9c0-0.1,0-0.2,0.1-0.4c0,0-0.1,0-0.1-0.1c-0.3-0.1-0.6-0.1-0.9-0.2
	c-0.2-0.1-0.4-0.2-0.5-0.4c-0.1-0.2-0.3-0.2-0.4-0.3c-0.3-0.1-0.7-0.2-1-0.3c-0.6-0.2-1.3-0.3-2-0.4c-0.4-0.1-0.8-0.1-1.2-0.3
	c-0.3-0.1-0.6-0.2-0.9-0.3c-0.2-0.1-0.3-0.2-0.3-0.4c0-0.1,0-0.1-0.1-0.1c-0.3-0.2-0.6-0.4-1-0.7c0,0.2,0,0.4,0,0.5
	c-0.3,0-0.5-0.1-0.8-0.2c-0.4-0.3-0.8-0.7-1.1-1.2c-0.2-0.4-0.5-0.6-0.9-0.7c-0.4-0.2-0.7-0.4-1-0.7c-0.1-0.1-0.2-0.2-0.3-0.2
	c-0.2-0.1-0.3-0.3-0.3-0.5c0-0.1,0-0.3,0-0.4c0-0.5,0-0.9,0-1.4c0-0.1,0-0.2,0-0.2c-0.2-0.1-0.4-0.2-0.6-0.2c-0.2,0-0.3,0-0.4-0.3
	c0,0-0.1-0.1-0.1-0.1c-0.3-0.1-0.5-0.3-0.5-0.6c0-0.1-0.1-0.1-0.1-0.2c-0.3-0.2-0.5-0.3-0.8-0.5c-0.4-0.2-0.9-0.3-1.3-0.4
	c-0.7-0.1-1.5-0.2-2.2-0.3c-0.2,0-0.3-0.1-0.5-0.1c-0.2,0-0.3,0-0.5,0.1c-0.1,0.1-0.1,0.1-0.2,0.2c-0.3,0.2-0.5,0.1-0.6-0.3
	C5,11,4.9,11,4.8,11.1c-0.3,0.4-0.7,0.6-1.1,0.8c-0.5,0.2-1.1,0.4-1.6,0.5c-0.1,0-0.2,0-0.3,0c0-0.3,0-0.6,0-0.8
	c0-0.3,0-0.3-0.2-0.3c-0.1,0-0.2-0.1-0.3-0.1C1,11,0.9,10.9,0.9,10.7c0-0.2,0-0.4,0-0.6C0.8,10,0.7,10,0.6,9.9
	C0.4,9.8,0.4,9.7,0.4,9.5c0-0.6,0-1.2,0-1.8c0-0.1,0-0.2,0.1-0.3c0,0,0-0.1-0.1-0.1C0.5,7.2,0.6,7.1,0.7,7c0-0.1,0-0.2,0-0.4
	C0.4,6.5,0.2,6.4,0,6.2C0,6.1,0,6.1,0,6c0.3-0.1,0.7-0.2,1-0.2c0.1,0,0.3,0,0.4,0.1c0,0,0.1,0,0.1,0C1.5,5.9,1.5,5.9,1.4,5.8
	C1.1,5.7,0.8,5.6,0.6,5.5c-0.1,0-0.2-0.1-0.2-0.2c0-0.2,0.2-0.1,0.3-0.2C0.9,5,1.2,4.9,1.4,4.9C1.7,4.8,2,4.6,2.3,4.5
	C3,4.4,3.6,4.4,4.2,4.5C4.6,4.5,5,4.6,5.4,4.6c0.9,0.1,1.8,0.1,2.7,0.3C8.5,5,8.9,5,9.4,5.1c0.2,0,0.3,0.1,0.4,0.3
	c0,0,0,0.1,0.1,0.1c0,0,0,0,0.1-0.1c0-0.1-0.1-0.1-0.1-0.2C9.7,5.1,9.8,5.1,9.9,5C10,5,10.1,5,10.2,4.9c0.2,0,0.4-0.1,0.6-0.1
	c0.1,0,0.1,0,0.2,0C11,4.9,11,4.9,11,5c0.2-0.1,0.3-0.1,0.5-0.2c0.1,0,0.2-0.1,0.3-0.1c0.3-0.1,0.5,0,0.8,0c0.3,0,0.6,0.1,0.9,0
	c0.3-0.1,0.7,0,1,0c0.3,0,0.6,0,0.9-0.1c-0.3-0.1-0.6-0.1-0.6-0.5c-0.1,0-0.1,0-0.2,0c-0.2,0.1-0.5,0.2-0.7,0.3
	c-0.2,0.1-0.5,0.1-0.7,0c-0.2,0-0.3-0.1-0.4-0.3C13,4,13.1,3.9,13.2,3.7c0.1-0.2,0.2-0.3,0.4-0.3c0.1,0,0.3,0,0.4,0
	c0.2,0,0.3,0,0.5,0c0.4,0,0.9,0.1,1.2,0.3C16.1,4,16.3,4,16.7,3.9c0.3-0.1,0.6,0,0.9,0.1c0.1,0,0.2,0.1,0.2,0.1
	c0.1-0.3,0.5-0.3,0.7-0.5c0,0,0.1,0,0.1,0c0.2,0,0.2,0.1,0.1,0.3c-0.1,0.1,0,0.2,0,0.3c0.1,0.1,0.2,0.2,0.3,0.2
	c0.2,0.1,0.4,0.1,0.6,0.2c0.1,0,0.2,0.1,0.3,0.1c-0.1,0.1-0.2,0.2-0.3,0.3c0,0.1,0,0.1,0.1,0.2c0.2,0,0.3-0.1,0.5-0.1
	c0.2-0.1,0.5-0.2,0.7-0.3c0,0,0.1,0,0.2,0c0.1,0,0.1,0,0.3,0.1c0-0.1,0-0.2,0-0.3c0-0.2,0-0.2-0.2-0.2c-0.2,0.1-0.4,0.1-0.7,0
	c-0.4-0.2-0.8-0.3-1.2-0.5c0.1,0,0.3,0,0.4,0c0.2,0,0.3,0,0.5-0.2c0.1-0.1,0.2-0.1,0.3-0.1c0.1,0,0.3,0,0.4,0c0.3,0,0.3,0,0.3,0.3
	c0.2,0.2,0.2,0.2,0.4,0.1c0-0.3,0-0.7,0-1c-0.1,0-0.2,0-0.2-0.1c0,0-0.1-0.1-0.1-0.1c0,0,0.1-0.1,0.1-0.1c0.1,0,0.2,0,0.3,0
	c0.1,0,0.3,0,0.4,0c0.2,0,0.4-0.1,0.7-0.1c0-0.1,0-0.2-0.1-0.2c-0.1,0-0.3-0.1-0.3-0.2c0-0.1,0-0.2-0.1-0.3c-0.2,0-0.3-0.1-0.5-0.1
	c-0.1,0-0.2-0.1-0.2-0.2c0-0.1,0.1-0.2,0.2-0.2c0.2-0.1,0.4-0.2,0.6-0.2c0.2-0.1,0.4-0.1,0.6,0c0.2,0.1,0.4,0.1,0.7,0.2
	c0.2,0.1,0.4,0.1,0.5,0.3c0.2,0.2,0.5,0.3,0.7,0.2c-0.1,0-0.2-0.1-0.3-0.1c-0.1,0-0.2-0.1-0.2-0.2c0-0.1,0.1-0.2,0.2-0.2
	c0.1,0,0.2,0,0.3,0c0.1,0,0.3,0,0.4,0c-0.1,0-0.1,0-0.2,0c-0.5-0.1-1-0.1-1.5-0.2c-0.3,0-0.6-0.1-0.8-0.3c0.1-0.1,0.2-0.1,0.3-0.1
	c0.2,0,0.5,0,0.7-0.1c0.4-0.1,0.9-0.1,1.3-0.2c0.1,0,0.2,0,0.3-0.1c0.1-0.1,0.2-0.1,0.3-0.2C25.9,0.1,26,0,26,0c1.3,0,2.5,0,3.8,0
	c0,0,0.1,0.1,0.1,0.1c0.3,0.1,0.6,0.1,0.9,0.1c0.2,0,0.5,0,0.7,0.1c0.1,0,0.2,0.1,0.2,0.2c0,0.1-0.1,0.1-0.2,0.2
	c-0.1,0-0.2,0-0.2,0.1c-0.2,0-0.4,0.1-0.6,0.1c0,0.2,0,0.3-0.2,0.3c-0.1,0-0.3,0.1-0.4,0.1c-0.2,0.1-0.4,0.1-0.6,0.2
	c0.5,0.2,0.9,0.3,1.4,0.2c-0.2,0-0.3,0-0.4,0c-0.1,0-0.2,0-0.3-0.1c0-0.2,0.1-0.2,0.2-0.2c0.2,0,0.3-0.1,0.5-0.1
	c0.2,0,0.5-0.1,0.7-0.1c0.2,0,0.3-0.1,0.4-0.2c0.1-0.1,0.2-0.1,0.2-0.2c0.2,0,0.3,0,0.5-0.1c0.2,0,0.4,0,0.6,0
	c0.4,0,0.8-0.1,1.2-0.1c0,0,0.1,0,0.1,0c0.3-0.1,0.7-0.1,1-0.1c0.3,0,0.5,0,0.8,0c0.1,0,0.2,0,0.3,0c-0.1-0.1-0.2-0.1-0.3-0.1
	c-0.1,0-0.2,0.1-0.3,0c-0.1,0-0.1-0.1-0.2-0.1c0,0,0-0.1,0-0.2c0,0,0.1-0.1,0.1-0.1c1.6,0,3.1,0,4.7,0c-0.1,0.1-0.1,0.2-0.2,0.2
	c0.5,0,1,0,1.5-0.1c0.2,0,0.3,0,0.5,0c0.1,0,0.3,0,0.3,0.1c0.1,0.1,0.2,0.1,0.3,0.1c0.3,0,0.7,0,1,0.1c-0.5,0.2-0.9,0.2-1.3,0.3
	c0.1,0,0.3,0,0.4,0c0.2,0,0.4,0,0.5,0.1c0,0,0.1,0,0.2,0c0.4,0,0.7,0,1.1,0c0.2,0,0.4,0,0.6-0.1c0.5-0.1,0.9,0,1.4,0.1
	c0,0,0.1,0,0.1,0.1c-0.7,0.2-1.4,0.4-2.1,0.5c0,0.1,0,0.2,0,0.2c0,0.1-0.1,0.1-0.2,0.2c-0.1,0.1-0.3,0.1-0.4,0.3
	c0.1,0,0.2,0.1,0.3,0.1c0.1,0,0.3,0,0.4,0c0.4-0.1,0.8-0.1,1.2,0c0,0.2,0,0.3,0,0.5c0,0.2,0,0.3,0,0.5c0,0.2,0,0.3,0,0.5
	c0,0.2,0,0.3,0,0.5c0,0.2,0,0.4,0,0.6c-0.6,0.1-1.2,0.3-1.8,0.4c0,0.2-0.1,0.3-0.1,0.5c0.2,0,0.4-0.1,0.5-0.1c0.4,0,0.7,0,1.1,0.1
	c0.1,0,0.2,0.1,0.3,0.2c0.1,0.1,0.1,0.2-0.1,0.3c-0.1,0-0.1,0.1-0.2,0.1c-0.5,0.1-0.9,0.2-1.4,0.3c-0.1,0-0.2,0-0.3,0
	c0,0.1,0,0.2,0,0.3c0.3,0,0.6,0,0.9,0.1c0.1,0,0.3,0.1,0.4,0.1c0.1,0,0.2,0.1,0.1,0.3c0,0.1,0,0.2,0,0.3c0,0.7,0,1.3,0,2
	c0,0.2,0,0.2-0.2,0.3c-0.3,0.1-0.6,0.1-0.9,0.2c-0.5,0.1-1,0-1.5-0.2C43.1,10,43,9.9,43,9.8c0-0.3,0-0.7,0-1c-0.1,0-0.2,0-0.2,0
	c-0.6,0.1-1.2,0.2-1.8,0.2c-0.3,0-0.6,0.1-0.9,0.2c-0.2,0-0.3,0.1-0.5,0.3c-0.1,0.1-0.3,0.2-0.4,0.2c-0.3,0.1-0.6,0.1-0.9,0.2
	c-0.3,0.1-0.5,0.2-0.7,0.4c-0.1,0.1-0.3,0.3-0.3,0.5c0,0.2-0.2,0.3-0.4,0.4c-0.1,0-0.2,0-0.3,0c-0.3,0-0.5-0.1-0.8-0.1
	c-0.6-0.1-1-0.5-1.3-0.9c-0.1-0.1-0.2-0.2-0.1-0.4c0-0.1,0-0.1,0-0.2c-0.1,0-0.1-0.1-0.2-0.1c0,0,0-0.1,0-0.1c0-0.2,0-0.3,0-0.5
	c0-0.1,0-0.2-0.1-0.3c0,0,0-0.1,0-0.1c0-0.1,0-0.1,0-0.2c-0.1,0-0.1,0-0.1,0c-0.1,0-0.2,0-0.2-0.1c-0.1-0.3-0.4-0.5-0.6-0.7
	c-0.1-0.1-0.3-0.2-0.4-0.3c-0.2-0.1-0.3-0.2-0.5-0.1c-0.2,0-0.3,0-0.5,0c0,0.1,0.1,0.1,0.1,0.1c-0.1,0.1,0,0.3,0,0.4
	c0,0.2,0,0.3,0,0.5c0,0.2,0,0.3,0,0.5c0,0.1,0,0.2,0.2,0.3c0.2,0.2,0.4,0.2,0.6,0.3c0.1,0,0.2,0,0.3,0.1C33,9.1,33,9.1,32.9,9.4
	c0.1,0,0.2,0,0.4,0c0.2,0,0.3,0.1,0.4,0.3c0,0.2-0.1,0.3-0.3,0.4c-0.2,0-0.3,0.1-0.5,0.1c-0.1,0-0.3,0.1-0.5,0.1
	c0.2,0.1,0.4,0.1,0.6,0c0.1-0.1,0.3-0.1,0.4-0.1c0.1,0,0.2,0,0.3,0.1c0,0.1,0.1,0.1,0.2,0.1c0.3,0.1,0.6,0.3,0.7,0.6
	c0,0-0.1,0.1-0.1,0.1c-0.1,0-0.2,0-0.3,0.1c-0.2,0-0.3,0-0.5-0.1c-0.1-0.1-0.2-0.1-0.3,0c0,0.2,0.1,0.3,0.3,0.4c0,0,0.1,0,0.1,0
	c0.2,0.1,0.4,0.1,0.4,0.3c0,0,0,0.1,0.1,0.1c0,0-0.1,0.1-0.1,0.1c0,0,0,0,0,0c0.2,0.3,0.1,0.6,0.1,0.9c0,0.4,0,0.8,0,1.2
	c0,0.1,0,0.1,0,0.2c-0.1,0-0.2,0-0.3,0.1c-0.2,0-0.3,0.1-0.5-0.1c0,0-0.1,0-0.2,0c-0.1,0-0.3,0-0.4,0c-0.1,0-0.2,0-0.3,0
	c-0.1,0-0.2-0.1-0.2-0.3c0-0.1,0-0.3,0-0.4c-0.1-0.1-0.2,0-0.2,0.1c0,0.2,0,0.5,0,0.7c0,0.1,0,0.2-0.1,0.2c-0.4,0.1-0.9,0.3-1.3,0.4
	c-0.1,0-0.1,0-0.2,0c0-0.1,0-0.2-0.1-0.3c-0.4,0.1-0.8,0.2-1.2,0.3C29,15,29,15.1,29,15.3c0,0.1-0.1,0.2-0.2,0.2c-0.1,0-0.1,0-0.2,0
	c-0.4,0-0.6,0.2-0.9,0.5c-0.1,0.1-0.1,0.1-0.2,0.1c-0.1,0-0.1,0-0.2,0c0,0.1,0,0.2,0,0.2c0,0.2-0.1,0.4-0.3,0.5
	c-0.2,0.1-0.4,0.2-0.6,0.3c-0.1,0.1-0.2,0.1-0.3,0.2c0,0.4,0,0.8,0,1.2c0,0.1,0.1,0.3-0.1,0.3c-0.2,0.1-0.4,0-0.5-0.1
	c-0.1-0.1-0.1-0.2-0.2-0.2c-0.1,0.3-0.1,0.5,0.2,0.6c0.2,0.1,0.5,0.2,0.8,0.1c0.2-0.1,0.3,0,0.5,0c0.1,0,0.1,0,0.2,0.1
	c0.2,0.1,0.4,0,0.5-0.1c0.1-0.1,0.3-0.2,0.5-0.3c0.2-0.1,0.4-0.1,0.6-0.2c0.2-0.1,0.2,0,0.3,0.2c0,0,0,0,0,0.1c0,0,0.1,0,0.1-0.1
	c0.2-0.2,0.4-0.2,0.7-0.1c0.5,0.2,0.9,0.2,1.4,0.2c0.4,0,0.8,0.1,1.1,0.4c0.2,0.1,0.4,0.3,0.6,0.4c0.4,0.2,0.8,0.3,1.2,0.3
	c0.4,0,0.8,0.2,1.1,0.5c0.1,0.1,0.2,0.2,0.2,0.3c0.1,0.2,0.1,0.2-0.1,0.4c-0.1,0-0.1,0.1-0.2,0.1c0,0,0.1,0,0.1,0c0.1,0,0.1,0,0.2,0
	c0.1,0,0.2,0,0.3,0.1c0,0.1,0,0.2,0,0.3c0,0,0.1,0,0.1-0.1c0.4-0.3,0.8-0.3,1.2,0c0.3,0.2,0.6,0.2,0.9,0.3c0.2,0,0.3,0,0.5,0
	c0.5,0,0.9,0.2,1.3,0.4c0.1,0.1,0.2,0.1,0.3,0.2c0.1,0.1,0.2,0.2,0.1,0.3c-0.1,0.2-0.2,0.3-0.3,0.5c-0.1,0.1-0.1,0.2-0.1,0.4
	c0,0.5,0,0.9,0,1.4c0,0.4-0.2,0.7-0.5,0.9c-0.1,0.1-0.2,0.1-0.2,0.2c-0.4,0.3-0.5,0.6-0.5,1.1c0,0.4-0.2,0.8-0.4,1.1
	c-0.1,0.2-0.3,0.3-0.5,0.3c-0.2,0.1-0.4,0.1-0.6,0.2c-0.5,0.1-0.9,0.3-1.3,0.5c-0.1,0.1-0.2,0.1-0.2,0.3c0,0.5-0.3,0.9-0.6,1.2
	c-0.3,0.2-0.6,0.4-0.9,0.6c-0.2,0.1-0.5,0.1-0.7,0.1c-0.1,0-0.2,0-0.3,0c0.1,0.1,0.1,0.1,0.2,0.2c0.2,0.2,0.2,0.5-0.1,0.6
	c-0.3,0.1-0.5,0.1-0.8,0.2c-0.1,0-0.3,0-0.4,0.1c-0.1,0-0.2,0.1-0.2,0.2c-0.1,0.2-0.2,0.2-0.4,0.2c-0.1,0-0.1,0-0.2,0
	c-0.1,0-0.2,0.1-0.1,0.2c0.1,0.2,0,0.3-0.1,0.5c-0.1,0.1-0.3,0.2-0.5,0.4c-0.2,0.2-0.2,0.3,0,0.4c0.3,0.2,0.3,0.2,0,0.5
	c-0.3,0.3-0.6,0.6-0.9,0.9c-0.1,0.1-0.3,0.3-0.4,0.4C28.6,36,28.6,36,28.5,36z M32,11.3c-0.2,0-0.4,0-0.6,0c-0.2,0-0.4-0.1-0.6-0.2
	c-0.1,0-0.1-0.1-0.1-0.2c0,0,0.1-0.1,0.1-0.1c0,0,0.1,0,0.1-0.1c-0.2-0.1-0.2-0.1-0.4,0c-0.3,0.1-0.6,0.2-0.9,0.3
	c-0.1,0-0.2,0.1-0.4,0.1c0.3-0.4,0.7-0.6,1.1-0.7c0.3-0.1,0.6-0.1,0.8-0.1c0.7,0,1.4-0.1,2-0.2c0.1,0,0.2-0.1,0.3-0.1
	c0.1-0.1,0.1-0.3,0-0.3c-0.1,0-0.2-0.1-0.2-0.1c-0.1,0-0.2,0-0.3,0c-0.2,0-0.4,0-0.6-0.1c0.2-0.1,0.4-0.2,0.6-0.3
	c-0.1,0-0.2-0.1-0.3-0.1c-0.4-0.1-0.8-0.3-1.1-0.7c-0.1-0.1-0.2-0.2-0.3-0.4c-0.1-0.2-0.2-0.2-0.5-0.1c-0.1,0-0.2,0.1-0.2,0.1
	c-0.3,0.1-0.6,0.2-0.9,0.1c-0.3-0.1-0.4-0.3-0.3-0.5c0,0,0,0,0-0.1c-0.3-0.1-0.6-0.3-0.9-0.4c-0.4-0.1-0.7-0.1-1.1,0
	c-0.2,0-0.3,0.1-0.3,0.3c0,0.3-0.1,0.5-0.1,0.8c0,0.1,0.1,0.2,0.1,0.3c0.1,0.1,0.1,0.3,0,0.4c-0.1,0.3-0.3,0.7-0.4,1
	c-0.1,0.2-0.2,0.3-0.5,0.3c-0.2-0.1-0.4-0.2-0.6-0.3c-0.2-0.1-0.3-0.3-0.2-0.5c0,0,0-0.1,0-0.2c-0.1,0-0.2,0-0.2-0.1
	c-0.3,0-0.6-0.1-0.9-0.1c-0.4-0.1-0.8-0.2-1.2-0.4c-0.3-0.2-0.6-0.4-0.9-0.5C21.7,8,21.7,7.8,22,7.5c0.3-0.3,0.7-0.5,1-0.7
	c0.1-0.1,0.2-0.1,0.3-0.1c0.1,0,0.3,0,0.4-0.1c0.1,0,0.2,0,0.3-0.2c-0.1-0.1-0.3,0-0.4-0.2c0.2,0,0.4,0,0.6,0c0.3,0,0.3,0.2,0.2,0.4
	c0,0.1-0.1,0.1-0.1,0.2c0.2,0.1,0.4,0.2,0.6,0c0.2-0.2,0.5-0.2,0.8-0.1c0.1,0,0.1,0,0.2,0c0-0.1-0.1-0.1-0.1-0.1
	c-0.2-0.1-0.4-0.1-0.6-0.2c-0.1,0-0.2-0.1-0.4-0.1c-0.1,0-0.2-0.1-0.2-0.2c0-0.1,0.1-0.1,0.2-0.1c0.2,0,0.5-0.1,0.7-0.1
	c0.1,0,0.2-0.1,0.3-0.1c0-0.1-0.1-0.3-0.1-0.4c0-0.2-0.1-0.3-0.3-0.3c-0.1,0-0.1,0-0.2,0c-0.3,0-0.3,0-0.4,0.3
	c-0.1,0.2-0.2,0.3-0.5,0.3c-0.2,0-0.3-0.1-0.3-0.3c0,0,0-0.1-0.1-0.1c-0.1-0.2-0.2-0.2-0.4-0.1C23.2,5.3,23,5.3,22.8,5
	c-0.1-0.1-0.2-0.2-0.3-0.3c0-0.1-0.1-0.1-0.1-0.2c-0.2-0.1-0.5-0.1-0.8,0c-0.1,0-0.1,0.1-0.1,0.2c0,0.1,0,0.1,0.1,0.2
	c-0.1,0.1-0.2,0.1-0.3,0.1C21.2,5,21.1,5,21,5c-0.1,0-0.3,0-0.4,0.1c0,0,0,0,0,0.1c0,0,0,0,0,0c0.1,0.1,0.1,0.2-0.1,0.3
	c-0.1,0-0.3,0.1-0.4,0.1c-0.6,0.1-1.1,0-1.7-0.2c-0.3-0.1-0.6-0.1-0.9,0c0,0,0,0.1,0.1,0.1c0.1,0.1,0,0.3-0.1,0.4
	c-0.1,0.1-0.2,0.1-0.3,0c-0.2-0.2-0.5-0.2-0.8-0.2c-0.2,0-0.5,0-0.7,0c-0.3,0-0.3-0.1-0.3-0.3c-0.1,0-0.2,0-0.3,0
	c-0.3,0.1-0.6,0-1-0.1C14,5,13.6,5,13.2,5c-0.3,0-0.5,0-0.8-0.1c-0.3-0.1-0.6,0-0.9,0.1c-0.2,0.1-0.4,0.1-0.6,0.2
	c-0.1,0-0.1,0-0.2,0c0,0,0-0.1-0.1-0.2C10.4,5,10.1,5,9.9,5.2c0,0.1,0.1,0.2,0.1,0.3c0,0.1-0.1,0.2-0.2,0.1c0,0-0.1-0.1-0.1-0.1
	c0-0.2-0.2-0.3-0.4-0.3C8.9,5.1,8.5,5,8.1,5C7.4,4.9,6.7,4.8,6,4.8C5.3,4.7,4.6,4.7,3.9,4.6c-0.7-0.1-1.4,0-2,0.2
	C1.5,4.9,1.1,5.1,0.6,5.2c-0.1,0-0.1,0-0.2,0.1c0.3,0.2,0.7,0.4,1,0.5c0.1,0,0.1,0,0.2,0.1c0,0,0.1,0.1,0.1,0.1c0,0,0,0.1-0.1,0.1
	c-0.1,0-0.2,0-0.3,0C1.3,6.1,1.1,6,1,6C0.7,6,0.4,6,0.1,6.1c0.2,0.2,0.5,0.4,0.7,0.3c0.2,0,0.5,0,0.7-0.1c0.2,0,0.3,0,0.3,0.1
	c0,0.1,0,0.2-0.1,0.3c0,0-0.1,0-0.1,0.1C1.5,6.9,1.4,6.9,1.3,7C1.1,7,1,7,0.8,7.1c-0.2,0.1-0.2,0.3,0,0.5c0,0,0.1,0,0.1,0.1
	C1.6,7.8,2.2,8,2.9,8C3,8,3,8,3.1,8.1c0,0.1,0,0.2-0.1,0.2C2.9,8.5,2.7,8.5,2.6,8.6C2.5,8.6,2.4,8.7,2.3,8.7c0.3,0,0.5-0.1,0.7-0.2
	c0.6-0.2,1.2-0.5,1.6-1c0.1-0.1,0.3-0.3,0.5-0.1C5.1,7.5,5,7.6,5,7.7c0.3,0.1,0.5,0,0.6-0.2c0.2-0.2,0.3-0.3,0.6-0.1
	c0.1,0,0.2,0.1,0.3,0.1c0.6,0.1,1.2,0.2,1.8,0.3c0.8,0.1,1.6,0.3,2.3,0.8c0.1,0.1,0.3,0.2,0.4,0.3c0.1,0.1,0.2,0.1,0.2,0.2
	c0.1,0.3,0.2,0.5,0.5,0.6c0.1,0,0.2,0.1,0.2,0.2c0,0,0.1,0.1,0.1,0.1c0.1,0,0.1,0,0.2,0c0.5,0.1,0.9,0.3,1.2,0.6
	c0,0,0.1,0.1,0.1,0.2c0,0-0.1,0.1-0.2,0.1c-0.1,0-0.1,0-0.2,0c-0.1,0-0.1,0.1-0.1,0.1c0,0.4-0.1,0.9-0.1,1.3c0,0.2,0.1,0.4,0.3,0.5
	c0.2,0.1,0.3,0.3,0.4,0.4c0.1,0.1,0.2,0.2,0.2,0.2c0.3,0.2,0.6,0.4,0.9,0.5c0.2,0.1,0.4,0.2,0.5,0.4c0.2,0.3,0.4,0.5,0.6,0.8
	c0.2,0.3,0.5,0.5,0.8,0.7c0.1,0.1,0.3,0.2,0.5,0.2c-0.1-0.1-0.2-0.2-0.3-0.3c-0.3-0.3-0.6-0.7-0.9-1.1c-0.1-0.1-0.1-0.2,0.1-0.3
	c0.1,0,0.2,0,0.3,0.1c0.1,0.1,0.2,0.1,0.2,0.2c0.5,0.4,0.9,0.8,1.4,1.2c0.1,0.1,0.3,0.2,0.4,0.3c0.1,0.1,0.2,0.2,0.2,0.3
	c0,0.2,0.1,0.3,0.3,0.4c0.1,0.1,0.2,0.1,0.3,0.2c0.7,0.3,1.5,0.5,2.3,0.6c0.9,0.1,1.7,0.4,2.6,0.6c0.2,0.1,0.4,0.1,0.5,0.3
	c0.1,0.2,0.3,0.3,0.4,0.4c0.2,0.1,0.5,0.1,0.7,0.2c0.3,0.1,0.5,0.1,0.8,0c0.2-0.1,0.4,0,0.5,0.1c0.3,0.4,0.4,0.8-0.1,1.2
	c-0.2,0.1-0.3,0.3-0.5,0.4c-0.2,0.2-0.3,0.4-0.1,0.6c0,0.1,0,0.2,0,0.2c-0.1,0-0.1,0.1-0.2,0.1c0.1,0.1,0.1,0.1,0.1,0.2
	c0.2,0.3,0.5,0.6,0.7,1c0.3,0.5,0.7,0.9,1.3,1.2c0.2,0.1,0.4,0.2,0.7,0.3c0.4,0.1,0.5,0.3,0.4,0.7c-0.1,0.7-0.1,1.4-0.2,2.1
	c0,0.5-0.2,1-0.6,1.3c-0.1,0.1-0.1,0.2-0.2,0.4c0,0.2-0.1,0.4-0.1,0.6c0,0.2,0,0.3,0.1,0.5c0.1,0.2,0.1,0.4,0,0.7
	c-0.1,0.2-0.1,0.2-0.4,0.2c-0.1,0-0.1,0-0.2,0.1c0.1,0.1,0.3,0.1,0.4,0.2c0.2,0.1,0.2,0.2,0.1,0.3C28,31.9,28,32,28,32.1
	c0,0.1,0,0.1,0,0.2c-0.1,0.2,0,0.2,0.1,0.3c0.1,0,0.2,0.1,0.3,0.1c0.1,0,0.2,0.1,0.2,0.1c0.2,0.2,0.2,0.2,0.4,0
	c0.2-0.1,0.3-0.3,0.5-0.5c0.3-0.3,0.6-0.5,0.9-0.8c0,0-0.1-0.1-0.1-0.1c-0.3-0.2-0.4-0.5,0-0.6c0.2-0.1,0.3-0.2,0.4-0.3
	c0.1-0.1,0.1-0.2,0-0.3c-0.1-0.2,0-0.3,0.2-0.4c0.1,0,0.1,0,0.2,0c0.1,0,0.3-0.1,0.4-0.2c0.1-0.2,0.3-0.2,0.5-0.2
	c0.2,0,0.3,0,0.5-0.1c0.1,0,0.3,0,0.4-0.1c0.4-0.2,0.5-0.2,0.1-0.6c-0.1-0.1-0.1-0.1-0.1-0.3c0.1,0,0.3,0,0.4,0.1
	c0.3,0.1,0.6,0,0.9-0.1c0.3-0.2,0.6-0.4,0.8-0.6c0.3-0.3,0.5-0.6,0.5-1c0-0.1,0.1-0.2,0.2-0.3c0.5-0.2,1-0.5,1.6-0.5
	c0.2,0,0.3-0.1,0.5-0.1c0.2-0.1,0.4-0.2,0.5-0.4c0.2-0.3,0.3-0.6,0.3-0.9c0-0.1,0-0.2,0-0.2c0-0.3,0.2-0.5,0.4-0.7
	c0.1-0.1,0.3-0.2,0.4-0.3c0.2-0.1,0.4-0.3,0.4-0.6c0-0.1,0-0.2-0.1-0.2c-0.5-0.3-1-0.6-1.7-0.6c-0.5,0-1-0.1-1.5-0.4
	c-0.2-0.1-0.5-0.1-0.7,0c-0.3,0.2-0.5,0.2-0.9,0.1c0.2-0.1,0.3-0.2,0.5-0.3c-0.3-0.1-0.6,0.1-0.9,0.2c0-0.4,0.4-0.4,0.6-0.6
	c0-0.2-0.1-0.3-0.2-0.4c-0.3-0.3-0.6-0.4-1.1-0.4c-0.6,0-1.1-0.2-1.6-0.6c-0.4-0.3-0.9-0.5-1.4-0.4c-0.4,0-0.8,0-1.1-0.2
	c-0.3-0.1-0.5-0.1-0.7,0.1c-0.1,0.1-0.2,0.1-0.3-0.1c0-0.1,0-0.1,0-0.2c-0.2,0.1-0.4,0.1-0.6,0.2c-0.2,0.1-0.4,0.2-0.6,0.4
	c-0.1,0.1-0.2,0.1-0.3,0.1c-0.1,0-0.3-0.1-0.4-0.1c-0.2-0.1-0.3-0.1-0.5,0c-0.3,0.1-0.6,0-0.9-0.1c-0.2-0.1-0.3-0.3-0.3-0.5
	c0-0.1,0-0.2,0.1-0.2c0-0.2,0-0.3-0.2-0.3c-0.1,0-0.2-0.1-0.4-0.1c-0.2,0-0.4,0-0.6,0c-0.3,0-0.4-0.2-0.2-0.5
	c0.1-0.1,0.2-0.3,0.2-0.4c0.1-0.2,0-0.3-0.2-0.3c-0.3,0-0.5,0-0.7,0.1c-0.1,0-0.1,0.1-0.1,0.2c-0.1,0.2-0.2,0.3-0.4,0.3
	c-0.3,0.1-0.7,0.1-1,0c-0.2-0.1-0.4-0.2-0.5-0.4c-0.2-0.4-0.3-0.7-0.2-1.1c0.1-0.2,0.1-0.4,0.3-0.5c0.3-0.2,0.7-0.3,1.1-0.3
	c0.3,0,0.6,0.1,0.8,0.1c0.1,0,0.2,0,0.3,0c0.1-0.3,0.1-0.3,0.3-0.3c0.4,0,0.8,0.1,1.2,0.1c0.1,0,0.3,0.1,0.3,0.2
	c0.1,0.2,0.2,0.4,0.3,0.5c0.1,0.2,0.3,0.3,0.6,0.1c0,0,0,0,0-0.1c-0.1-0.1-0.1-0.2-0.2-0.3c-0.3-0.4-0.3-0.8,0.2-1.2
	c0.2-0.1,0.4-0.2,0.5-0.3c0.2-0.1,0.3-0.2,0.5-0.3c0.2-0.1,0.2-0.2,0.1-0.5c0-0.1-0.1-0.2,0-0.2c0.1-0.1,0.2-0.1,0.2,0
	c0.1,0,0.2,0,0.3-0.1c0.2-0.3,0.5-0.5,0.9-0.5c0.1,0,0.2,0,0.3-0.1c0-0.1,0-0.1,0-0.1c0-0.3,0-0.4,0.3-0.4c0.1,0,0.3-0.1,0.4-0.1
	c0.4-0.1,0.8-0.2,1.3-0.2c-0.1,0.2-0.4,0.2-0.5,0.5C31.1,11.6,31.6,11.5,32,11.3c0.1,0,0.1,0,0.2-0.1C32.1,11.2,32,11.3,32,11.3z
	 M34.6,5.7c0.1,0,0.1,0,0.1,0c0.1,0,0.1,0.1,0.1,0.2c0,0,0,0-0.1,0.1c-0.1,0.2-0.1,0.3,0,0.4c0.1,0.1,0.2,0.2,0.3,0.3
	c0.5,0.5,1.2,0.8,1.9,0.8c0.3,0,0.4-0.1,0.5-0.4c0.1-0.3,0.2-0.5,0.4-0.6c0.4-0.3,0.8-0.4,1.2-0.5c0.1,0,0.2,0,0.3-0.1
	c0.1,0,0.2-0.1,0.3-0.2c0.3-0.3,0.6-0.5,1-0.5c0.2,0,0.4-0.1,0.6-0.1c0.6,0,1.2-0.1,1.9-0.2c0.1,0,0.1,0,0.2-0.1
	c-0.4-0.1-0.7,0-1-0.1c0.1-0.1,0.2-0.2,0.3-0.2c0.1-0.1,0.3-0.2,0.5-0.1c0.1,0,0.2,0.1,0.3,0.1c0.1,0,0.2,0.1,0.3-0.1
	c-0.2-0.1-0.4-0.2-0.7-0.2c-0.4,0-0.7-0.1-0.8-0.5c0.3-0.1,0.6-0.3,0.9-0.2c0.3,0,0.6,0.1,0.9,0.2c0-0.2,0-0.2,0.2-0.3
	c0.1,0,0.1,0,0.2,0c-0.1-0.2-0.4-0.1-0.6-0.3c0-0.1,0.1-0.1,0.1-0.1c-0.1-0.1-0.3,0-0.3-0.2c0.2-0.2,0.4-0.1,0.7-0.1
	c-0.1,0-0.1-0.1-0.2-0.1c-0.2-0.1-0.2-0.2,0-0.4c0.1-0.1,0.2-0.1,0.3-0.2c0.1-0.1,0.1-0.1,0.2-0.2c-0.2-0.2-0.4-0.2-0.6-0.3
	c0.3,0,0.5,0,0.8-0.1c0.3,0,0.5-0.1,0.8-0.2c0.2-0.1,0.5-0.1,0.7-0.2c-0.3-0.1-0.6-0.1-0.9,0C45.6,1,45.5,1,45.4,1
	c-0.5,0-0.9,0-1.4,0.1c-0.1,0-0.2-0.1-0.3-0.1c-0.1,0-0.1-0.1-0.2-0.1c-0.5,0-0.9,0-1.4,0.1c-0.4,0-0.8,0.2-1.1,0.2
	c-0.3,0.1-0.6,0.1-1,0.1c0.1,0,0.1-0.1,0.2-0.1c0.6-0.3,1.2-0.4,1.8-0.4c0.4-0.1,0.9-0.1,1.3-0.2c-0.1,0-0.1,0-0.2,0
	c-0.1,0-0.3,0-0.4-0.2c0,0-0.1-0.1-0.2-0.1c-0.4,0-0.8,0-1.2,0c-0.5,0-0.9,0.1-1.4,0.1c0,0-0.1,0-0.2,0c0,0,0,0,0,0
	c0.1-0.1,0.2-0.1,0.4-0.2c-0.1,0-0.2,0-0.2,0c-1.2,0-2.4,0-3.5,0c-0.1,0-0.1,0-0.2,0c0,0-0.1,0.1-0.1,0.1c0,0,0,0,0,0
	c0.1,0,0.2,0,0.2,0c0.1,0,0.2,0,0.3,0c0.1,0,0.2,0.1,0.1,0.2c0,0.1-0.1,0.1-0.2,0.1c-0.1,0-0.3,0-0.4,0c-0.3,0-0.5,0-0.8,0
	c-0.2,0-0.4,0-0.7,0.1c-0.2,0.1-0.4,0.1-0.6,0.1c0,0-0.1,0-0.2,0c-0.5,0.1-1.1,0.1-1.6,0.1c-0.1,0-0.2,0-0.3,0.1
	c-0.2,0.3-0.5,0.3-0.8,0.4c-0.2,0-0.5,0.1-0.7,0.1c-0.1,0-0.2,0.1-0.3,0.1c0.2,0,0.4,0,0.5,0c0.1,0,0.2,0,0.2,0.1
	c0,0.1,0,0.1-0.1,0.2c-0.1,0.1-0.3,0.2-0.5,0.2c-0.3,0-0.6,0.1-0.9,0.1c-0.2,0-0.5,0-0.7,0.2c0.5,0.1,0.9,0,1.4,0.2
	c-0.2,0.3-0.5,0.1-0.8,0.3C29.5,2.9,29.6,3,29.7,3c0.3,0.1,0.7,0,1,0c0.6,0,1.1,0,1.7-0.1c0.1,0,0.3,0,0.4,0.1
	c0.1,0.1,0.3,0.2,0.5,0.3c0.3,0.2,0.6,0.5,0.7,0.9c0,0,0,0,0.1,0c0.1,0,0.1-0.1,0.2-0.1c0.1,0,0.2,0,0.2,0c0.2,0.1,0.2,0.2,0.1,0.3
	c0,0-0.1,0.1-0.2,0.1c0.1,0,0.2,0,0.3,0.1C35,4.9,35,4.9,34.9,5.1c0,0,0,0,0,0.1C34.9,5.4,34.9,5.6,34.6,5.7z M31.6,0.6
	C31.6,0.5,31.6,0.5,31.6,0.6c-0.2-0.1-0.4-0.3-0.6-0.2c-0.4,0.1-0.7,0-1.1-0.1c-0.1,0-0.3-0.1-0.4-0.1c-1,0-2,0-3.1,0
	c-0.2,0-0.4,0-0.6,0.1c-0.1,0-0.2,0.1-0.2,0.1c-0.1,0.1-0.2,0.2-0.4,0.2c-0.7,0.1-1.4,0.2-2,0.3c0.2,0.1,0.4,0.2,0.6,0.2
	c0.5,0.1,1,0.1,1.5,0.2c0.3,0,0.7,0,1,0c-0.3,0.2-0.5,0.3-0.8,0.3c-0.2,0-0.4,0-0.7,0c-0.1,0-0.2,0-0.3,0.1c0.1,0,0.2,0.1,0.2,0.1
	c0.2,0.1,0.5,0.1,0.7,0.2c0.1,0,0.2,0,0.3,0.1c0,0,0,0,0,0.1c-0.2,0-0.4,0.1-0.6,0.1c-0.5,0-0.9,0-1.3-0.5c-0.1-0.1-0.2-0.1-0.3-0.2
	c-0.2-0.1-0.4-0.1-0.6-0.2c-0.5-0.2-0.9,0-1.3,0.2c0,0,0,0,0,0.1c0.3,0.2,0.6,0.1,1,0.3C22.6,2,22.5,2,22.4,2.1
	c0.1,0.1,0.2,0.2,0.3,0.2c0.3,0,0.6,0,0.9-0.1C23.9,2,24.1,2,24.3,2.2c-0.2,0.2-0.5,0.2-0.6,0.5c0.1,0,0.2,0,0.3,0
	c0.4,0,0.9,0,1.3,0.1c0.4,0,0.8,0.1,1.3,0c0,0,0.1,0,0.1-0.1c-0.1,0-0.2,0-0.3,0c-0.1,0-0.2,0-0.2-0.2c0.5-0.1,1-0.2,1.4-0.4
	c-0.2-0.1-0.4,0-0.4-0.2c0.3-0.1,0.5-0.2,0.8-0.2c0.2,0,0.4,0,0.5,0c0.1,0,0.2,0,0.3,0c0.3-0.1,0.7-0.2,1-0.3
	c0.3-0.1,0.5-0.2,0.8-0.2c0-0.1,0-0.2,0-0.3C30.9,0.7,31.2,0.6,31.6,0.6z M28.8,5.9c-0.1,0-0.2,0-0.3,0c-0.1,0-0.2,0.1-0.2,0.1
	c-0.1,0.2-0.3,0.2-0.5,0.2c-0.2,0-0.3,0-0.5,0c-0.1,0-0.2,0-0.3,0.1c0.1,0,0.1,0,0.2,0c0.1,0,0.3,0,0.4,0c0.4,0,0.8,0,1.1,0.2
	C29,6.8,29.2,6.9,29.5,7c0.4,0.1,0.7,0.1,1.2,0.2C30.5,7,30.8,7,30.9,6.8c0-0.1-0.2-0.2-0.3-0.3c-0.2-0.1-0.3-0.2-0.5-0.3
	C30,6.1,30,6,30.2,5.9c0.2-0.1,0.3,0,0.4,0c0.2,0.1,0.3,0.2,0.5,0.2c0.1,0.1,0.2,0.1,0.4,0c0.1-0.1,0.2-0.2,0.4-0.3
	c-0.1,0-0.2-0.1-0.2-0.1c-0.3-0.1-0.5-0.1-0.8-0.2c-0.2,0-0.4-0.1-0.5-0.1C30,5.3,30,5.3,30.1,5c0,0,0,0,0-0.1
	c-0.2-0.1-0.5-0.2-0.8-0.2c-0.2,0-0.3,0-0.4-0.3c-0.3,0.1-0.6,0.1-0.8-0.1c-0.1-0.1-0.2-0.1-0.3-0.2c-0.3-0.2-0.5-0.1-0.8,0
	c-0.1,0-0.1,0.1-0.2,0.1c-0.4,0.1-0.7,0.1-1-0.3c-0.1-0.1-0.2-0.2-0.3-0.1c-0.1,0-0.1,0-0.2,0.1c-0.3,0.1-0.6,0.1-0.9,0
	c-0.1,0-0.2,0-0.2,0c-0.2,0-0.3,0.1-0.5,0.1c-0.1,0-0.2,0.1-0.3,0.2c0,0.2,0.1,0.3,0.2,0.3c0,0,0.1,0.1,0.2,0.1
	c0.2,0.1,0.5,0.1,0.7,0.1c0.8,0,1.5,0,2.3,0.1c0.5,0.1,1,0.1,1.5,0.4C28.4,5.4,28.6,5.6,28.8,5.9z M13.1,4.2
	c0.1,0.1,0.3,0.1,0.4,0.2c0.3,0,0.6,0,0.8-0.2C14.5,4.1,14.8,4,15,4c0,0.4,0,0.5,0.5,0.6c0,0,0,0,0.1,0c0.2,0,0.4,0,0.6,0
	c0.2,0,0.4,0,0.6,0.2c-0.4,0-0.8,0.1-1.2,0.1c0.6,0.3,1.2,0.4,1.8,0.2C17.9,4.9,18.4,4.9,19,5c0.2,0,0.3,0.1,0.5,0.1
	c0.1-0.1,0.1-0.2,0.2-0.3c-0.1,0-0.2,0-0.3-0.1c-0.1,0-0.2-0.1-0.3-0.1c-0.3-0.2-0.4-0.4-0.3-0.7c-0.2,0.1-0.4,0.2-0.6,0.2
	c0,0,0,0.1-0.1,0.1c-0.1,0.2-0.2,0.2-0.4,0.1C17.3,4,17,4,16.7,4.1c-0.1,0-0.2,0-0.3,0c-0.2,0-0.4-0.1-0.6-0.2
	c-0.3-0.2-0.5-0.3-0.9-0.3c-0.3,0-0.7-0.1-1-0.1c-0.2,0-0.5,0-0.6,0.3C13.2,3.9,13.2,4.1,13.1,4.2z M46.3,6.3c0-0.1-0.1-0.2-0.3-0.2
	C45.6,6,45.1,6,44.7,6c0,0-0.1,0-0.1,0c-0.3,0.1-0.5,0.2-0.8,0.3c0.3,0.1,0.7,0.3,1,0.2c0.4-0.1,0.9-0.2,1.3-0.3
	C46.2,6.4,46.2,6.3,46.3,6.3z M25.9,8.5c0,0.1,0,0.2,0,0.2c0,0.3,0,0.6,0,1c0,0.2,0.2,0.4,0.4,0.3c0,0,0.1-0.1,0.1-0.1
	c0.1-0.2,0.1-0.4,0.2-0.7c0-0.1,0-0.3,0-0.5c0-0.1,0-0.1,0-0.2C26.4,8.6,26.2,8.6,25.9,8.5z M21.8,2.8c0.4,0.1,0.7,0.2,1.1,0.5
	c0,0,0.1,0,0.1,0c0.4,0.1,0.8,0.1,1.3,0.1c0.6,0,1.2,0,1.8-0.1c0.1,0,0.1,0,0.2,0c0,0,0.1-0.1,0.1-0.1c-0.1,0-0.1,0-0.1,0
	c-0.9,0.1-1.7,0.1-2.6,0.1c-0.2,0-0.4,0-0.6-0.1C22.7,2.8,22.2,2.8,21.8,2.8z M34.3,11c0-0.2,0-0.2-0.2-0.3
	c-0.2-0.1-0.4-0.2-0.5-0.3c-0.1-0.1-0.2-0.1-0.3-0.1c-0.2,0.1-0.3,0.1-0.5,0.2c-0.1,0-0.1,0.1-0.2,0.2c0.1,0.1,0.3,0.2,0.4,0.2
	c0.2,0,0.3,0,0.5,0c0.1,0,0.2,0,0.3,0.1c0.1,0.1,0.2,0.1,0.3,0.1C34.1,11,34.2,11,34.3,11z M21.4,4.2c-0.1-0.1-0.2-0.1-0.3-0.2
	c0-0.1,0-0.2-0.1-0.3c-0.4-0.1-0.8,0.1-1.1,0.3C20.6,4.4,20.9,4.5,21.4,4.2z M18.7,5.2c0.3,0.2,0.7,0.2,1.1,0.2
	c-0.3-0.2-0.5-0.3-0.9-0.3C18.9,5.1,18.7,5.1,18.7,5.2z M26.3,19.6c0.2,0,0.3,0.1,0.5,0.1C26.6,19.5,26.6,19.5,26.3,19.6z
	 M25.7,19.7C25.7,19.6,25.7,19.6,25.7,19.7c0-0.1-0.1-0.1-0.2-0.1c0,0,0,0,0,0C25.6,19.6,25.7,19.6,25.7,19.7z M28.2,5.6
	C28.2,5.6,28.2,5.7,28.2,5.6c0,0,0.1,0.1,0.1,0.1c0,0,0,0,0.1,0c0,0,0,0,0,0C28.3,5.6,28.2,5.6,28.2,5.6z"/>
<path class="st0" d="M36.2,0c0,0-0.1,0.1-0.1,0.1c0,0.1-0.1,0.1,0,0.2c0,0.1,0.1,0.1,0.2,0.1c0.1,0,0.2,0,0.3,0c0.1,0,0.2,0,0.3,0.1
	c-0.1,0-0.2,0-0.3,0c-0.3,0-0.5,0-0.8,0c-0.3,0-0.7,0-1,0.1c0,0-0.1,0-0.1,0c-0.4-0.1-0.8,0-1.2,0.1c-0.2,0-0.4,0-0.6,0
	c-0.2,0-0.3,0-0.5,0.1c-0.1,0-0.2,0.1-0.2,0.2c-0.1,0.2-0.3,0.2-0.4,0.2c-0.2,0-0.5,0.1-0.7,0.1c-0.2,0-0.3,0.1-0.5,0.1
	c-0.1,0-0.2,0-0.2,0.2c0,0.1,0.2,0.1,0.3,0.1c0.1,0,0.3,0,0.4,0c-0.5,0.1-0.9,0.1-1.4-0.2c0.2-0.1,0.4-0.1,0.6-0.2
	c0.1,0,0.3-0.1,0.4-0.1c0.2-0.1,0.2-0.1,0.2-0.3c0.2,0,0.4-0.1,0.6-0.1c0.1,0,0.2,0,0.2-0.1c0.1,0,0.2-0.1,0.2-0.2
	c0-0.1-0.1-0.2-0.2-0.2c-0.2-0.1-0.4-0.1-0.7-0.1c-0.3,0-0.6,0-0.9-0.1c-0.1,0-0.1-0.1-0.1-0.1C31.9,0,34,0,36.2,0z"/>
<path d="M64.9,24.3c0.1-0.1,0.2-0.2,0.3-0.3c0.1-0.1,0.2-0.1,0.3-0.1c0.1,0,0.2,0.1,0.2,0.2c0.1,0.2,0.1,0.4,0,0.6
	c-0.3,0.5-0.5,1.1-0.7,1.7c-0.1,0.2-0.1,0.3-0.1,0.5c0,0.1,0,0.2,0,0.2c-0.2,0.6-0.5,1.2-0.7,1.8c-0.1,0.3-0.5,0.5-0.8,0.4
	c-0.3-0.1-0.5-0.4-0.5-0.7c0-0.2,0-0.3,0-0.5c0-0.7,0-1.4,0-2.1c0-0.1,0-0.2,0.1-0.3c0.1-0.1,0.1-0.2,0.1-0.4c0-0.3,0.2-0.6,0.5-0.7
	c0.1-0.1,0.3-0.1,0.4-0.1c0.2-0.1,0.4-0.2,0.5-0.3c0.1-0.2,0.3-0.2,0.4,0C64.8,24.2,64.8,24.2,64.9,24.3z M64.2,26.5
	c0.4,0,0.6-0.1,0.7-0.5c0.2-0.5,0.4-1,0.6-1.5c0.1-0.2,0-0.4,0-0.5c-0.1-0.1-0.2-0.2-0.3,0c-0.2,0.3-0.4,0.4-0.7,0.5
	c-0.1,0-0.3,0.1-0.4,0.2c-0.2,0.1-0.3,0.3-0.3,0.5c0,0.2,0,0.3-0.1,0.4c-0.2,0.2-0.2,0.3-0.1,0.5C63.8,26.4,64,26.5,64.2,26.5z"/>
<path class="st0" d="M72.4,16.7c-0.2,0-0.3,0.1-0.5,0.1c-0.3,0-0.3,0-0.2-0.3c-0.1,0-0.2-0.1-0.2-0.1c-0.2-0.1-0.4-0.2-0.7-0.3
	c-0.3-0.1-0.7-0.2-1-0.2c-0.7,0-1.3,0-1.9-0.2c-0.4-0.1-0.8-0.2-1.2-0.2c-0.3,0-0.5-0.1-0.7-0.3c-0.2-0.2-0.4-0.3-0.7-0.2
	c-0.2,0-0.3,0.2-0.1,0.3c0.2,0.2,0.4,0.4,0.6,0.6c0.1,0.1,0.2,0.2,0.3,0.3c0.1,0.1,0.3,0.2,0.5,0.1c0.2-0.1,0.5-0.1,0.7-0.2
	c0.3-0.1,0.3-0.1,0.5,0.1c0.2,0.1,0.4,0.2,0.6,0.3c0.1,0.1,0.2,0.1,0.3,0.2c-0.2,0.2-0.4,0.4-0.6,0.5c-0.4,0.3-0.8,0.4-1.2,0.6
	c-0.6,0.2-1.2,0.3-1.8,0.5c-0.3,0.1-0.6,0.2-0.8,0.2c-0.1,0-0.2,0-0.3,0c-0.1,0-0.2-0.1-0.2-0.2c-0.1-0.5-0.3-0.8-0.7-1.1
	c-0.2-0.1-0.3-0.3-0.4-0.5c-0.1-0.2-0.2-0.3-0.4-0.5c-0.2-0.2-0.5-0.5-0.7-0.8c-0.1-0.2-0.3-0.2-0.5-0.2c-0.1,0-0.2,0-0.4,0
	c-0.1,0-0.1,0-0.2,0c0,0,0,0.1,0,0.2c0,0.1,0.1,0.1,0.1,0.2c0.3,0.3,0.6,0.6,0.9,1c0.2,0.2,0.2,0.4,0.3,0.6c0,0.2,0.1,0.3,0.2,0.4
	c0.4,0.3,0.8,0.6,1.1,0.9c0.1,0.1,0.3,0.2,0.4,0.4c0.2,0.2,0.4,0.3,0.7,0.3c0.4,0,0.7-0.1,1.1-0.1c0.2,0,0.4,0,0.6-0.1
	c0,0.1-0.1,0.1-0.1,0.2c-0.5,0.8-1.1,1.4-1.9,1.9C64,21,64,21,63.9,21c-0.4,0.2-0.8,0.4-1.2,0.7c-0.5,0.4-0.6,0.9-0.3,1.5
	c0.1,0.2,0.2,0.4,0.2,0.6c0.1,0.3,0,0.6-0.3,0.7c-0.2,0.1-0.3,0.2-0.5,0.3c-0.2,0.1-0.4,0.2-0.7,0.3c-0.3,0.1-0.3,0.4-0.2,0.6
	c0.1,0.3,0.1,0.4-0.2,0.6c-0.4,0.1-0.6,0.4-0.7,0.7c-0.1,0.3-0.3,0.5-0.6,0.7c-0.3,0.2-0.7,0.4-1.1,0.5c-0.7,0.2-1.4,0.2-2,0.2
	c-0.1,0-0.2,0-0.3,0c-0.1,0-0.2-0.1-0.2-0.3c0-0.2-0.1-0.4-0.2-0.5c-0.3-0.3-0.6-0.7-0.8-1.1c-0.1-0.2-0.2-0.5-0.3-0.8
	c-0.1-0.2-0.1-0.4-0.3-0.6c-0.3-0.3-0.3-0.6-0.1-1c0.1-0.1,0.1-0.2,0.2-0.3c0.2-0.3,0.2-0.6,0.1-0.9c-0.1-0.1-0.1-0.2-0.2-0.3
	c-0.3-0.3-0.5-0.7-0.8-0.9c-0.1-0.1-0.1-0.2-0.1-0.3c0-0.3,0-0.5,0-0.8c0-0.3-0.1-0.4-0.4-0.4c-0.1,0-0.3,0-0.4,0
	c-0.2,0-0.3,0-0.5-0.1C51.8,19.9,51.4,20,51,20c-0.5,0.1-0.9,0.1-1.4,0.2c-0.4,0-0.7,0-1.1,0.1c-0.5,0.1-0.9-0.1-1.4-0.2
	c-0.3-0.1-0.5-0.3-0.6-0.5c-0.2-0.3-0.4-0.5-0.7-0.7c-0.1-0.1-0.3-0.2-0.4-0.4c-0.2-0.2-0.2-0.2-0.1-0.4c0.1-0.2,0.2-0.5,0.1-0.7
	c-0.1-0.5,0.1-0.9,0.4-1.2c0.3-0.3,0.6-0.5,0.9-0.7c0.2-0.1,0.3-0.2,0.5-0.3c0.2-0.1,0.3-0.3,0.3-0.6c0-0.1,0.1-0.2,0.2-0.3
	c0.6-0.4,1.3-0.6,2-0.6c0.7,0,1.4-0.2,2.1-0.2c0.4,0,0.8-0.1,1.2-0.1c0.1,0,0.3,0,0.4,0.1c0.2,0,0.2,0.1,0.2,0.3c0,0,0,0.1,0,0.1
	c0,0.2,0,0.3,0.2,0.4c0.1,0,0.1,0,0.2,0.1c0.5,0.2,1,0.3,1.5,0.4c0.1,0,0.3,0.1,0.4,0.1c0.2,0,0.5,0,0.6-0.2
	c0.2-0.2,0.5-0.3,0.8-0.2c0.4,0.1,0.9,0.2,1.3,0.2c0.5,0.1,1,0.1,1.5,0.1c0.3,0,0.6-0.1,0.7-0.4c0.1-0.2,0.2-0.5,0.3-0.7
	c0.1-0.2,0-0.3-0.2-0.3c-0.5,0-1.1,0-1.6,0c-0.1,0-0.2,0-0.4,0c-0.1,0-0.2-0.1-0.3-0.1c-0.1-0.1-0.2-0.2-0.2-0.3
	c0-0.2,0.1-0.2,0.3-0.3c0.6-0.2,1.3-0.4,1.9-0.4c0.3,0,0.5,0,0.8,0.1c0.3,0.1,0.7,0.1,1,0.1c0.1,0,0.2,0,0.3-0.1
	c0.2-0.1,0.2-0.3,0-0.4c-0.2-0.1-0.4-0.2-0.6-0.3c-0.1,0-0.2-0.1-0.2-0.1c-0.1-0.1-0.1-0.1-0.1-0.3c0.1-0.2,0.1-0.3-0.2-0.3
	c0,0-0.1,0-0.1,0c-0.4,0-0.5,0.1-0.6,0.4c-0.2,0-0.4,0-0.5-0.1c-0.1,0-0.1-0.1-0.2-0.1c-0.2-0.2-0.4-0.2-0.7,0
	c-0.2,0.1-0.3,0.3-0.5,0.4c-0.2,0.1-0.2,0.3-0.2,0.5c0,0.2-0.1,0.2-0.3,0.3c-0.2,0-0.3,0-0.5,0c-0.2,0-0.3,0-0.5,0.1
	c-0.3,0.1-0.3,0.2-0.1,0.4c0,0,0.1,0,0.1,0.1c-0.2,0.2-0.4,0.3-0.6,0.2c0-0.2-0.1-0.3-0.2-0.4c-0.2-0.1-0.3-0.3-0.5-0.5
	c-0.1-0.1-0.3-0.3-0.4-0.4c-0.5-0.3-1-0.5-1.4-0.7c-0.1,0-0.1-0.1-0.2,0c-0.1,0-0.2,0.1-0.2,0.1c0,0,0,0.1,0.1,0.2
	c0.3,0.4,0.6,0.6,1.1,0.7c0.1,0.1,0.3,0.1,0.5,0.2c-0.3,0-0.3,0.2-0.4,0.4c-0.1-0.1-0.2-0.2-0.3-0.3c-0.1-0.1-0.3-0.2-0.5-0.2
	c-0.4-0.1-0.8-0.3-1.2-0.6c-0.2-0.2-0.4-0.2-0.7-0.1c-0.3,0-0.6,0.1-0.8,0.1c-0.2,0-0.4,0.1-0.6,0.2c-0.5,0.3-0.9,0.6-1.4,1
	c-0.2,0.2-0.5,0.2-0.8,0.3c-0.4,0-0.8,0-1.2-0.1c-0.1,0-0.1,0-0.2-0.1c-0.2-0.1-0.3-0.2-0.2-0.5c0-0.2,0-0.4,0.1-0.5
	c0-0.2,0.1-0.2,0.2-0.3c0.1,0,0.3,0,0.4,0c0.3,0,0.6,0,1,0c0.1,0,0.2,0,0.3,0c0.3,0,0.4-0.2,0.4-0.5c0-0.2-0.1-0.3-0.3-0.4
	c-0.1-0.1-0.2-0.1-0.2-0.1c-0.1,0-0.2-0.1-0.3-0.1c0.1,0,0.1,0,0.2-0.1c0.4-0.1,0.8-0.2,1.2-0.4c0.2-0.1,0.4-0.1,0.6-0.2
	c0.2-0.1,0.4-0.2,0.5-0.3c0.3-0.2,0.6-0.3,0.9-0.3c0.1,0,0.2,0,0.3-0.1c0.2-0.1,0.3-0.2,0.2-0.4c0,0,0-0.1,0-0.1
	c0-0.2,0.1-0.3,0.3-0.2c0,0,0,0.1,0,0.1c0,0.2,0,0.3,0.2,0.3c0.5,0.1,0.9,0.2,1.4,0.1c0.3-0.1,0.6-0.1,0.9-0.1
	c0.2,0,0.4-0.1,0.6-0.1c0.3,0,0.4-0.1,0.4-0.4c0-0.2,0.1-0.3,0.4-0.2c0.1,0,0.2,0,0.3,0.1c0.2,0,0.2,0,0.2-0.2
	c-0.1-0.4-0.1-0.4,0.4-0.4c0.2,0,0.4,0,0.5,0c0.2,0,0.5-0.1,0.7-0.2c-0.3-0.1-0.5-0.2-0.8-0.2c-0.3,0-0.6,0.1-1,0.1
	c-0.1,0-0.2,0-0.3,0c-0.2,0-0.3-0.2-0.4-0.4c0-0.2,0.1-0.3,0.2-0.4c0.2-0.2,0.5-0.3,0.7-0.5c0.1-0.1,0.2-0.1,0.2-0.2
	c0-0.1-0.1-0.2-0.3-0.2c-0.2,0-0.5,0-0.7,0.2c-0.1,0.1-0.3,0.2-0.4,0.3c-0.2,0.1-0.4,0.2-0.6,0.4C56.1,7,56.1,7,56,7
	c-0.2,0.2-0.2,0.4,0,0.6c0.1,0.1,0.1,0.1,0.2,0.2C56.1,7.9,56.1,7.9,56,8c-0.1,0.1-0.3,0.3-0.4,0.4c-0.2,0.3-0.6,0.4-0.9,0.4
	c-0.1,0-0.2-0.1-0.3-0.2c-0.1-0.2-0.2-0.3-0.3-0.5C54,8,53.8,7.9,53.7,7.9c-0.1,0-0.3,0.1-0.4,0.1c-0.2,0-0.3,0.1-0.5,0.1
	c-0.2,0-0.3-0.1-0.3-0.2c0-0.1,0-0.1-0.1-0.2c-0.1-0.4-0.1-0.4,0.3-0.6C53,7,53.3,6.8,53.6,6.9c0,0,0.1,0,0.1,0
	c0.3,0,0.3-0.2,0.2-0.4c0,0,0-0.1-0.1-0.1c0.2-0.1,0.3-0.2,0.5-0.3c0.2-0.1,0.4-0.2,0.6-0.3c0.3-0.1,0.5-0.2,0.7-0.4
	c0.2-0.2,0.4-0.3,0.6-0.3c0.2,0,0.4-0.1,0.5-0.1c0.3-0.1,0.7-0.2,1-0.2c0.2-0.1,0.5-0.1,0.7-0.1c0.3,0,0.7,0.1,1,0.1
	c0,0.1,0,0.1,0,0.1c0,0.1,0,0.2,0.2,0.2C59.9,5,60,5,60,5C60.3,5,60.5,5,60.7,5c0.5,0.1,1,0.2,1.5,0.4c0.2,0.1,0.5,0.2,0.7,0.3
	c-0.1,0.2-0.2,0.2-0.3,0.2c-0.3,0.1-0.7,0.1-1,0c-0.2,0-0.4-0.1-0.6-0.1c-0.1,0-0.3-0.1-0.4,0c0.2,0.2,0.3,0.5,0.6,0.6
	c0.2,0.2,0.5,0.2,0.8,0.1c0-0.1,0-0.1,0-0.2c0,0,0,0,0.1,0c0.1,0,0.2,0,0.3,0c0.2,0,0.4,0,0.5-0.2C63,6.1,63.2,6,63.4,6
	c0.1,0,0.3,0,0.4,0C64,6,64,5.9,64,5.7c0-0.1-0.1-0.2-0.1-0.3c0.2-0.1,0.3-0.1,0.6,0.1c0,0.1-0.1,0.1-0.1,0.2
	c0.2,0.2,0.4,0.1,0.5,0.1c0.3-0.1,0.6-0.2,0.9-0.3c0.3-0.1,0.7-0.1,1-0.2c0.1,0,0.2,0,0.2,0c0.2,0.1,0.4,0.1,0.6,0
	c0.2-0.1,0.4-0.1,0.5-0.2c0.1,0,0.2,0,0.3,0c0.1,0.1,0.3,0.1,0.4,0c0.5-0.3,1-0.3,1.5-0.1c0.2,0,0.4,0.1,0.6,0.2c0.1,0,0.2,0,0.3,0
	c0,0,0.1-0.1,0.1-0.1c0,0,0-0.1-0.1-0.1c-0.1-0.1-0.2-0.2-0.3-0.3c-0.1,0-0.1-0.1-0.1-0.1c0,0,0-0.1,0.1-0.1
	c0.2-0.2,0.5-0.4,0.7-0.5c0.2-0.1,0.4-0.1,0.6,0c0.1,0,0.1,0.1,0.1,0.2c-0.1,0.2,0,0.3,0,0.4c0.2,0.3,0.1,0.7-0.1,1
	c-0.1,0.2-0.3,0.2-0.4,0.1c-0.1,0-0.2,0-0.3,0c-0.1,0-0.2,0-0.3,0c0.2,0.3,0.8,0.4,1.1,0.2c0.2-0.1,0.5-0.3,0.6-0.5
	c0.1-0.1,0.3-0.2,0.4-0.2c0.1,0,0.3,0.1,0.3,0.2c0.1,0.2,0.3,0.3,0.6,0.3C74.3,5.4,74,5.1,73.7,5C73.5,5,73.4,5,73.2,5
	c-0.2,0-0.3-0.1-0.3-0.3c0,0,0-0.1,0-0.1c-0.1-0.1,0-0.2,0.1-0.3c0.2-0.1,0.2-0.1,0.4,0c0.2,0.2,0.5,0.3,0.8,0.3
	C74.1,4.4,74,4.4,74,4.3c0.4-0.2,1.1,0,1.4,0.2c0.1,0.1,0.1,0.1,0.2,0.1c0.1,0,0.2,0,0.2,0c0,0,0.1-0.1,0-0.2
	c-0.1-0.2-0.2-0.3-0.3-0.3c-0.1,0-0.2-0.1-0.3-0.1C75.1,4,75.1,4,75,3.9c0.1-0.2,0.2-0.1,0.4-0.1c0.4,0,0.8,0,1.1,0
	c0.1,0,0.2,0,0.3,0c0-0.1-0.1-0.2-0.1-0.3c0.1-0.1,0.3-0.1,0.4-0.1c0.7-0.1,1.4-0.1,2.1-0.2c0.3,0,0.6,0,0.9,0
	c0.4,0,0.7-0.1,1.1-0.1c0.1,0,0.2-0.1,0.2-0.2c0.1-0.3,0.6-0.5,0.9-0.4c0,0,0.1,0.1,0.1,0.1c0.1,0.1,0.2,0.2,0.3,0.2
	c0.1,0,0.3,0,0.4,0c0.5,0,0.9,0,1.4,0c0.1,0,0.2,0.1,0.3,0.2c0,0-0.1,0.1-0.1,0.1c-0.1,0.2-0.1,0.2,0,0.4c0.2,0.2,0.4,0.3,0.6,0.2
	c0.3-0.1,0.7-0.1,1,0c0.6,0.2,1.1,0.1,1.7,0c0.4-0.1,0.8-0.1,1.1,0c0.1,0,0.2,0,0.3,0.1C89.3,3.9,89.2,4,89.2,4
	c0,0.2,0.1,0.3,0.2,0.3c0.2,0.1,0.4,0.2,0.6,0.3c0.1,0.1,0.3,0.1,0.4,0c0.3-0.2,0.7-0.2,1-0.2c0.3,0,0.6,0,0.9,0c0.1,0,0.2,0,0.3,0
	c0.1,0,0.2-0.1,0.2-0.1c0.1-0.2,0.3-0.2,0.5-0.2c0.1,0,0.3,0,0.4,0c0.2,0,0.5,0,0.7,0.1c0.3,0.1,0.6,0.1,1,0c0.1,0,0.2,0,0.3,0
	c0.4,0.3,0.9,0.4,1.4,0.4c0.4,0,0.7,0,1.1,0c0.2,0,0.5,0,0.6,0.3C99,5,99.2,5,99.3,5c0.4,0,0.8,0,1.2,0.1c0.4,0,0.8,0.1,1.1,0.1
	c0.2,0,0.3,0,0.4-0.2c0-0.1,0.1-0.1,0.2-0.1c0.2,0,0.4,0,0.5,0c0.9,0.1,1.8,0.1,2.7,0.3c0.4,0.1,0.8,0.2,1,0.5
	c0.1,0.1,0.1,0.1,0.2,0.1c0.3-0.1,0.5-0.1,0.8,0c0.1,0,0.2,0.1,0.4,0.1c-0.1,0-0.2,0.1-0.2,0.1c-0.2,0.1-0.5,0.2-0.6,0.4
	c-0.1,0.1-0.2,0.1-0.3,0c-0.4-0.2-0.9-0.3-1.4-0.4c-0.1,0-0.2,0-0.3,0c-0.1,0-0.2,0-0.2,0.1c-0.1,0.2-0.3,0.2-0.5,0.2
	c-0.2,0-0.4,0-0.7,0c0.1,0.2,0.2,0.3,0.4,0.3c0.1,0.1,0.2,0.1,0.3,0.3c0,0,0,0.1,0,0.1c-0.2,0-0.4,0-0.5,0c-0.5,0-1,0.2-1.5,0.4
	c-0.3,0.1-0.6,0.2-0.9,0.1c-0.6-0.1-1.3,0-1.9,0.3c-0.3,0.1-0.3,0.3-0.1,0.5c0.1,0.2,0.1,0.3,0,0.5c-0.1,0.1-0.2,0.1-0.3,0.2
	c-0.2,0.1-0.3,0.2-0.5,0.4c-0.2,0.3-0.5,0.4-0.8,0.5c-0.1,0-0.2,0-0.2-0.1c-0.1-0.2-0.2-0.4-0.2-0.6c0-0.3,0.1-0.5,0.3-0.7
	c0.1,0,0.1-0.1,0.2-0.1c0.6-0.3,1.2-0.6,1.8-0.9c0.2-0.1,0.3-0.2,0.2-0.5c-0.4,0.2-0.7,0.4-1.2,0.5c0-0.1,0-0.1,0-0.1
	c0-0.2-0.1-0.2-0.2-0.2c-0.3,0-0.6,0.1-0.9,0.2c-0.2,0.1-0.4,0.2-0.6,0.4c-0.2,0.1-0.4,0.2-0.6,0.1c-0.5-0.1-1-0.1-1.5,0
	c-0.2,0-0.4,0-0.5,0c-0.4-0.1-0.9,0-1.3,0.2c-0.3,0.1-0.6,0.3-0.9,0.4c-0.3,0.1-0.5,0.3-0.8,0.4c-0.2,0.1-0.2,0.2,0,0.4
	c0.2,0.1,0.4,0.2,0.7,0.2c0.2,0,0.3,0,0.5,0c0.2,0,0.3,0.1,0.3,0.3c0,0.4-0.2,0.8-0.5,1.1c-0.4,0.5-0.9,0.8-1.5,1.1
	c-0.1,0.1-0.3,0.1-0.4,0c-0.2,0-0.4,0-0.6,0.1c-0.3,0.2-0.6,0.4-0.8,0.6c-0.2,0.1-0.2,0.2-0.1,0.5c0.1,0.1,0.2,0.2,0.3,0.3
	c0.1,0.2,0.1,0.2-0.1,0.3c-0.1,0-0.2,0.1-0.3,0.1c-0.1,0-0.2,0-0.2-0.2c0-0.2-0.1-0.3-0.2-0.4c-0.1-0.1-0.2-0.3-0.4-0.4
	c-0.1-0.1-0.1-0.1-0.2-0.1c-0.2,0-0.4,0-0.6,0.1c0,0-0.1,0-0.1,0c0,0,0-0.1,0-0.1c0.1-0.2,0-0.2-0.1-0.3c-0.1,0-0.1,0-0.2,0
	c-0.2,0.1-0.5,0.2-0.7,0.3c-0.1,0-0.1,0.1-0.1,0.2c0,0.1,0.1,0.2,0.2,0.2c0.2,0,0.4,0.1,0.5,0.1c0.1,0,0.3,0,0.4,0
	c-0.1,0-0.1,0.1-0.2,0.1c-0.1,0-0.1,0.1-0.2,0.1c-0.3,0.2-0.4,0.3-0.1,0.6c0.1,0.1,0.1,0.1,0.2,0.2c0,0,0.1,0.1,0.1,0.1
	c0,0.2,0,0.4,0,0.6c0,0.2-0.1,0.3-0.2,0.4c-0.2,0.2-0.3,0.3-0.5,0.4c-0.2,0.1-0.4,0.3-0.7,0.4c-0.3,0.2-0.6,0.2-0.8,0.2
	c-0.3,0-0.6,0.1-0.9,0.2c-0.3,0.1-0.6,0.1-0.9,0.1c-0.2,0-0.3,0-0.4,0.1c-0.2,0.2-0.2,0.4,0,0.6c0.1,0.1,0.2,0.2,0.4,0.3
	c0.1,0.1,0.2,0.2,0.3,0.3c0.2,0.3,0.2,0.5-0.1,0.8c-0.2,0.2-0.4,0.3-0.7,0.4c-0.1,0-0.2,0-0.4-0.1c-0.2-0.2-0.4-0.4-0.6-0.5
	c-0.2-0.1-0.5-0.2-0.8-0.1c-0.4,0.1-0.5,0.6-0.2,0.8c0.2,0.2,0.3,0.3,0.5,0.4c0.3,0.2,0.5,0.4,0.6,0.7c0,0,0,0.1,0,0.2
	c-0.1,0-0.2,0-0.3,0c-0.1-0.1-0.3-0.1-0.4-0.2c-0.2-0.2-0.4-0.4-0.6-0.7c-0.2-0.3-0.3-0.6-0.3-0.9c0-0.1,0-0.3-0.1-0.4
	c-0.1-0.2-0.1-0.4-0.2-0.6c-0.1-0.2-0.1-0.2-0.3-0.2c-0.1,0-0.2,0.1-0.4,0.1c-0.2,0.1-0.3,0-0.3-0.2c0-0.2,0-0.3-0.2-0.4
	c-0.2-0.2-0.5-0.4-0.7-0.6c-0.1,0-0.2,0-0.2,0c-0.3,0-0.5,0.1-0.8,0.1c-0.3,0-0.5,0.1-0.7,0.3c-0.1,0.1-0.3,0.2-0.5,0.3
	c-0.3,0.2-0.6,0.3-1,0.5c-0.3,0.1-0.4,0.3-0.4,0.6c0,0.4-0.1,0.7-0.4,0.9c-0.1,0.1-0.3,0.1-0.4,0c-0.4-0.4-0.8-0.9-1-1.4
	c-0.2-0.3-0.3-0.6-0.3-0.9C72.4,16.9,72.4,16.8,72.4,16.7z M66.9,12.4C66.9,12.4,66.9,12.4,66.9,12.4c-0.1-0.1-0.1-0.1-0.2-0.1
	c-0.2,0-0.3,0-0.4-0.2c0,0-0.1-0.1-0.1-0.1c-0.1-0.1-0.1-0.1-0.2-0.2c-0.1-0.1-0.1-0.2,0-0.2c0.1-0.1,0.2-0.1,0.3-0.1
	c0.1,0,0.1-0.1,0.1-0.2c0-0.1-0.1-0.2-0.2-0.2c-0.4,0-0.7,0-1.1,0.2c-0.2,0.1-0.3,0.3-0.2,0.5c0.1,0.2,0.2,0.4,0.4,0.6
	c0.2,0.1,0.2,0.2,0.1,0.4c0,0,0,0.1-0.1,0.1c-0.1,0.2-0.1,0.3,0.1,0.4c0.3,0.2,0.6,0.2,0.9,0.1c0.3-0.1,0.4-0.3,0.2-0.6
	c0-0.1-0.1-0.1-0.1-0.2C66.7,12.6,66.8,12.5,66.9,12.4z"/>
<path class="st0" d="M92.1,28.5c0-0.1,0.1-0.2,0-0.3c-0.1-0.1-0.2,0-0.3,0.1c-0.3,0.2-0.3,0.2-0.6,0c-0.4-0.3-0.8-0.4-1.3-0.5
	c-0.5,0-0.9,0.1-1.3,0.2c-0.6,0.1-1.2,0.3-1.8,0.4c-0.2,0.1-0.5,0.1-0.7,0.2c-0.3,0.1-0.7-0.1-0.7-0.4c-0.1-0.5-0.3-0.9-0.6-1.3
	c0,0,0-0.1-0.1-0.1c0,0,0,0,0,0c0,0,0,0,0,0c0.3,0,0.3-0.1,0.2-0.3c-0.2-0.3-0.2-0.4,0.2-0.5c0.4-0.1,0.8-0.2,1.2-0.3
	c0.2-0.1,0.5-0.2,0.7-0.2c0.2-0.1,0.3-0.2,0.5-0.4c0.1-0.1,0.2-0.1,0.2-0.2c0.2-0.1,0.3-0.2,0.5-0.3c0.3-0.2,0.5-0.2,0.8-0.1
	c0.1,0,0.1,0.1,0.2,0.1c0.3,0.1,0.5,0,0.6-0.3c0.2-0.3,0.5-0.5,0.8-0.5c0.4-0.1,0.7,0.1,1.1,0.2c-0.1,0.1-0.1,0.1-0.2,0.2
	c-0.2,0.2-0.2,0.4,0.1,0.6c0.3,0.2,0.6,0.3,0.9,0.4c0.2,0.1,0.4,0,0.5-0.2c0.1-0.2,0.2-0.5,0.3-0.7c0-0.1,0.1-0.2,0.1-0.3
	c0.1-0.1,0.2-0.1,0.3,0c0.2,0.2,0.4,0.5,0.5,0.7c0.1,0.1,0.1,0.2,0.2,0.3c0,0.3,0.2,0.5,0.5,0.7c0.3,0.2,0.6,0.4,0.9,0.7
	c0.1,0.1,0.4,0.2,0.5,0.3c0.3,0.1,0.3,0.1,0.2,0.4c-0.1,0.7-0.2,1.3-0.7,1.8C96,28.6,96,28.7,96,28.8c0,0.2-0.1,0.3-0.3,0.4
	c-0.3,0.1-0.6,0.2-0.8,0.3c0,0-0.1,0-0.2,0c-0.2-0.1-0.4-0.1-0.7-0.1c-0.1,0-0.2,0-0.3,0c-0.4,0.1-0.7-0.1-1-0.4
	C92.6,28.8,92.4,28.6,92.1,28.5z"/>
<path class="st0" d="M86.4,20.3c-0.1,0.1-0.1,0.1-0.2,0.1c-0.1,0.1-0.2,0.2,0,0.3c0.3,0.3,0.3,0.3,0,0.5c-0.2,0.2-0.4,0.3-0.4,0.6
	c0,0.1-0.1,0.1-0.2,0.1c-0.3,0.1-0.7,0-1,0c-0.2,0-0.3-0.1-0.5-0.2c-0.2-0.1-0.4-0.3-0.5-0.5c-0.1-0.1-0.1-0.2,0.1-0.3
	c0.1-0.1,0.3-0.1,0.4-0.2c0.5-0.2,1-0.4,1.5-0.7C85.8,19.9,86.1,20,86.4,20.3z"/>
<path class="st0" d="M92.3,22.8C92.3,22.8,92.3,22.7,92.3,22.8c0.2-0.3,0.2-0.3,0-0.4c-0.4-0.2-0.7-0.4-1.1-0.4
	c-0.2,0-0.3,0-0.5-0.1c0-0.2,0-0.2-0.2-0.4c0.2-0.1,0.4,0,0.5,0.1c0,0,0.1,0.1,0.1,0.1c0.1,0.2,0.3,0.2,0.5,0.1
	c0.3-0.2,0.5-0.1,0.8-0.1c0.7,0.1,1.5,0.4,2.2,0.6c0.2,0.1,0.5,0.2,0.5,0.5c0,0.1,0.1,0.1,0.2,0.2c0.1,0.1,0.2,0.1,0.3,0.2
	c-0.2,0-0.5,0-0.7-0.2c0,0-0.1,0-0.1-0.1c-0.3-0.3-0.6-0.3-0.9-0.1c-0.2,0.1-0.4,0.1-0.6,0.1c-0.3-0.1-0.6-0.1-0.9-0.2
	C92.4,22.9,92.3,22.8,92.3,22.8z"/>
<path class="st0" d="M89.6,14.1c0.1-0.1,0.3-0.1,0.4-0.1c0.4-0.1,0.8-0.2,1.3-0.3c0.5-0.1,0.9-0.3,1.3-0.6c0.1-0.1,0.2-0.2,0.3-0.3
	c0-0.1,0.1-0.2,0.2-0.2c0.1,0,0.3,0,0.4,0.1c0.1,0.1,0.1,0.2,0,0.3c-0.1,0.3-0.3,0.6-0.4,0.9c0,0.1-0.1,0.1-0.2,0.1
	c-0.6,0-1.2,0.2-1.8,0.3c-0.3,0-0.5,0.1-0.7,0.3c-0.1,0.1-0.2,0.2-0.4,0.2c0,0-0.1-0.1-0.1-0.1C89.9,14.4,89.7,14.3,89.6,14.1z"/>
<path class="st0" d="M50.9,9.8c-0.1,0.1-0.2,0.2-0.4,0.2c-0.4,0-0.9,0.1-1.3,0.1c0.1-0.1,0.2-0.2,0.3-0.3c-0.1-0.1-0.2-0.1-0.4-0.2
	c0.1-0.1,0.2-0.1,0.3-0.2c0.2-0.2,0.2-0.3,0-0.4C49.3,9,49.1,9,49,8.9c-0.2-0.2-0.2-0.4,0-0.5c0.1-0.1,0.3-0.2,0.4-0.3
	c0,0.1,0,0.2,0,0.3c0,0.1,0.1,0.1,0.2,0.1c0,0.1,0,0.2,0,0.3c0,0.1,0.1,0.1,0.2,0.2c0.2,0.1,0.4,0.3,0.6,0.5
	C50.6,9.6,50.8,9.7,50.9,9.8z"/>
<path class="st0" d="M82.6,21.8c-0.1,0.2-0.2,0.3-0.3,0.4c-0.1,0.1-0.2,0.1-0.3,0c-0.3-0.2-0.7-0.4-0.9-0.6
	c-0.4-0.4-0.9-0.9-1.3-1.3c0.1,0,0.4,0,0.5,0.1c0.4,0.2,0.8,0.5,1.2,0.8c0.1,0.1,0.2,0.1,0.2,0.2c0.2,0.2,0.4,0.3,0.6,0.3
	C82.3,21.8,82.4,21.8,82.6,21.8z"/>
<path class="st0" d="M83.8-33c0.2-0.1,0.4-0.2,0.5-0.4c0.1-0.1,0.2-0.1,0.3-0.1c0.2,0.1,0.5,0.1,0.7,0.2c0.1,0,0.1,0,0.2,0
	c0,0.1-0.1,0.2-0.2,0.2c-0.3,0.1-0.7,0.2-1,0.3C84-32.7,83.9-32.8,83.8-33z"/>
<path class="st0" d="M87,21.2C87,21.2,87,21.2,87,21.2c-0.1,0.3-0.1,0.3,0.1,0.3c0.1,0,0.3,0,0.4,0c-0.1,0.1-0.3,0-0.4,0.2
	c0.1,0.1,0.1,0.1,0.2,0.2c0.1,0.1,0.1,0.1,0.2,0.2c0,0.1,0,0.2,0,0.2c-0.1,0.1-0.1,0-0.2-0.1c-0.1-0.1-0.1-0.2-0.2-0.3
	c0,0-0.1-0.1-0.1-0.1c-0.3,0.1-0.2,0.4-0.2,0.6c-0.3-0.2-0.3-0.4-0.3-0.7C86.6,21.5,86.7,21.2,87,21.2L87,21.2z"/>
<path class="st0" d="M84.4-35.3c0.1-0.2,0.2-0.3,0.2-0.5c0,0,0,0,0.1-0.1c0,0,0.1,0.1,0.1,0.1c0,0.1,0,0.1,0,0.2
	c0,0.3,0.1,0.6,0.3,0.9c-0.1,0-0.2,0-0.2,0.1c-0.2,0.1-0.2,0.2-0.1,0.3c0,0.1,0.1,0.1,0.1,0.2c-0.2,0.1-0.3,0-0.3-0.1
	c0-0.1,0-0.2,0-0.3C84.6-34.7,84.6-35,84.4-35.3z"/>
<path class="st0" d="M47.6,9.8c0.1-0.3,0.2-0.5,0.5-0.7c0.2-0.1,0.3-0.1,0.5,0c0.2,0.1,0.2,0.2,0.1,0.3C48.4,9.7,47.9,9.9,47.6,9.8z
	"/>
<path class="st0" d="M82.6,22.6c0.1,0,0.1,0,0.2,0c0.5,0,0.9,0.1,1.4,0.1c0.2,0,0.5,0.1,0.6,0.2C84.5,23,82.8,22.7,82.6,22.6z"/>
<path class="st0" d="M81.5,22.1c0.3,0.2,0.5,0.3,0.8,0.3c0,0.1,0,0.2,0,0.3c-0.3,0-0.5-0.1-0.7-0.1C81.5,22.5,81.5,22.3,81.5,22.1z"
	/>
<path class="st0" d="M83.8-33.5c0.1-0.1,0.1-0.1,0.2-0.2c0.1,0,0.2,0,0.3,0c-0.1,0.1-0.1,0.3-0.3,0.4C83.9-33.3,83.8-33.4,83.8-33.5
	z"/>
<path class="st0" d="M83-33.5c0.1,0.3,0,0.5,0,0.7c0,0-0.1,0.1-0.1,0.1C82.9-33,82.9-33.3,83-33.5z"/>
<path class="st0" d="M49,9.2c0,0,0.1-0.1,0.1-0.1c0.1,0,0.2,0.1,0.2,0.1c0,0,0.1,0.1,0.1,0.1c0,0-0.1,0.1-0.1,0.1c0,0-0.1,0-0.1-0.1
	C49.1,9.3,49.1,9.3,49,9.2z"/>
<path class="st0" d="M75.1,4.2c0.3,0,0.5,0.1,0.6,0.4C75.6,4.5,75.2,4.3,75.1,4.2C75.1,4.2,75.1,4.2,75.1,4.2z"/>
<path class="st0" d="M87,21.2c0.1,0,0.2,0,0.4,0c0,0,0,0,0,0C87.3,21.2,87.2,21.2,87,21.2C87,21.2,87,21.2,87,21.2z"/>
<path class="st0" d="M81,21.8c-0.1,0-0.2,0-0.2-0.2C80.9,21.7,80.9,21.8,81,21.8z"/>
<path class="st0" d="M32,11.3c-0.4,0.2-0.8,0.3-1.3,0.5c0.1-0.2,0.4-0.2,0.5-0.5c-0.4,0-0.9,0.1-1.3,0.2c-0.1,0-0.3,0.1-0.4,0.1
	c-0.3,0.1-0.3,0.2-0.3,0.4c0,0,0,0,0,0.1c-0.1,0-0.2,0.1-0.3,0.1c-0.4,0-0.7,0.2-0.9,0.5C27.8,13,27.7,13,27.6,13
	c-0.1,0-0.2-0.1-0.2,0c-0.1,0.1,0,0.2,0,0.2c0.1,0.2,0.1,0.3-0.1,0.5c-0.1,0.1-0.3,0.2-0.5,0.3c-0.2,0.1-0.4,0.2-0.5,0.3
	c-0.5,0.4-0.5,0.8-0.2,1.2c0.1,0.1,0.1,0.2,0.2,0.3c0,0,0,0,0,0.1C26,16,25.9,16,25.7,15.7c-0.1-0.2-0.2-0.4-0.3-0.5
	c-0.1-0.1-0.2-0.2-0.3-0.2c-0.4,0-0.8-0.1-1.2-0.1c-0.2,0-0.3,0.1-0.3,0.3c-0.1,0-0.2,0-0.3,0c-0.3,0-0.6-0.1-0.8-0.1
	c-0.4,0-0.8,0.1-1.1,0.3c-0.2,0.1-0.3,0.3-0.3,0.5c-0.1,0.4-0.1,0.8,0.2,1.1c0.1,0.2,0.3,0.3,0.5,0.4c0.3,0.1,0.7,0.1,1,0
	c0.2,0,0.3-0.1,0.4-0.3c0-0.1,0.1-0.1,0.1-0.2c0.2-0.1,0.5-0.2,0.7-0.1c0.2,0,0.2,0.1,0.2,0.3c-0.1,0.1-0.1,0.3-0.2,0.4
	c-0.1,0.3-0.1,0.4,0.2,0.5c0.2,0,0.4,0,0.6,0c0.1,0,0.3,0,0.4,0.1c0.2,0.1,0.2,0.1,0.2,0.3c0,0.1,0,0.2-0.1,0.2
	c0,0.2,0.1,0.4,0.3,0.5c0.3,0.1,0.6,0.2,0.9,0.1c0.2,0,0.3,0,0.5,0c0.1,0,0.3,0.1,0.4,0.1c0.1,0,0.3,0,0.3-0.1
	c0.1-0.2,0.4-0.3,0.6-0.4c0.2-0.1,0.4-0.1,0.6-0.2c0,0.1,0,0.1,0,0.2c0.1,0.1,0.2,0.2,0.3,0.1c0.2-0.3,0.5-0.2,0.7-0.1
	c0.4,0.2,0.7,0.2,1.1,0.2c0.5,0,1,0.1,1.4,0.4c0.5,0.4,1,0.5,1.6,0.6c0.4,0,0.8,0.2,1.1,0.4c0.1,0.1,0.2,0.2,0.2,0.4
	c-0.2,0.2-0.5,0.2-0.6,0.6c0.3-0.1,0.5-0.3,0.9-0.2c-0.1,0.1-0.3,0.2-0.5,0.3c0.3,0.1,0.6,0.1,0.9-0.1c0.2-0.2,0.5-0.2,0.7,0
	c0.5,0.3,1,0.4,1.5,0.4c0.6,0,1.1,0.3,1.7,0.6c0.1,0.1,0.1,0.1,0.1,0.2c-0.1,0.2-0.2,0.4-0.4,0.6c-0.1,0.1-0.3,0.2-0.4,0.3
	c-0.2,0.2-0.3,0.4-0.4,0.7c0,0.1,0,0.2,0,0.2c0,0.4-0.1,0.7-0.3,0.9c-0.1,0.2-0.3,0.3-0.5,0.4c-0.2,0.1-0.3,0.1-0.5,0.1
	c-0.6,0.1-1.1,0.3-1.6,0.5c-0.1,0.1-0.2,0.2-0.2,0.3c0,0.4-0.2,0.7-0.5,1c-0.3,0.2-0.5,0.4-0.8,0.6c-0.3,0.2-0.6,0.2-0.9,0.1
	c-0.1,0-0.2,0-0.4-0.1c0,0.1,0,0.2,0.1,0.3c0.3,0.3,0.3,0.4-0.1,0.6c-0.1,0-0.3,0.1-0.4,0.1c-0.2,0-0.3,0-0.5,0.1
	c-0.2,0-0.4,0.1-0.5,0.2c-0.1,0.1-0.2,0.2-0.4,0.2c-0.1,0-0.1,0-0.2,0c-0.2,0.1-0.3,0.2-0.2,0.4c0,0.1,0,0.2,0,0.3
	c-0.1,0.2-0.3,0.3-0.4,0.3c-0.4,0.2-0.4,0.5,0,0.6c0,0,0.1,0.1,0.1,0.1c-0.3,0.3-0.6,0.6-0.9,0.8c-0.2,0.2-0.3,0.3-0.5,0.5
	c-0.2,0.2-0.2,0.1-0.4,0c-0.1-0.1-0.2-0.1-0.2-0.1c-0.1,0-0.2-0.1-0.3-0.1c-0.2-0.1-0.2-0.1-0.1-0.3c0-0.1,0-0.1,0-0.2
	c0-0.1,0.1-0.2,0.1-0.3c0.1-0.2,0.1-0.2-0.1-0.3c-0.1-0.1-0.3-0.1-0.4-0.2c0-0.1,0.1-0.1,0.2-0.1c0.2,0.1,0.3,0.1,0.4-0.2
	c0.1-0.2,0.1-0.4,0-0.7c-0.1-0.1-0.1-0.3-0.1-0.5c0-0.2,0-0.4,0.1-0.6c0-0.1,0.1-0.3,0.2-0.4c0.4-0.4,0.5-0.8,0.6-1.3
	c0.1-0.7,0.1-1.4,0.2-2.1c0-0.4-0.1-0.5-0.4-0.7c-0.2-0.1-0.4-0.2-0.7-0.3c-0.5-0.3-0.9-0.7-1.3-1.2c-0.2-0.3-0.4-0.7-0.7-1
	c0-0.1-0.1-0.1-0.1-0.2c0.1-0.1,0.1-0.1,0.2-0.1c0.1-0.1,0.1-0.1,0-0.2c-0.1-0.3-0.1-0.4,0.1-0.6c0.1-0.1,0.3-0.3,0.5-0.4
	c0.5-0.4,0.4-0.9,0.1-1.2c-0.1-0.2-0.3-0.2-0.5-0.1c-0.3,0.1-0.5,0.1-0.8,0c-0.2-0.1-0.5-0.1-0.7-0.2c-0.2-0.1-0.3-0.2-0.4-0.4
	c-0.1-0.2-0.3-0.3-0.5-0.3c-0.8-0.3-1.7-0.5-2.6-0.6c-0.8-0.1-1.5-0.3-2.3-0.6c-0.1,0-0.2-0.1-0.3-0.2c-0.2-0.1-0.3-0.2-0.3-0.4
	c0-0.1-0.1-0.2-0.2-0.3c-0.1-0.1-0.3-0.2-0.4-0.3c-0.5-0.4-0.9-0.8-1.4-1.2c-0.1-0.1-0.2-0.2-0.2-0.2c-0.1,0-0.2-0.1-0.3-0.1
	c-0.2,0-0.2,0.1-0.1,0.3c0.3,0.4,0.6,0.7,0.9,1.1c0.1,0.1,0.2,0.2,0.3,0.3c-0.2,0-0.4-0.1-0.5-0.2c-0.3-0.2-0.5-0.5-0.8-0.7
	c-0.2-0.2-0.4-0.5-0.6-0.8c-0.1-0.2-0.3-0.3-0.5-0.4c-0.3-0.1-0.6-0.3-0.9-0.5c-0.1-0.1-0.2-0.2-0.2-0.2c-0.1-0.1-0.3-0.3-0.4-0.4
	c-0.2-0.1-0.3-0.3-0.3-0.5c-0.1-0.5,0-0.9,0.1-1.3c0-0.1,0.1-0.1,0.1-0.1c0.1,0,0.2,0,0.2,0c0.1,0,0.1-0.1,0.2-0.1
	c0,0,0-0.1-0.1-0.2c-0.3-0.3-0.7-0.5-1.2-0.6c-0.1,0-0.1,0-0.2,0c0,0-0.1-0.1-0.1-0.1c0-0.1-0.1-0.2-0.2-0.2
	c-0.3-0.1-0.4-0.3-0.5-0.6c0-0.1-0.1-0.2-0.2-0.2c-0.2-0.1-0.3-0.2-0.4-0.3C9.9,8.1,9.1,7.9,8.3,7.8C7.7,7.7,7.1,7.6,6.5,7.5
	c-0.1,0-0.2,0-0.3-0.1C5.9,7.3,5.8,7.3,5.6,7.6C5.4,7.7,5.2,7.8,5,7.7C5,7.6,5.1,7.5,5.1,7.4c-0.2-0.1-0.4,0-0.5,0.1
	c-0.4,0.5-1,0.8-1.6,1C2.7,8.6,2.5,8.7,2.3,8.7c0.1-0.1,0.2-0.1,0.4-0.2C2.7,8.5,2.9,8.5,3,8.4c0.1-0.1,0.1-0.1,0.1-0.2
	C3,8,3,8,2.9,8C2.2,8,1.6,7.8,1,7.6c0,0-0.1,0-0.1-0.1c-0.2-0.1-0.2-0.4,0-0.5C1,7,1.1,7,1.3,7c0.1,0,0.3-0.1,0.4-0.1
	c0,0,0.1,0,0.1-0.1C1.9,6.7,2,6.6,1.9,6.5c0-0.1-0.1-0.1-0.3-0.1c-0.2,0-0.5,0.1-0.7,0.1c-0.3,0-0.5-0.1-0.7-0.3C0.4,6,0.7,6,1,6
	c0.1,0,0.2,0.1,0.4,0.1c0.1,0,0.2,0,0.3,0c0,0,0.1-0.1,0.1-0.1c0,0-0.1-0.1-0.1-0.1c-0.1,0-0.1,0-0.2-0.1c-0.4-0.1-0.7-0.2-1-0.5
	c0.1,0,0.1,0,0.2-0.1c0.4-0.1,0.8-0.3,1.2-0.4c0.7-0.2,1.3-0.4,2-0.2C4.6,4.7,5.3,4.7,6,4.8C6.7,4.8,7.4,4.9,8.1,5
	c0.4,0,0.8,0.1,1.2,0.2c0.2,0,0.4,0.1,0.4,0.3c0,0,0.1,0.1,0.1,0.1c0.1,0.1,0.2,0,0.2-0.1c0-0.1-0.1-0.2-0.1-0.3
	C10.1,5,10.4,5,10.7,5c0,0.1,0,0.2,0.1,0.2c0,0,0.1,0,0.2,0c0.2,0,0.4-0.1,0.6-0.2c0.3-0.1,0.6-0.1,0.9-0.1C12.7,5,13,5,13.2,5
	c0.4,0,0.8,0,1.2,0.1c0.3,0.1,0.6,0.1,1,0.1c0.1,0,0.2,0,0.3,0c0,0.3,0,0.3,0.3,0.3c0.2,0,0.5,0,0.7,0c0.3,0,0.6,0.1,0.8,0.2
	c0.1,0.1,0.2,0.1,0.3,0c0.1-0.1,0.1-0.3,0.1-0.4c0,0,0,0-0.1-0.1c0.3-0.1,0.6-0.1,0.9,0c0.5,0.3,1.1,0.3,1.7,0.2
	c0.1,0,0.3,0,0.4-0.1c0.2-0.1,0.2-0.1,0.1-0.3c0,0,0,0,0,0c0,0,0,0,0-0.1C20.7,5,20.9,4.9,21,5C21.1,5,21.2,5,21.3,5
	c0.1,0,0.2,0,0.3-0.1c0-0.1,0-0.1-0.1-0.2c-0.1-0.1,0-0.2,0.1-0.2c0.3-0.1,0.5-0.1,0.8,0c0.1,0,0.1,0.1,0.1,0.2
	c0,0.1,0.2,0.2,0.3,0.3c0.2,0.2,0.4,0.3,0.7,0.1c0.2-0.1,0.3-0.1,0.4,0.1c0,0,0,0.1,0.1,0.1c0.1,0.2,0.1,0.3,0.3,0.3
	c0.2,0,0.4-0.1,0.5-0.3C24.9,5,24.9,5,25.2,5c0.1,0,0.2,0,0.2,0c0.2,0,0.3,0.1,0.3,0.3c0,0.1,0.1,0.2,0.1,0.4
	c-0.1,0-0.2,0.1-0.3,0.1c-0.2,0-0.5,0.1-0.7,0.1c-0.1,0-0.2,0-0.2,0.1c0,0.1,0,0.2,0.2,0.2c0.1,0,0.2,0.1,0.4,0.1
	c0.2,0.1,0.4,0.1,0.6,0.2c0.1,0,0.1,0.1,0.1,0.1c-0.1,0-0.1,0-0.2,0c-0.3-0.1-0.5-0.1-0.8,0.1c-0.2,0.1-0.4,0.1-0.6,0
	c0-0.1,0.1-0.1,0.1-0.2c0.1-0.2,0-0.4-0.2-0.4c-0.2,0-0.4,0-0.6,0c0.1,0.2,0.3,0.2,0.4,0.2c0,0.1-0.2,0.1-0.3,0.2
	c-0.1,0-0.3,0-0.4,0.1c-0.1,0-0.2,0-0.3,0.1c-0.3,0.2-0.7,0.5-1,0.7c-0.3,0.3-0.3,0.5,0.1,0.6c0.3,0.1,0.6,0.3,0.9,0.5
	c0.4,0.2,0.8,0.3,1.2,0.4c0.3,0.1,0.6,0.1,0.9,0.1c0.1,0,0.2,0,0.2,0.1c0,0.1,0,0.1,0,0.2c-0.1,0.2,0,0.4,0.2,0.5
	c0.2,0.1,0.4,0.3,0.6,0.3c0.3,0.1,0.4,0,0.5-0.3c0.1-0.3,0.3-0.7,0.4-1c0.1-0.2,0.1-0.3,0-0.4c-0.1-0.1-0.1-0.2-0.1-0.3
	c0-0.3,0-0.5,0.1-0.8c0-0.2,0.2-0.2,0.3-0.3c0.4-0.1,0.8-0.1,1.1,0c0.3,0.1,0.6,0.3,0.9,0.4c0,0,0,0.1,0,0.1c-0.1,0.3,0,0.5,0.3,0.5
	c0.3,0.1,0.6,0,0.9-0.1c0.1,0,0.2-0.1,0.2-0.1c0.2-0.1,0.3-0.1,0.5,0.1c0.1,0.1,0.2,0.2,0.3,0.4c0.3,0.4,0.7,0.6,1.1,0.7
	c0.1,0,0.2,0,0.3,0.1c-0.2,0.1-0.4,0.2-0.6,0.3c0.2,0.1,0.4,0.1,0.6,0.1c0.1,0,0.2,0,0.3,0c0.1,0,0.2,0,0.2,0.1
	c0.1,0.1,0.2,0.3,0,0.3C33.3,10,33.2,10,33.1,10c-0.7,0.1-1.4,0.2-2,0.2c-0.3,0-0.6,0.1-0.8,0.1c-0.4,0.1-0.8,0.3-1.1,0.7
	c0.2-0.1,0.3-0.1,0.4-0.1c0.3-0.1,0.6-0.2,0.9-0.3c0.2,0,0.2,0,0.4,0c-0.1,0-0.1,0-0.1,0.1c-0.1,0-0.1,0.1-0.1,0.1
	c0,0.1,0.1,0.1,0.1,0.2c0.2,0.1,0.4,0.2,0.6,0.2C31.6,11.3,31.8,11.3,32,11.3L32,11.3z"/>
<path class="st0" d="M34.6,5.7c0.2-0.1,0.3-0.2,0.3-0.4c0,0,0-0.1,0-0.1c0.1-0.2,0-0.3-0.2-0.4c-0.1,0-0.2,0-0.3-0.1
	c0.1-0.1,0.1-0.1,0.2-0.1c0.2-0.1,0.1-0.3-0.1-0.3c-0.1,0-0.2,0-0.2,0c-0.1,0-0.2,0.1-0.2,0.1c0,0-0.1,0-0.1,0
	c-0.1-0.4-0.4-0.6-0.7-0.9c-0.1-0.1-0.3-0.2-0.5-0.3C32.7,3,32.6,3,32.4,3c-0.6,0-1.1,0-1.7,0.1c-0.3,0-0.7,0.1-1,0
	c-0.1,0-0.2-0.1-0.3-0.2c0.3-0.1,0.6,0,0.8-0.3c-0.4-0.2-0.9-0.1-1.4-0.2c0.2-0.2,0.5-0.1,0.7-0.2c0.3,0,0.6-0.1,0.9-0.1
	c0.2,0,0.4-0.1,0.5-0.2c0,0,0.1-0.1,0.1-0.2c0-0.1-0.1-0.1-0.2-0.1c-0.2,0-0.3,0-0.5,0c0.1-0.1,0.2-0.1,0.3-0.1
	c0.2,0,0.5-0.1,0.7-0.1c0.3,0,0.6-0.1,0.8-0.4c0.1-0.1,0.2-0.1,0.3-0.1c0.5,0,1.1-0.1,1.6-0.1c0.1,0,0.1,0,0.2,0
	c0.2,0,0.4,0,0.6-0.1c0.2-0.1,0.4-0.1,0.7-0.1c0.3,0,0.5,0,0.8,0c0.1,0,0.3,0,0.4,0c0.1,0,0.2,0,0.2-0.1c0-0.1,0-0.2-0.1-0.2
	c-0.1,0-0.2,0-0.3,0c-0.1,0-0.2,0-0.2,0c0,0,0,0,0,0c0,0,0.1-0.1,0.1-0.1c0.1,0,0.1,0,0.2,0c1.2,0,2.4,0,3.5,0c0.1,0,0.1,0,0.2,0
	c-0.1,0.1-0.3,0.1-0.4,0.2c0,0,0,0,0,0c0.1,0,0.1,0,0.2,0c0.5,0,0.9-0.1,1.4-0.1c0.4,0,0.8,0,1.2,0c0.1,0,0.2,0,0.2,0.1
	c0.1,0.2,0.2,0.2,0.4,0.2c0,0,0.1,0,0.2,0c-0.4,0.1-0.9,0.1-1.3,0.2c-0.6,0.1-1.2,0.2-1.8,0.4c0,0-0.1,0-0.2,0.1
	c0.4,0.1,0.7,0,1-0.1C41.4,1.1,41.8,1,42.2,1c0.5,0,0.9,0,1.4-0.1c0.1,0,0.1,0.1,0.2,0.1c0.1,0,0.2,0.1,0.3,0.1c0.5,0,0.9,0,1.4-0.1
	c0.1,0,0.2,0,0.3-0.1c0.3-0.1,0.6-0.1,0.9,0c-0.2,0.1-0.5,0.1-0.7,0.2c-0.3,0.1-0.5,0.1-0.8,0.2c-0.3,0-0.5,0-0.8,0.1
	c0.2,0.1,0.5,0.1,0.6,0.3c-0.1,0.1-0.1,0.1-0.2,0.2c-0.1,0.1-0.2,0.1-0.3,0.2c-0.1,0.1-0.1,0.3,0,0.4c0.1,0,0.1,0.1,0.2,0.1
	c-0.2,0.1-0.5,0-0.7,0.1c0,0.2,0.2,0.1,0.3,0.2c0,0-0.1,0.1-0.1,0.1c0.1,0.2,0.4,0.1,0.6,0.3c-0.1,0-0.2,0-0.2,0
	c-0.2,0-0.2,0-0.2,0.3c-0.3-0.1-0.6-0.1-0.9-0.2c-0.3,0-0.6,0.1-0.9,0.2c0.1,0.4,0.4,0.5,0.8,0.5c0.3,0,0.5,0.1,0.7,0.2
	c-0.1,0.1-0.2,0.1-0.3,0.1c-0.1,0-0.2-0.1-0.3-0.1c-0.2-0.1-0.3,0-0.5,0.1c-0.1,0.1-0.2,0.1-0.3,0.2c0.3,0.1,0.7,0.1,1,0.1
	c-0.1,0-0.2,0.1-0.2,0.1c-0.6,0.2-1.2,0.2-1.9,0.2c-0.2,0-0.4,0-0.6,0.1c-0.4,0-0.7,0.2-1,0.5c-0.1,0.1-0.2,0.1-0.3,0.2
	c-0.1,0-0.2,0-0.3,0.1c-0.5,0.1-0.9,0.2-1.2,0.5c-0.2,0.2-0.3,0.4-0.4,0.6c-0.1,0.3-0.2,0.4-0.5,0.4c-0.7,0-1.4-0.3-1.9-0.8
	c-0.1-0.1-0.2-0.2-0.3-0.3c-0.2-0.2-0.2-0.3,0-0.4c0,0,0,0,0.1-0.1c0.1-0.1,0.1-0.1-0.1-0.2C34.7,5.7,34.7,5.7,34.6,5.7z"/>
<path class="st0" d="M31.6,0.6c-0.3,0.1-0.7,0.2-1.1,0.3c0,0.1,0,0.2,0,0.3c-0.3,0.1-0.5,0.1-0.8,0.2c-0.3,0.1-0.7,0.2-1,0.3
	c-0.1,0-0.2,0-0.3,0c-0.2,0-0.4,0-0.5,0c-0.3,0-0.5,0.1-0.8,0.2c0.1,0.2,0.3,0.1,0.4,0.2c-0.5,0.2-1,0.3-1.4,0.4
	c0,0.2,0.1,0.2,0.2,0.2c0.1,0,0.2,0,0.3,0c0,0-0.1,0-0.1,0.1c-0.4,0.1-0.8,0.1-1.3,0c-0.4,0-0.9,0-1.3-0.1c-0.1,0-0.2,0-0.3,0
	c0.1-0.3,0.4-0.3,0.6-0.5C24.1,2,23.9,2,23.6,2.1c-0.3,0.1-0.6,0.2-0.9,0.1c-0.1,0-0.2-0.1-0.3-0.2C22.5,2,22.6,2,22.8,1.9
	c-0.3-0.1-0.7-0.1-1-0.3c0,0,0-0.1,0-0.1c0.4-0.3,0.8-0.5,1.3-0.2c0.2,0.1,0.4,0.1,0.6,0.2c0.1,0,0.2,0.1,0.3,0.2
	c0.3,0.4,0.8,0.5,1.3,0.5c0.2,0,0.4-0.1,0.6-0.1c0,0,0,0,0-0.1c-0.1,0-0.2,0-0.3-0.1c-0.2-0.1-0.5-0.1-0.7-0.2
	c-0.1,0-0.2-0.1-0.2-0.1c0.1-0.1,0.2-0.1,0.3-0.1c0.2,0,0.4,0,0.7,0c0.3,0,0.6-0.1,0.8-0.3c-0.3,0-0.7,0-1,0c-0.5,0-1-0.1-1.5-0.2
	c-0.2,0-0.4-0.1-0.6-0.2c0.7-0.1,1.4-0.2,2-0.3c0.2,0,0.3-0.1,0.4-0.2c0.1-0.1,0.1-0.1,0.2-0.1c0.2,0,0.4-0.1,0.6-0.1c1,0,2,0,3.1,0
	c0.1,0,0.3,0,0.4,0.1c0.4,0.1,0.7,0.2,1.1,0.1C31.2,0.3,31.4,0.4,31.6,0.6C31.6,0.5,31.6,0.5,31.6,0.6z"/>
<path class="st0" d="M28.8,5.9c-0.2-0.3-0.4-0.5-0.6-0.6c-0.5-0.2-1-0.3-1.5-0.4c-0.7-0.1-1.5-0.1-2.3-0.1c-0.2,0-0.5,0-0.7-0.1
	c-0.1,0-0.1-0.1-0.2-0.1c-0.1-0.1-0.2-0.2-0.2-0.3c0-0.1,0.1-0.2,0.3-0.2c0.2-0.1,0.3-0.1,0.5-0.1c0.1,0,0.2,0,0.2,0
	c0.3,0.1,0.6,0.1,0.9,0c0.1,0,0.1,0,0.2-0.1c0.1,0,0.3,0,0.3,0.1c0.2,0.4,0.6,0.4,1,0.3c0.1,0,0.1,0,0.2-0.1c0.3-0.1,0.5-0.1,0.8,0
	c0.1,0.1,0.2,0.1,0.3,0.2c0.3,0.1,0.5,0.1,0.8,0.1c0,0.2,0.2,0.3,0.4,0.3c0.3,0,0.5,0.1,0.8,0.2c0,0,0,0.1,0,0.1
	C30,5.3,30,5.3,30.3,5.4c0.2,0,0.4,0.1,0.5,0.1c0.3,0.1,0.5,0.1,0.8,0.2c0.1,0,0.1,0,0.2,0.1c-0.1,0.1-0.3,0.2-0.4,0.3
	c-0.1,0.1-0.2,0.1-0.4,0c-0.2-0.1-0.3-0.2-0.5-0.2c-0.1-0.1-0.3-0.1-0.4,0C30,6,30,6.1,30.1,6.2c0.2,0.1,0.3,0.2,0.5,0.3
	c0.1,0.1,0.2,0.1,0.3,0.3C30.8,7,30.5,7,30.6,7.2c-0.4-0.1-0.8-0.1-1.2-0.2c-0.3-0.1-0.5-0.1-0.8-0.3c-0.3-0.2-0.7-0.3-1.1-0.2
	c-0.1,0-0.3,0-0.4,0c-0.1,0-0.1,0-0.2,0c0.1-0.1,0.2-0.1,0.3-0.1c0.2,0,0.3,0,0.5,0c0.2,0,0.3-0.1,0.5-0.2c0-0.1,0.1-0.1,0.2-0.1
	C28.5,5.9,28.6,5.9,28.8,5.9z"/>
<path class="st0" d="M13.1,4.2c0.1-0.1,0.2-0.3,0.2-0.4c0.1-0.2,0.4-0.3,0.6-0.3c0.3,0,0.7,0,1,0.1c0.3,0,0.6,0.1,0.9,0.3
	C16,4,16.2,4.1,16.4,4.1c0.1,0,0.2,0,0.3,0c0.3,0,0.6,0,0.9,0.2c0.2,0.1,0.3,0.1,0.4-0.1c0,0,0-0.1,0.1-0.1c0.2-0.1,0.4-0.2,0.6-0.2
	c-0.1,0.4,0,0.6,0.3,0.7c0.1,0.1,0.2,0.1,0.3,0.1c0.1,0,0.2,0.1,0.3,0.1c0,0.1-0.1,0.2-0.2,0.3C19.3,5,19.2,5,19,5
	c-0.6-0.1-1.1,0-1.7,0.1c-0.6,0.1-1.2,0-1.8-0.2c0.4,0,0.8-0.1,1.2-0.1c-0.2-0.2-0.4-0.2-0.6-0.2c-0.2,0-0.4,0-0.6,0c0,0,0,0-0.1,0
	C15.1,4.5,15,4.4,15,4c-0.3,0-0.5,0.1-0.7,0.2c-0.3,0.1-0.5,0.2-0.8,0.2C13.3,4.4,13.2,4.3,13.1,4.2z"/>
<path class="st0" d="M46.3,6.3c-0.1,0-0.1,0.1-0.2,0.1c-0.4,0.1-0.9,0.2-1.3,0.3c-0.4,0.1-0.7-0.1-1-0.2c0.3-0.1,0.6-0.2,0.8-0.3
	c0,0,0.1,0,0.1,0C45.1,6,45.6,6,46,6.1C46.1,6.1,46.2,6.1,46.3,6.3z"/>
<path class="st0" d="M25.9,8.5c0.3,0,0.5,0,0.7,0.1c0,0.1,0,0.2,0,0.2c0,0.2,0,0.3,0,0.5c0,0.2-0.1,0.4-0.2,0.7c0,0-0.1,0.1-0.1,0.1
	c-0.2,0.1-0.4-0.1-0.4-0.3c0-0.3,0-0.6,0-1C25.9,8.7,25.9,8.6,25.9,8.5z"/>
<path class="st0" d="M21.8,2.8c0.5,0,0.9,0,1.3,0.3c0.2,0.1,0.4,0.1,0.6,0.1c0.9,0,1.7,0,2.6-0.1c0,0,0.1,0,0.1,0
	c0,0.1-0.1,0.1-0.1,0.1c-0.1,0-0.1,0-0.2,0c-0.6,0-1.2,0.1-1.8,0.1c-0.4,0-0.8-0.1-1.3-0.1c0,0-0.1,0-0.1,0
	C22.5,3,22.1,2.9,21.8,2.8z"/>
<path class="st0" d="M34.3,11c-0.1,0-0.2,0.1-0.3,0.1c-0.1,0-0.2,0-0.3-0.1c-0.1-0.1-0.2-0.1-0.3-0.1c-0.2,0-0.3,0-0.5,0
	c-0.1,0-0.3,0-0.4-0.2c0.1-0.1,0.1-0.2,0.2-0.2c0.2-0.1,0.3-0.2,0.5-0.2c0.1,0,0.2,0,0.3,0.1c0.1,0.1,0.3,0.2,0.5,0.3
	C34.3,10.8,34.3,10.8,34.3,11z"/>
<path class="st0" d="M21.4,4.2c-0.4,0.3-0.8,0.2-1.4-0.1c0.3-0.2,0.7-0.4,1.1-0.3c0,0.1,0,0.2,0.1,0.3C21.2,4.1,21.3,4.1,21.4,4.2z"
	/>
<path class="st0" d="M18.7,5.2c0-0.2,0.1-0.1,0.2-0.1c0.3,0,0.6,0.1,0.9,0.3C19.4,5.4,19.1,5.4,18.7,5.2z"/>
<path class="st0" d="M26.3,19.6c0.3-0.1,0.3-0.1,0.5,0.1C26.6,19.7,26.5,19.6,26.3,19.6z"/>
<path class="st0" d="M25.7,19.7c-0.1,0-0.1,0-0.2-0.1c0,0,0,0,0,0C25.6,19.6,25.7,19.6,25.7,19.7C25.7,19.6,25.7,19.6,25.7,19.7z"/>
<path class="st0" d="M28.2,5.6c0.1,0,0.1,0,0.2,0c0,0,0,0,0,0c0,0,0,0-0.1,0C28.3,5.7,28.2,5.7,28.2,5.6C28.2,5.7,28.2,5.6,28.2,5.6
	z"/>
<path class="st0" d="M32,11.3c0-0.1,0.1-0.1,0.2-0.1C32.1,11.3,32,11.3,32,11.3C32,11.3,32,11.3,32,11.3z"/>
<path d="M16.2,3.3c-0.1,0-0.3,0-0.4,0c-0.1,0-0.1,0-0.2,0c-0.2,0-0.3-0.1-0.3-0.2c0-0.1,0.1-0.2,0.3-0.3c0.1,0,0.3,0,0.4,0
	C16.4,2.9,16.7,3,17,3.1c0.1,0,0.2,0,0.2,0c0.1,0,0.2,0,0.3-0.2c0.1-0.2,0.2-0.2,0.4-0.1c0,0,0.1,0,0.1,0.1C18.1,3,18.2,3,18.3,3
	c0.1,0,0.2,0,0.2,0.1c0,0.1-0.1,0.2-0.2,0.2c-0.2,0-0.5,0.1-0.8,0.1c-0.3,0-0.5,0.1-0.8,0.1c-0.1,0-0.2,0-0.4,0
	C16.2,3.6,16.2,3.6,16.2,3.3z M15.5,3.1c0.1,0.1,0.1,0.1,0.2,0.1c0.1,0,0.2,0,0.4,0c0.1,0,0.2,0,0.2,0c0,0,0,0.1,0.1,0.2
	c0.2,0,0.4,0,0.7-0.1c0.2,0,0.4-0.1,0.7-0.1c0.2,0,0.4,0,0.6-0.1c-0.2-0.1-0.4-0.2-0.7-0.3c-0.2,0.4-0.3,0.4-0.8,0.3c0,0,0,0,0,0
	C16.5,3.1,16.3,3.1,16,3C15.8,3,15.6,3,15.5,3.1z"/>
<path class="st0" d="M64.2,26.5c-0.2,0-0.4-0.1-0.5-0.3c-0.1-0.2-0.1-0.4,0.1-0.5c0.1-0.1,0.2-0.3,0.1-0.4c-0.1-0.3,0.1-0.4,0.3-0.5
	c0.1-0.1,0.3-0.1,0.4-0.2c0.3-0.1,0.5-0.2,0.7-0.5c0.1-0.1,0.2-0.1,0.3,0c0.1,0.2,0.1,0.3,0,0.5c-0.2,0.5-0.4,1-0.6,1.5
	C64.8,26.4,64.6,26.5,64.2,26.5z"/>
<path d="M66.9,12.4c-0.1,0.1-0.2,0.1-0.3,0.2c0.1,0.1,0.1,0.1,0.1,0.2c0.2,0.3,0.2,0.5-0.2,0.6c-0.3,0.1-0.6,0-0.9-0.1
	c-0.2-0.1-0.2-0.2-0.1-0.4c0,0,0-0.1,0.1-0.1c0.1-0.2,0.1-0.3-0.1-0.4c-0.2-0.1-0.3-0.3-0.4-0.6c-0.1-0.2,0-0.4,0.2-0.5
	c0.3-0.2,0.7-0.2,1.1-0.2c0.1,0,0.2,0.1,0.2,0.2c0,0.1-0.1,0.1-0.1,0.2c-0.1,0-0.2,0.1-0.3,0.1c-0.1,0.1-0.1,0.1,0,0.2
	c0,0.1,0.1,0.1,0.2,0.2c0,0,0.1,0.1,0.1,0.1c0.1,0.2,0.2,0.2,0.4,0.2C66.8,12.4,66.8,12.4,66.9,12.4C66.9,12.4,66.9,12.4,66.9,12.4z
	"/>
<path class="st0" d="M15.5,3.1C15.6,3,15.8,3,16,3c0.3,0,0.6,0.1,0.9,0.2c0,0,0,0,0,0c0.4,0.1,0.5,0,0.8-0.3
	c0.2,0.1,0.4,0.2,0.7,0.3c-0.2,0.1-0.4,0.1-0.6,0.1c-0.2,0-0.4,0.1-0.7,0.1c-0.2,0-0.4,0-0.7,0.1c0-0.1,0-0.2-0.1-0.2
	c-0.1,0-0.2,0-0.2,0c-0.1,0-0.2,0-0.4,0C15.6,3.2,15.5,3.2,15.5,3.1z"/>
</svg>
